<?xml version="1.0" encoding="utf-8"?>
<!-- Generator: Adobe Illustrator 22.1.0, SVG Export Plug-In . SVG Version: 6.00 Build 0)  -->
<svg version="1.1" id="Layer_1" xmlns="http://www.w3.org/2000/svg" xmlns:xlink="http://www.w3.org/1999/xlink" x="0px" y="0px"
	 viewBox="0 0 2916.1 848.1" enable-background="new 0 0 2916.1 848.1" xml:space="preserve">
<g>
	<path id="letters" fill="#EC4E5E" d="M2916.1,598.3L2916.1,598.3c0-4.5-0.8-8.2-3-12c-7.5-18-27-27-45.8-20.3c0,0-3,1.5-9,5.3
		c-5.2,3-11.2,9.7-18.8,19.5c-12.8,19.5-32.2,46.5-59.2,79.5c-6.8,8.2-14.2,15.7-21.8,24.7c-8.2,8.2-16.5,16.5-26.2,24.7
		c-18,15.7-39,32.2-63,43.5c-3,1.5-6,3-9,3.8c-3,1.5-6,2.2-9,3c-3,0.7-6,3-9,3c-3,0.7-5.3,1.5-8.3,2.2l-3.8,1.5l-6,0.7
		c-3.8,0-8.2,0.7-12,0.7h-0.8h-2.2c-1.5,0-2.2,0-3-0.7c-2.2,0-4.5-0.7-6.8-1.5c-9-3-18-9.7-27-21c-3.8-4.5-8.2-10.5-11.2-16.5
		c0-0.7,0.8-0.7,0.8-1.5c33-43.5,57-90.7,74.2-139.5c2.2-6,4.5-12,6.8-18c2.2-5.2,3.8-12,6-18c3.8-12,7.5-24.7,9.8-36.8
		c6-24.7,10.5-50.2,12.8-76.5c0.8-13.5,0.8-27-1.5-42c-1.5-7.5-3-15-5.2-23.2c-3-8.2-6.8-16.5-13.5-25.5s-15.8-15.7-27-21
		c-3-1.5-5.2-2.2-8.2-3c-3-0.7-5.2-1.5-8.2-2.2s-5.2-0.7-8.2-0.7h-3.8c-1.5,0,0.8,0-3,0h-1.5h-2.2c-0.8,0-1.5,0-3,0l-3.8,0.7
		l-7.5,1.5l-6.8,1.5c-9,2.2-16.5,5.2-24,9c-15,9-27,20.3-35.3,31.5c-9,12-15.8,24-21,36c-10.5,24-16.5,47.2-21,70.5
		c-4.5,23.2-7.5,45-9,67.5c-0.8,12-1.5,23.2-1.5,34.5s0.8,22.5,1.5,33c3,39,10.5,76.5,24,111.8l-6,6l-3,3l-2.2,1.5l0,0l-0.8,0.7
		l-6,5.3c-16.5,13.5-35.2,24.7-53.2,29.3l-6.8,1.5c-2.2,0.7-3,0.7-5.2,0.7c-1.5,0-1.5,0.7-3,0.7h-4.5h-4.5l0,0h-1.5
		c-5.2-0.7-12-3-18.8-8.2c-6.7-4.5-12.8-12-18.8-21c-3-3.8-5.2-9-8.2-13.5s-4.5-9-7.5-15c-4.5-9.7-8.2-21-11.2-32.2l-4.5-15.7
		l-2.2-9l-1.5-4.5l-0.8-2.2v-0.7l0,0v-1.5c-2.2-12-4.5-24-6-36c-0.8-3-0.8-6-1.5-9c3-8.2,6.8-15,9.7-23.2
		c14.2-33,27-68.2,39.8-104.3c13.5-36.8,27-74.3,36.8-114.7c10.5-41.2,18-84.8,21-130.5c1.5-22.5,2.2-46.5-0.8-70.5s-6.7-49.5-18-75
		c-3-6.8-6.8-13.5-11.2-20.3c-4.5-6.8-10.5-13.5-19.5-20.3c-3-1.5-4.5-3-7.5-4.5s-5.2-3-9-3c-3-0.7-6.8-2.2-10.5-2.2h-3
		c-0.8,0-6.7,0-4.5,0h-0.7h-1.5l-3,0.7c-2.2,0.7-4.5,1.5-6.8,2.2c-3,0.7-3,1.5-5.3,2.2c-1.5,0.7-3,1.5-3.8,2.2c-3,1.5-4.5,3-7.5,5.3
		c-2.2,2.2-3.8,3-5.2,5.3c-6.8,7.5-11.2,14.3-15,21c-3.8,6.8-6.8,13.5-9,19.5c-5.3,12.8-9,25.5-12,37.5c-12.8,49.5-18,99-21,148.5
		c-2.2,24.7-3,50.2-3,75c0,12.8-0.8,25.5-0.8,38.2c0,12.8,0,24.7,0,37.5c0,50.3,0.8,101.2,5.2,153c0.8,9,2.2,18.8,3,27.8
		c-6,11.2-12,21.8-18.8,32.2c-3.8,6-8.2,12-12,18s-8.2,11.2-12,16.5s-8.2,9.7-12,15c-3.8,4.5-9,9.7-14.2,15l-2.2,2.2
		c-0.8,0.7,0.8-0.7,0,0l-0.8,0.7l-0.8,0.7l-3,3c-2.2,2.2-4.5,3.8-6.8,6c-3.8,3.8-9,7.5-13.5,10.5c-2.2,1.5-4.2,3-6.7,4.5
		c-2.2,1.5-14.5,8.6-19.5,12c-3.8,2.2-7.5,3.8-10.5,6c23.2-46.5,36-106.5,36-164.3c0-63-21-126.8-57.8-173.2
		c-29.2-37.5-82.5-81-171-90c0-23.2,0-45,0-66.8c0-30,0.8-57.8,1.5-82.5c0.8-24.7,0.8-45.7,1.5-63c0.8-35.3,0.8-55.5,0.8-55.5v-0.7
		c0-18.8-15-33.8-33.8-33c-18.8,0-33.8,15-33,33.8c0,0,0,20.3,0.8,55.5c0,17.2,0.8,39,1.5,63c0.8,24.7,1.5,51.8,1.5,82.5
		c0,27,0,93.8,0,99l-3,231c0,6,0,13.5,0,21.8c0,9.7,0,21,0,30.7c0,20.3,0,39.7-0.8,58.5c-1.5,18-3,36-9,48.8c-3,6-5.2,11.2-9,14.3
		c-3,3-6.8,6-12,7.5c-5.2,2.2-11.2,3-18.8,3h-2.2h-1.5l-7.5-0.7c-6,0-6.7-1.5-9-2.2c-2.2,0-4.5-2.2-7.5-3c-0.8,0-1.5-0.7-2.2-0.7
		l-2.2-1.5c-1.5-0.7-3-1.5-3.8-2.2c-3-1.5-4.5-3.8-7.5-6c-2.2-2.2-4.5-4.5-6.8-7.5c-17.2-21-27-53.2-29.2-81c0-2.2,0-3,0-4.5v-3v-3
		c0-3.8,0-9,0-12.8c0-9,0-16.5,0-24.7c0-15.7,0-32.2,0-47.2c0-120.7-0.8-201-0.8-201c0-3,0-12.8,0-15.7c-1.5-18.8-18-33-36.7-30.7
		c0,0-3,0-9,0.7s-15,1.5-27,3c-12,2.2-27,4.5-43.5,9s-36,10.5-56.2,21s-41.2,24-59.2,43.5c-18.8,19.5-33,44.3-43.5,70.5
		c-4.5,13.5-9,27-11.2,40.5c-3,14.3-3.8,27.8-4.5,42.8c-0.8,21.8,1.5,55.2,3,68.2c0.5,4.3-1.5,26.2-2.2,33c-0.8,7.5-1.5,15-2.2,22.5
		c-2.2,15-4.5,30-9,43.5c-3.8,13.5-9,25.5-15.8,33.8c-3,3.8-6.8,7.5-9.8,9s-6.8,3-10.5,3.8c-0.8,0-2.2,0-3,0h-1.5l0,0h-0.8l-6-0.7
		c-0.8,0-3,0-3,0c-0.8,0-0.8,0-1.5-0.7c-0.8,0-1.5-0.7-2.2-0.7l-3-1.5c-2.2-0.7-3-2.2-5.2-3c-6-3.8-12-11.2-16.5-22.5
		s-7.5-25.5-9-39.7c-2.2-15-2.2-30-2.2-45c0.8-31.5,3.8-63,9-96c4.5-32.2,9.8-64.5,15.8-97.5l1.5-6v-1.5l0.8-3l0.8-3
		c0-0.7,0-0.7,0-2.2v-3c0-2.2,0-3.8,0-6c0-3.8-0.8-7.5-0.8-10.5c-2.2-14.3-8.2-27-15.8-38.2c-8.2-11.2-19.5-20.3-31.5-27
		c-3-1.5-6-3-9-3.8c-3-1.5-6.8-2.2-9.8-3c-3-0.7-15-3-15-3c-4.5-0.7-6.8-2.2-9-3l-9.8-3l-11.2-3.8l-11.2-3.8l-23.2-9l-6-2.2
		c-2.2-0.7-3.8-1.5-5.2-2.2l-9-3.8l0,0l-1.5-0.7c-18.8-6.8-39.8,3-47.2,21c-3,7.5-5.2,14.3-9,21c-1.5,3-3,6.8-4.5,9.7
		c-1.5,3-3,6.8-5.2,9.8c-3,6.8-7.5,12.8-11.2,19.5c-3.8,6-9,12-13.5,17.2l-3,3.8l-3,3.8c-2.2,2.2-3.8,4.5-6,6.8
		c-26.2-82.5-76.5-104.3-120.8-104.3c-107.2,0-155.2,124.5-155.2,248.2c0,27,1.5,53.2,4.5,76.5c0,0.7,0,1.5,0,1.5v1.5c0,0,0,3,0,9.7
		c0,6.8-0.8,16.5-2.2,28.5c-1.5,12-4.5,26.2-9.8,39.7c-1.5,3-3,6.8-4.5,9.7c-2.2,3-3,6-6,9c-1.5,1.5-2.2,3-3,3c-1.5,0.7-2.2,2.2-3,3
		c-3,1.5-4.5,3-7.5,3.8c-0.8,0-1.5,0.7-2.2,0.7s-0.8,0-1.5,0s-0.8,0-1.5,0.7l-0.8,0.7c0,0-1.5,0-2.2,0c-3,0-5.2,0.7-8.2,0.7l0,0
		h-1.5c-0.8,0-1.5,0-3,0c-6-0.7-11.2-3-17.2-8.2c-12-9.7-22.5-32.2-29.2-57c-1.5-6-3-12.8-3.8-18.8c-1.5-6.8-2.2-13.5-2.2-18.8
		c0-3,0-6.8-0.8-10.5v-1.5v-0.7l0,0v3v-6c0-8.2,0-15,0-23.2c0-31.5,0.8-63,0.8-93.8c0.8-126,2.2-252,3-346.5c0-23.2,0-45,0-64.5
		s-0.8-36-0.8-50.3c-0.8-27-2.2-43.5-2.2-43.5c-1.5-16.5-15-30-31.5-31.5c-18.8-1.5-34.5,12.8-36,31.5c0,0-1.5,15.7-2.2,43.5
		c0,14.3-0.8,30.7-0.8,50.3c0,19.5,0,40.5,0,64.5c0,45,0.8,98.2,1.5,153.8c-17.3-7.5-37.5-12-61.5-12c-111,0-159.8,156.8-159.8,312
		v12.8c0,44.3,0.8,93-18.8,112.5c-3,3-9.8,10.5-33,10.5c-63,0-75.8-93-75.8-111V366.3c0-0.7,0-0.7,0-1.5c0-0.7,0-0.7,0-1.5
		c0-0.7,0-1.5-0.8-2.2c0-1.5-0.8-2.2-0.8-3s-0.8-2.2-0.8-3c-0.7-1.5-0.7-2.2-1.5-3c-0.8-0.7-0.8-2.2-1.5-3c-0.8-0.7-1.5-2.2-2.2-3
		c-0.8-0.8-1.5-1.5-2.2-2.2s-1.5-2.2-3-3c-0.8-0.7-1.5-1.5-2.2-2.2c-1.5-0.7-2.2-1.5-3-2.2s-1.5-0.7-3-1.5c-1.5-0.7-2.2-1.5-3-1.5
		s-2.2-0.7-3-0.7c-1.5,0-3-0.7-3-0.7c-1.5,0-2.2,0-3,0s-1.5,0-2.2,0s-0.8,0-1.5,0s-0.8,0-1.5,0C92.2,344.9,0,440.1,0,593.1
		c0,150.7,66,255,160.5,255c25.5,0,72.8-7.5,102-54.7c22.5,30,56.2,52.5,102.8,52.5c33.8,0,61.5-9.7,81-30
		c7.5-7.5,13.5-15.7,18-25.5c23.2,32.2,58.5,55.5,112.5,55.5c30,0,57-11.2,77.2-33c7.5-7.5,13.5-15.7,19.5-25.5
		c6.8,11.2,15,21.8,26.2,31.5c15,12.8,33.8,21,53.2,23.2l7.5,0.7h3h0.8h0.8c1.5,0-3,0,3,0h1.5c3,0,6-0.7,9-0.7c0.8,0,1.5,0,3,0
		l3.8-0.7c3-0.7,5.2-1.5,8.2-2.2s5.2-1.5,7.5-2.2l6-3c9-3,15.8-9,22.5-13.5c3-3,6-5.2,9-9c3-3,5.2-6,7.5-9
		c4.5-5.3,8.2-11.2,11.2-16.5c24.8,37.5,58.5,57,100.5,57c93,0,147.8-96.8,147.8-259.5c0-23.2-1.5-45-3-63c3.8-3,8.2-4.5,11.2-7.5
		c3.8-3,8.2-6,12-9l10.5-9.7c3.8-3,6.8-6.8,9.8-10.5l5.2-5.3l4.5-5.2c6.8-7.5,12-15,17.2-22.5c5.2-8.2,10.5-15.7,15-24
		c3-3.8,4.5-8.2,6.8-12c1.5-2.2,2.2-3.8,3-6l15.8,4.5l12.8,3.8l12.8,3l6,2.2l8.2,2.2c5.2,1.5,11.2,3,15,3l3,0.7h0.8h0.8l3,0.7h0.8
		c0.8,0,1.5,0,2.2,0s1.5,0,2.2,0.7c0.8,0,1.5,0.7,2.2,0.7c3,1.5,4.5,3,6.8,5.3c2.2,2.2,3,4.5,3,7.5c0,0.7,0,1.5,0,2.2l0,0l0,0
		c0,0,0,0.7,0,1.5l-0.8,3v0.7v0.7l-1.5,6c-6,33-11.2,66-15.8,99.7s-8.2,69-9,104.3c0,18,0.8,36,3,54.8s6,38.2,14.2,57
		c3.8,9.7,9,20.3,16.5,29.3c6.8,9,16.5,18,27,25.5c5.2,3,11.2,6.8,17.2,8.2c3,1.5,6,2.2,9,3c3,0.7,6.7,1.5,9.8,2.2l5.2,0.7
		c2.2,0,2.2,0,3,0l6,0.7h1.5h3h1.5h4.5c3,0,6,0,9-0.7c12.8-1.5,25.5-6.8,36-13.5c10.5-6.8,20.2-15,27-24.8c9-11.2,15-23.2,20.2-34.5
		c7.5,10.5,15.8,21,25.5,29.3c5.2,5.3,12,9,18.8,14.3c3,2.2,6.8,3.8,9.8,6s6.8,3.8,10.5,4.5c3,1.5,7.5,3,10.5,3.8
		c3,1.5,8.2,2.2,12,3l6,1.5l3,0.7c0.8,0,1.5,0,2.2,0c3,0,5.2,0.7,8.2,0.7h2.2h1.5h3l0,0h0.8h5.2c3,0,6.8,0,10.5-0.7
		c7.5-1.5,14.2-2.2,21-4.5s13.5-5.3,20.2-8.2c3-2.2,6-3,9-5.2s6-3.8,8.2-6c9-7.5,16.5-16.5,22.5-25.5c3,5.3,7.5,11.2,12,16.5
		c3.8,4.5,8.2,9,12.8,13.5c4.5,3.8,9,9,15,12l9,5.3l3.8,3c1.5,0.7,3,1.5,4.5,2.2c6.8,3,12,5.3,20.2,7.5c7.5,2.2,15.8,3,20.2,3
		l7.5,0.7h2.2h0.8h3h0.8h4.5c12.7-0.7,26.2-2.2,39-7.5c13.5-4.5,27-13.5,38.3-24.7c5.2-6,9.7-12,14.2-18c21,29.3,54,50.3,101.2,50.3
		c0.8,0,2.2,0,3,0c0,0,1.5,0,3,0c3,0,5.2,0,9,0c7.5,0,18-0.7,31.5-3c27-3.8,65.2-14.3,108-39.7c5.2-3,10.5-6.8,15.8-10.5
		c3-2.2,5.2-3.8,8.2-6s5.2-3.8,8.2-6.8c5.3-4.5,10.5-9,15-13.5c3-3,5.3-4.5,8.2-7.5l3.8-3.8l0.8-0.7l0.8-0.7l1.5-1.5l1.5-2.2
		c4.5-5.3,9-9.8,13.5-15c4.5-6,9.8-12,15-18.8c4.5-6,9-12.8,13.5-18.8c0.8,3,1.5,6,2.2,9c3.8,13.5,8.3,27,14.2,39
		c3,6.8,6,13.5,9,19.5c3.8,6.8,7.5,12.8,11.2,19.5c9,12.8,18.8,24.7,33,35.3c13.5,10.5,30.8,19.5,51,21l3,0.7c1.5,0-0.8,0,3.8,0h1.5
		h4.5h4.5c1.5,0,4.5,0,6.7-0.7c4.5-0.7,9-0.7,13.5-2.2l11.2-3c30.8-8.2,57-23.2,78.8-41.2l8.2-6.8c2.2,3,3.8,6,6.8,9
		c14.2,17.2,33.8,33,57.8,42c6,2.2,12,3,18.8,4.5c3,0.7,6,0.7,9,1.5h4.5h2.2h3h0.8c3.8,0,9-0.7,12.8-0.7l6-0.7l8.2-1.5
		c5.3-0.7,10.5-2.2,15.8-3s9-3,14.2-3.8c4.5-1.5,9-3,13.5-4.5c3.8-2.2,8.2-3.8,12.8-5.3c33-15,57.8-34.5,79.5-53.2
		c11.2-9,21-19.5,30-27.8c9-9,17.2-18.8,24.8-27c30.8-35.3,51-64.5,66.8-83.2c7.5-9.8,11.2-18.8,12.8-24.8
		C2916.1,602.1,2916.1,598.3,2916.1,598.3z M220.6,677.8c0,101.2-45.8,101.2-60.8,101.2c-53.2,0-93-81-93-187.5
		c0-105.7,51.8-169.5,153.8-189v263.2c0,3,0,6,0,9C220.6,676.3,220.6,677.1,220.6,677.8z M576.8,777.6c-25.5,0-84,0-91.5-169.5
		c0-0.7,0-1.5,0-2.2c6.8-117,45-207.8,91.5-207.8c29.2,0,51,13.5,62.2,22.5c0,37.5,0.8,75.7,0.8,114c0,31.5,0.8,63,0.8,93.8
		c0,4.5,0,9.7,0,15c-1.5,33-9,95.3-34.5,122.2C597.8,773.1,588.8,777.6,576.8,777.6z M966.8,406.3c33,0,51,33,60.8,72.8h-0.8
		l-4.5,1.5l-4.5,0.7c-3,0.7-6.7,1.5-9.8,1.5l-9.8,0.7h-3l0,0l0,0l-6-0.7h-3c-0.8,0-1.5,0-1.5,0h-0.8c-0.8,0-1.5-0.7-3-0.7
		s-3.8-1.5-6.8-2.2s-5.2-2.2-7.5-3c-5.2-3-9.8-6-15-9.7c-3-2.2-4.5-4.5-7.5-6.8c-2.2-3-4.5-4.5-6.8-7.5c-4.5-5.3-9-10.5-12.8-16.5
		c-1.5-2.2-3-4.5-3.8-6.8C933.1,415.3,948.1,406.3,966.8,406.3z M1016.3,723.6c-21,54-49.5,54-58.5,54s-36.8,0-57.8-54
		c-13.5-34.5-21-83.2-21-137.2c0-26.2,3-57,9.8-84.7c2.2,3,3.8,4.5,6.8,7.5c3.8,3,7.5,7.5,11.2,10.5c8.2,6.8,16.5,13.5,27,18.8
		c4.5,3,9.8,5.3,15,7.5s10.5,3.8,17.2,5.3c3,0.7,6.8,1.5,9.8,2.2l3,0.7h1.5h3l6,0.7h1.5h0.8h3h0.8h3.8l15-0.7
		c5.2-0.7,9.8-1.5,15-2.2l6.8-1.5c0.8,12.8,0.8,24.7,0.8,36C1037.3,639.6,1030.6,688.3,1016.3,723.6z M1281.8,359.1L1281.8,359.1
		L1281.8,359.1z M1654.8,696.6c-0.7,5.3-1,21-6.3,33c-2.3,6-4.5,11.2-8.3,15.7s-6.7,9-11.2,12.8c-1.5,0.7-2.2,2.2-3,3
		c-1.5,0.7-3,1.5-3,2.2c-3,1.5-5.2,3-9,3c-3,1.5-6.8,1.5-9.8,2.2c-2.2,0-3.8,0-6,0h-3h-2.2c-3,0-5.2-0.7-8.2-0.7c-0.8,0-1.5,0-2.3,0
		l-1.5-0.7l-2.3-0.7c-1.5-0.7-3,0-4.5-1.5c-2.2-0.7-3-1.5-5.2-2.2s-3-1.5-5.2-3s-3-1.5-5.2-3c-3-3-6.8-4.5-9.8-8.2
		c-12.7-11.2-23.2-29.3-31.5-49.5s-12.8-43.5-15-66.8c-3-23.2-3-47.2-3-71.2c0.8-9.7,2.2-21,3.8-32.2c2.2-10.5,4.5-21,8.2-29.3
		c6.8-18.8,16.5-33.8,29.2-46.5c12-12.8,26.2-21.8,40.5-29.3c14.2-7.5,29.2-12,42.7-15.7c12-3,22.5-5.2,32.3-6.8
		c0,33,0,95.3-0.8,175.5c0,15,0,30.7,0,47.2c0,8.2,0,16.5,0,24.7c0,3.8,0,9,0,12.8v3v3.8C1655.3,671.1,1655.5,691.2,1654.8,696.6z
		 M1922.3,593.1v-195c123.8,17.2,159,127.5,159,195c0,91.5-40.5,184.5-80.2,184.5C1966.6,777.6,1922.3,758.1,1922.3,593.1z
		 M2332.6,101.1L2332.6,101.1L2332.6,101.1L2332.6,101.1z M2297.3,361.3c0-24,1.5-48,3-72c3-47.2,8.2-94.5,18.8-137.2
		c3-10.5,6-21,9-30c2.2-4.5,3.8-9,6-12.8c0.8-1.5,1.5-3,2.2-3.8c0,0,0,0,0,0.7c2.2,3,3.8,6,5.3,9.7c7.5,15.7,11.2,36,13.5,56.2
		c2.2,20.3,2.2,40.5,0.8,61.5c-3,40.5-10.5,81-20.3,119.3c-5.2,19.5-9.7,39-15,57c-5.2,18.8-9,37.5-15,55.5c-3,9-4.5,16.5-7.5,24.8
		c-0.8-18-0.8-36.8-0.8-54.8c0-12.8,0-24.7,0-37.5C2297.3,385.3,2297.3,373.3,2297.3,361.3z M2598.8,398.1L2598.8,398.1
		L2598.8,398.1z M2527.6,554.1c1.5-20.3,3.8-40.5,8.3-60c3.8-19.5,9-39,16.5-56.2c7.5-16.5,17.2-30.7,27-36c3-1.5,5.2-3,8.2-3
		l2.2-0.7c0.8,0,0.8,0,1.5,0h0.8c0,0,1.5,0,2.2,0h3.8l0,0h0.8c0.8,0,0.8,0,0.8,0h0.8l0,0c0,0,0,0,0.8,0.7c1.5,1.5,3.8,8.2,5.3,16.5
		c1.5,9,1.5,18,0.8,28.5c-1.5,21-5.2,42.8-10.5,64.5c-3,11.2-6,21.8-9,33c-1.5,5.3-3,10.5-5.3,16.5c-2.2,5.2-3.8,10.5-6,15.7
		c-10.5,30-24,58.5-39.8,86.2c-3-15.7-6-33-7.5-49.5c-0.8-9-1.5-18.8-1.5-28.5C2526.8,572.8,2526.8,563.1,2527.6,554.1z"/>
	<g id="sheen">
		<path fill="#FFFFFF" d="M183.8,371.8c-3,0-5.2-2.2-6.8-4.5c-1.5-3,0.8-7.5,4.5-9c0.8,0,12.8-3.8,33-8.2c3.8-0.7,7.5,1.5,8.2,5.2
			c0.8,3-1.5,7.5-5.2,8.2c-21,4.5-32.2,8.2-33,8.2C184.6,371.8,184.6,371.8,183.8,371.8z"/>
		<path fill="#FFFFFF" d="M506.3,395.1c-0.8,0-2.2,0-3-0.7c-3-1.5-4.5-5.2-3-9c0.8-1.5,3-5.3,9-10.5c3-2.2,7.5-2.2,9,1.5
			c2.2,3,2.2,7.5-1.5,9c-3.8,3-5.2,5.2-5.2,5.2C510.8,394.3,508.6,395.1,506.3,395.1z"/>
		<path fill="#FFFFFF" d="M659.3,33.6c-0.8,0-2.2,0-3-0.7c-3-1.5-4.5-5.3-3-9c0.8-1.5,3.8-6,8.2-9c3-3,7.5-2.2,9,0.7
			c3,3,2.3,7.5-0.7,9c-3,3-5.2,5.3-5.2,6C664.6,32.1,661.6,33.6,659.3,33.6z"/>
		<path fill="#FFFFFF" d="M1876.6,68.1c-0.8,0-2.2,0-3-0.7c-3-1.5-4.5-5.3-3-9c0.8-1.5,3.8-6,8.2-9c3-3,7.5-2.2,9,0.7
			c3,3,2.2,7.5-0.8,9c-3,3-5.2,5.2-5.2,6C1881.8,67.3,1879.6,68.1,1876.6,68.1z"/>
		<path fill="#FFFFFF" d="M541.6,365.1c-2.2,0-4.5-1.5-5.2-3c-2.2-3-1.5-7.5,2.2-9c0.8-0.7,18-12,40.5-9c3.8,0.7,6,3.8,6,7.5
			c-0.8,3.8-3.8,6-7.5,6c-17.2-3-31.5,6.8-31.5,6.8C544.6,365.1,543.1,365.1,541.6,365.1z"/>
		<path fill="#FFFFFF" d="M2298.8,95.1c-0.8,0-1.5,0-2.2,0c-3-1.5-5.3-4.5-4.5-9c0-0.7,7.5-24,30-30c3-0.7,7.5,1.5,8.2,4.5
			c0.8,3-1.5,7.5-4.5,8.2c-15,3.8-21,20.3-21,21C2304.1,93.6,2301.8,95.1,2298.8,95.1z"/>
		<path fill="#FFFFFF" d="M2530.6,398.1c-0.8,0-1.5,0-2.2,0c-3-1.5-5.3-4.5-4.5-9c0-0.7,7.5-24,30-30c3-0.7,7.5,1.5,8.2,4.5
			s-1.5,7.5-4.5,8.2c-15,3.8-21,21-21,21C2536.6,396.6,2533.6,398.1,2530.6,398.1z"/>
		<path fill="#FFFFFF" d="M2854.6,603.6c-1.5,0-3-0.7-3.8-1.5c-3-2.2-3.8-6-2.2-9c5.2-9,12.8-18,23.2-21.8c3-1.5,7.5,0,9,3.8
			c1.5,3,0,7.5-3.8,9c-7.5,3-12.8,9.7-17.2,16.5C2859.1,602.8,2856.8,603.6,2854.6,603.6z"/>
		<path fill="#FFFFFF" d="M1164.8,365.1c-0.8,0-1.5,0-2.2,0c-3-1.5-5.2-4.5-4.5-9c1.5-4.5,6-13.5,15.8-15c3-0.7,7.5,1.5,8.2,4.5
			c0.8,3-1.5,7.5-4.5,8.2c-3.8,1.5-6,6-6,6C1170.8,363.6,1168.6,365.1,1164.8,365.1z"/>
		<path fill="#FFFFFF" d="M1326.1,416.1c-3,0-6-3-6-6c-0.8-3.8-5.2-6.8-5.2-6.8c-3-1.5-4.5-5.2-3-9c1.5-3,5.2-4.5,9-3
			c4.5,2.2,12,8.2,13.5,17.2c0.8,3.8-2.2,7.5-6,7.5C1326.8,416.1,1326.8,416.1,1326.1,416.1z"/>
		<path fill="#FFFFFF" d="M904.6,391.3c-1.5,0-3-0.7-3.8-1.5c-3-2.2-3-6.8-1.5-9c0.8-0.7,16.5-21,39-22.5c3.8,0,6.8,3,7.5,6
			c0,3.8-3,6.8-6,7.5c-15.8,1.5-28.5,17.2-28.5,17.2C908.3,390.6,906.1,391.3,904.6,391.3z"/>
		<path fill="#FFFFFF" d="M150.8,377.1L150.8,377.1c-1.5-3,0.8-7.5,3.8-9c1.5-0.7,3-0.7,3-1.5c3-1.5,7.5,1.5,9,4.5s-1.5,7.5-4.5,9
			c-0.8,0-2.2,0.7-3,0.7C156.1,382.3,152.3,380.1,150.8,377.1z"/>
		<path fill="#FFFFFF" d="M1621.6,371.1c-3,0-5.2-2.2-6.8-4.5c-1.5-3,0.8-7.5,4.5-9c0.8,0,12-3.8,33-9c3-0.7,7.5,1.5,8.2,5.3
			c0.8,3-1.5,7.5-5.2,8.2c-21,4.5-32.2,8.2-33,8.2C1623.1,371.1,1622.3,371.1,1621.6,371.1z"/>
		<path fill="#FFFFFF" d="M1588.6,376.3L1588.6,376.3c-1.5-3,0.8-7.5,3.8-9c1.5-0.7,3-0.7,3-1.5c3-1.5,7.5,0.7,9,4.5
			c1.5,3-0.8,7.5-4.5,9c-0.8,0-2.3,0.7-3,1.5C1594.6,381.6,1590.1,380.1,1588.6,376.3z"/>
	</g>
</g>
</svg>
