<svg id="51ef7c6d-4252-4e39-a049-c371d4cb5a9e" data-name="Layer 1" xmlns="http://www.w3.org/2000/svg" viewBox="0 0 591.05 96.34"><title>2_bendyworks</title><path d="M95.8,47.27a47.59,47.59,0,0,0-23.42-40,41.26,41.26,0,0,0-4.75-2.51L66.11,8.16,62.35,16.5a29.1,29.1,0,0,1,3.39,1.79,35,35,0,1,1-52.85,31c-.24-10.37,5.16-22,13.5-29.42.33-.29.64-.64,1-.93a25.16,25.16,0,0,1,12.22-5.84c-1.18,3.15-2.81,7.12-4.2,10.38C29,38.94,24.82,49.61,26.07,56.38A22.23,22.23,0,0,0,46.72,74.92a22.77,22.77,0,0,0,16-4.75,20.12,20.12,0,0,0,6.47-9.05C73,50.35,67.48,42.59,61.6,36.43L56.32,31l-1.68,3.88L50.78,43.7l1.5,1.63C57.72,51,58.16,53.66,57,56.84A7.35,7.35,0,0,1,56.5,58c-1.75,3.14-5.53,4.36-8.8,4.1a9.5,9.5,0,0,1-9-8c-.57-3.7,5.37-18,8.56-25.63,6.19-14.84,8-19.74,5.81-24A7.16,7.16,0,0,0,48.3.68C38.63-1.46,28.3,1.49,19.21,9a51.46,51.46,0,0,0-5.08,4.83C5.12,23.61-.29,37,0,49.55A47.88,47.88,0,0,0,47.9,96.34c.39,0,.77,0,1.17,0a48,48,0,0,0,46.73-49Z" fill="#fff"/><path d="M134.53,92.4h-18.2V3.94h18.06c7.58,0,14.35,4,14.35,15.54V35.55c0,5.71-2,9.83-6.91,11.69,5,2.13,7,6.24,7,11.82v17.8C148.87,88.55,142,92.4,134.53,92.4Zm2.92-72.65c0-3.46-1.33-5.05-3.85-5.05H128v28h5c2.79,0,4.38-1.72,4.38-5.31Zm.13,38.12c0-3.46-1.72-5.45-4.38-5.45H128V81.64h5.71c2.52,0,3.85-1.59,3.85-5Z" fill="#fff"/><path d="M164,92.4V3.94h28.3V14.83H175.57v26.7h11.69V52H175.57V81.38h16.74v11Z" fill="#fff"/><path d="M232.82,92.4,220.33,50l-3.58-13.15V92.4h-10.5V3.94h10.89l11.16,42.5,3.32,13.29V3.94H242V92.4Z" fill="#fff"/><path d="M275.46,92.4H257.92V3.94h17.54c10,0,16.2,6.11,16.2,18.46V74.2C291.66,86.69,285.42,92.4,275.46,92.4ZM280,22c0-4.78-1.46-7-5.18-7h-5.18V81.51h5.18c3.72,0,5.18-2.26,5.18-7Z" fill="#fff"/><path d="M326.73,57.2V92.4H315V57.2L302.42,3.94h11.69l7.44,38,7.44-38h11.29Z" fill="#fff"/><path d="M391.41,92.4H381.19l-5.85-53-6.64,53H358.6L348.51,3.94h11.42l4.92,59.64,6.9-59.64h9l5.84,59.64,5.85-59.64H403.1Z" fill="#fff"/><path d="M431.26,93.73c-10,0-17.13-7.44-17.13-18.06v-55c0-10.49,7.17-18.06,17.13-18.06s17.14,7.57,17.14,18.06v55C448.4,86.29,441.22,93.73,431.26,93.73Zm5.45-74.12c0-3.32-2-5.71-5.45-5.71S426,16.29,426,19.61V76.73c0,3.45,1.86,5.71,5.31,5.71s5.45-2.26,5.45-5.71Z" fill="#fff"/><path d="M491.43,92.8c-4.25,0-6-5.31-6-11.69V60c0-3.05-1.59-5.44-4.64-5.44h-5.18V92.4H463.94V3.94h17.93c7.57,0,14.61,4.12,14.61,15.67v18.6c0,5.31-2.26,9.16-6.77,11.29a11.85,11.85,0,0,1,7,11.29V80.45c0,4,.66,6.77,2,9V92.8Zm-6.5-73c0-3.46-1.2-5.05-3.72-5.05h-5.58V44.45h5c2.79,0,4.26-1.73,4.26-5.45Z" fill="#fff"/><path d="M535,92.4l-7.31-37.06-4,13.55V92.4H512.15V3.94h11.56v42.5l11.42-42.5h11.29l-11,37.72L546.82,92.4Z" fill="#fff"/><path d="M574.05,93.73c-10.5,0-16.87-6.91-16.87-18.06V66.1h10.63v10c0,4.65,2,7.44,5.84,7.44,4.12,0,6.11-2.65,6.11-7,0-8.23-3.19-14.87-9.3-23.91-5.71-8.1-12.75-20-12.75-30.28,0-11.16,5.45-19.66,17-19.66,9.57,0,15.81,6.91,15.81,18.06v10.1H580V20.28c0-4.39-1.86-7-5.32-7S569,15.49,569,19.61c0,9.83,3.32,14.48,10,24.57s12.09,19.93,12.09,30.16C591.05,88.28,582.55,93.73,574.05,93.73Z" fill="#fff"/></svg>