<?xml version="1.0" encoding="utf-8"?>
<!-- Generator: Adobe Illustrator 21.0.2, SVG Export Plug-In . SVG Version: 6.00 Build 0)  -->
<svg version="1.1" id="Layer_1" xmlns="http://www.w3.org/2000/svg" xmlns:xlink="http://www.w3.org/1999/xlink" x="0px" y="0px"
	 viewBox="0 0 2880.3 564.1" style="enable-background:new 0 0 2880.3 564.1;" xml:space="preserve">
<style type="text/css">
	.st0{fill:#73C2FE;}
	.st1{fill:#2695FD;}
	.st2{fill:#36A6FB;}
	.st3{fill:#46AFFF;}
	.st4{fill:#3C383E;}
</style>
<g>
	<path class="st0" d="M43.8,504c0,16,13.1,29.1,29.1,29.1h294.1v-43.7H43.8V504z"/>
	<path class="st1" d="M646.7,533.1c24,0,43.7-19.7,43.7-43.7H367.1v43.7H646.7z"/>
	<path class="st1" d="M372.6,277.5l169.2-170.1c4.9-4.9,1.4-13.3-5.5-13.3H398v50c0,4.8-3.9,8.7-8.7,8.7h-22.1v127.1
		C369.1,279.8,371.1,279,372.6,277.5z"/>
	<path class="st0" d="M336.2,144V94H197.9c-7,0-10.5,8.4-5.5,13.3l169.2,170.1c1.5,1.5,3.5,2.3,5.5,2.3V152.7H345
		C340.1,152.7,336.2,148.8,336.2,144z"/>
	<path class="st2" d="M575.9,53.3c31,0,46.5,37.4,24.7,59.4l-208.8,210c0,0-0.1,0.1-0.1,0.1v134.5h311.4c8.8,0,15.9-7.1,15.9-15.9
		V65.1c0-8.8-7.1-15.9-15.9-15.9h-62.5l-3.9-5c-11.1-16.3-29.8-27-50.9-27H367.1v36.1H575.9z"/>
	<path class="st3" d="M94.6,49.3H31.1c-8.8,0-15.9,7.1-15.9,15.9v376.2c0,8.8,7.1,15.9,15.9,15.9h311.4V322.8c0,0-0.1-0.1-0.1-0.1
		l-208.8-210c-21.8-22-6.3-59.4,24.7-59.4h208.8V17.2H148.5C125.3,17.2,105.1,30.2,94.6,49.3z"/>
</g>
<g>
	<path class="st4" d="M1193.5,146.7c-0.5,17.2-8.6,31.6-27.8,31.6c-9.1-0.5-16.3-3.4-23.9-6.7c-12.9-5.3-29.7-10.1-48.8-10.1
		c-46,0-88.6,43.1-89.5,109.6c-0.5,60.8,45.5,100.5,91.4,101c21.1,0,38.8-6.2,52.7-12.9c8.6-4.3,13.9-8.6,24.4-8.1
		c17.7,0,26.8,18.7,26.3,34.9c-0.5,24.9-55.5,48.8-109.2,47.9c-77.1-1-153.7-59.4-152.2-161.3c1.4-106.3,82.8-171.9,160.4-170.4
		c25.4,0,54.6,5.7,69.9,12.9C1181.6,121.3,1194,129.5,1193.5,146.7z"/>
	<path class="st4" d="M1457.3,349.7c0,18.2,1,36.9,1.9,55.1c0,22-15.8,27.3-33.5,27.3c-16.3,0-23.9-9.6-28.7-33
		c-12.9,21.5-35.4,34.5-64.2,34.5c-64.6,0-105.8-47.4-105.8-107.7c0-71.3,48.8-118.3,112-118.3c24.4,0,46.4,10.5,59.4,29.7
		c1-5.3,2.4-11,4.3-14.8c4.8-9.1,13.4-13.4,24.9-13.4c21.5,0,30.6,11.5,30.6,31.1l-0.5,37.3L1457.3,349.7z M1341.5,377.9
		c29.7,0,53.6-22,53.6-57.5c0-36.9-24.9-57-50.7-57c-29.7,0-50.7,23.5-50.7,60.8C1293.6,355,1314.7,377.9,1341.5,377.9z"/>
	<path class="st4" d="M1549.7,208.5c12.9,0,21.5,6.2,24.4,18.7l2.9,19.2c11-25.4,36.4-39.7,58.9-39.7c19.2,0,29.2,9.1,29.2,30.2
		c0,15.3-8.1,31.6-25.9,31.6h-7.2c-28.7,0-50.7,20.6-50.7,68c0,20.6,1.4,46.9,0.5,69.4c-0.5,19.2-14.8,26.8-33,26.8
		c-19.2,0-32.1-7.2-32.1-32.6c0-36.9,1.4-81.4,1.4-114.9c0-15.3-0.5-31.6-0.5-46.9C1517.7,218,1529.6,208.5,1549.7,208.5z"/>
	<path class="st4" d="M1912.2,216.6v102.9c0,18.7,0.5,42.1,1,85.7c0,18.7-12.9,27.3-31.6,27.3c-15.3,0-24.9-7.2-27.8-18.7l-2.4-16.3
		c-13.9,22-37.3,35.9-65.6,35.9c-68.5,0-105.8-52.2-105.8-107.2c0-66.5,47.4-118.7,113.5-118.7c22.5,0,42.6,9.6,54.1,24.9
		l-0.5-116.3c0-22.5,12-34,32.1-34c20.6,0,34.9,7.7,34.5,30.6L1912.2,216.6z M1795.8,377.5c29.7,0,53.6-21.1,53.6-56
		c0-36.9-23-57.5-50.7-57.5c-30.2,0-53.1,22.5-53.1,59.8C1745.5,353.5,1767.6,377.5,1795.8,377.5z"/>
	<path class="st4" d="M1966.2,116.1c3.8-21.1,24.4-31.1,40.2-31.1c25.9,0,38.8,17.2,38.8,37.8c0,25.9-19.6,36.9-42.6,36.9
		C1978.7,159.6,1962.9,140,1966.2,116.1z M2003.6,207.5c17.2,0,33.5,5.7,34,30.2c0.5,36.4-0.5,71.3,0,107.2l0.5,57.9
		c0,20.1-14.4,29.7-33.5,29.7c-17.7,0-32.6-7.7-32.6-25.9V235.8C1972.5,214.7,1989.2,207.5,2003.6,207.5z"/>
	<path class="st4" d="M2249.2,429.6v-23.5c-11,16.3-33.5,27.8-57.5,27.8c-64.6,0-107.2-51.2-107.2-109.6
		c0-66.5,46.4-117.8,110.1-117.8c23.5,0,45.5,12,57.9,29.7l1-9.1c1.9-11,13.9-18.7,30.2-18.7c18.2,0,31.1,11.5,31.1,28.7
		c-0.5,52.2-1,90.5-1,144.6l0.5,49.3c1.4,62.2-49.8,112-119.2,112c-25.9,0-49.8-3.4-68.5-13.4c-12.9-6.7-20.1-15.3-20.1-29.7
		c0-16.8,12.4-32.6,28.2-32.6c6.7,0,13.9,3.4,22,6.2c10.5,3.8,23,7.2,36.9,7.2C2221.4,480.9,2249.2,460.3,2249.2,429.6z M2200.4,376
		c25.9,0,50.7-17.7,50.7-56c0-38.8-23.9-56.5-48.8-56.5c-29.2-0.5-51.7,22.5-51.7,58.9C2150.6,355,2172.6,376,2200.4,376z"/>
	<path class="st4" d="M2589.1,349.7c0,18.2,1,36.9,1.9,55.1c0,22-15.8,27.3-33.5,27.3c-16.3,0-23.9-9.6-28.7-33
		c-12.9,21.5-35.4,34.5-64.2,34.5c-64.6,0-105.8-47.4-105.8-107.7c0-71.3,48.8-118.3,112-118.3c24.4,0,46.4,10.5,59.4,29.7
		c1-5.3,2.4-11,4.3-14.8c4.8-9.1,13.4-13.4,24.9-13.4c21.5,0,30.6,11.5,30.6,31.1l-0.5,37.3L2589.1,349.7z M2473.3,377.9
		c29.7,0,53.6-22,53.6-57.5c0-36.9-24.9-57-50.7-57c-29.7,0-50.7,23.5-50.7,60.8C2425.4,355,2446.4,377.9,2473.3,377.9z"/>
	<path class="st4" d="M2648.5,242.9c0-22.5,8.6-34.9,33-34.9c18.7,0,27.3,8.1,29.7,23.5l1,12.9c10.1-23.5,39.3-37.8,65.6-37.8
		c54.1,0,84.7,34.5,84.7,95.8c0,21.1-0.5,31.6-0.5,59.8v39.3c0,23-14.8,30.2-34.9,30.2c-17.2,0-31.1-8.1-31.1-27.8
		c0-23.9,1-56.5,1-83.8c0-30.2-5.3-57-35.4-57.5c-41.2-0.5-48.4,29.2-48.4,72.8l0.5,70.4c0,20.6-17.2,26.3-32.1,26.3
		c-19.2,0-33.5-5.3-33.5-27.3c0-35.4,1.9-70.9,1.4-127.4L2648.5,242.9z"/>
</g>
</svg>
