<?xml version="1.0" encoding="utf-8"?>
<!-- Generator: Adobe Illustrator 22.1.0, SVG Export Plug-In . SVG Version: 6.00 Build 0)  -->
<svg version="1.1" id="Layer_1" xmlns="http://www.w3.org/2000/svg" xmlns:xlink="http://www.w3.org/1999/xlink" x="0px" y="0px"
	 viewBox="0 0 2880.3 564.1" style="enable-background:new 0 0 2880.3 564.1;" xml:space="preserve">
<style type="text/css">
	.st0{fill:#FFFFFF;}
</style>
<g>
	<g>
		<path class="st0" d="M367.1,489.4H44.8V504c0,16,13.1,29.1,29.1,29.1h293.2h0.9h278.7c24,0,43.7-19.7,43.7-43.7H368H367.1z"/>
		<path class="st0" d="M198.9,94c-7,0-10.5,8.4-5.5,13.3l169.2,170.1c1.3,1.3,2.9,2,4.6,2.2v0.3c1.9-0.1,3.9-0.9,5.4-2.4
			l169.2-170.1c4.9-4.9,1.4-13.3-5.5-13.3H398v50c0,4.8-3.9,8.7-8.7,8.7h-21.2v-0.1H346c-4.9,0-8.8-3.9-8.8-8.7V94H198.9z"/>
		<path class="st0" d="M703.1,49.2h-62.5l-3.9-5c-11.1-16.3-29.8-27-50.9-27H368.1h-1H149.5c-23.2,0-43.4,13-53.9,32.1H32.1
			c-8.8,0-15.9,7.1-15.9,15.9v376.2c0,8.8,7.1,15.9,15.9,15.9h311.4V322.8l-0.1-0.1l-208.8-210c-21.8-22-6.3-59.4,24.7-59.4h207.8h1
			h207.8c31,0,46.5,37.4,24.7,59.4l-208.8,210l-0.1,0.1v134.5h311.4c8.8,0,15.9-7.1,15.9-15.9V65.1C719,56.3,711.9,49.2,703.1,49.2z
			"/>
	</g>
	<path class="st0" d="M1172,351.1c-10.5-0.5-15.8,3.8-24.4,8.1c-13.9,6.7-31.6,12.9-52.7,12.9c-45.9-0.5-91.9-40.2-91.4-101
		c0.9-66.5,43.5-109.6,89.5-109.6c19.1,0,35.9,4.8,48.8,10.1c7.6,3.3,14.8,6.2,23.9,6.7c19.2,0,27.3-14.4,27.8-31.6
		c0.5-17.2-11.9-25.4-26.3-31.6c-15.3-7.2-44.5-12.9-69.9-12.9c-77.6-1.5-159,64.1-160.4,170.4c-1.5,101.9,75.1,160.3,152.2,161.3
		c53.7,0.9,108.7-23,109.2-47.9C1198.8,369.8,1189.7,351.1,1172,351.1z"/>
	<path class="st0" d="M1457.7,277.5l0.5-37.3c0-19.6-9.1-31.1-30.6-31.1c-11.5,0-20.1,4.3-24.9,13.4c-1.9,3.8-3.3,9.5-4.3,14.8
		c-13-19.2-35-29.7-59.4-29.7c-63.2,0-112,47-112,118.3c0,60.3,41.2,107.7,105.8,107.7c28.8,0,51.3-13,64.2-34.5
		c4.8,23.4,12.4,33,28.7,33c17.7,0,33.5-5.3,33.5-27.3c-0.9-18.2-1.9-36.9-1.9-55.1L1457.7,277.5z M1341.5,377.9
		c-26.8,0-47.9-22.9-47.8-53.7c0-37.3,21-60.8,50.7-60.8c25.8,0,50.7,20.1,50.7,57C1395.1,355.9,1371.2,377.9,1341.5,377.9z"/>
	<path class="st0" d="M1635.9,206.7c-22.5,0-47.9,14.3-58.9,39.7l-2.9-19.2c-2.9-12.5-11.5-18.7-24.4-18.7c-20.1,0-32,9.5-32.1,29.8
		c0,15.3,0.5,31.6,0.5,46.9c0,33.5-1.4,78-1.4,114.9c0,25.4,12.9,32.6,32.1,32.6c18.2,0,32.5-7.6,33-26.8
		c0.9-22.5-0.5-48.8-0.5-69.4c0-47.4,22-68,50.7-68h7.2c17.8,0,25.9-16.3,25.9-31.6C1665.1,215.8,1655.1,206.7,1635.9,206.7z"/>
	<path class="st0" d="M1913.7,112.7c0.4-22.9-13.9-30.6-34.5-30.6c-20.1,0-32.1,11.5-32.1,34l0.5,116.3
		c-11.5-15.3-31.6-24.9-54.1-24.9c-66.1,0-113.5,52.2-113.5,118.7c0,55,37.3,107.2,105.8,107.2c28.3,0,51.7-13.9,65.6-35.9l2.4,16.3
		c2.9,11.5,12.5,18.7,27.8,18.7c18.7,0,31.6-8.6,31.6-27.3c-0.5-43.6-1-67-1-85.7V216.6L1913.7,112.7z M1795.8,377.5
		c-28.2,0-50.3-24-50.2-53.7c0-37.3,22.9-59.8,53.1-59.8c27.7,0,50.7,20.6,50.7,57.5C1849.4,356.4,1825.5,377.5,1795.8,377.5z"/>
	<path class="st0" d="M2006.4,85c-15.8,0-36.4,10-40.2,31.1c-3.3,23.9,12.5,43.5,36.4,43.6c23,0,42.6-11,42.6-36.9
		C2045.2,102.2,2032.3,85,2006.4,85z"/>
	<path class="st0" d="M2037.6,237.7c-0.5-24.5-16.8-30.2-34-30.2c-14.4,0-31.1,7.2-31.6,28.3v170.8c0,18.2,14.9,25.9,32.6,25.9
		c19.1,0,33.5-9.6,33.5-29.7l-0.5-57.9C2037.1,309,2038.1,274.1,2037.6,237.7z"/>
	<path class="st0" d="M2283.7,208.4c-16.3,0-28.3,7.7-30.2,18.7l-1,9.1c-12.4-17.7-34.4-29.7-57.9-29.7
		c-63.7,0-110.1,51.3-110.1,117.8c0,58.4,42.6,109.6,107.2,109.6c24,0,46.5-11.5,57.5-27.8v23.5c0,30.7-27.8,51.3-55.6,51.1
		c-13.9,0-26.4-3.4-36.9-7.2c-8.1-2.8-15.3-6.2-22-6.2c-15.8,0-28.2,15.8-28.2,32.6c0,14.4,7.2,23,20.1,29.7
		c18.7,10,42.6,13.4,68.5,13.4c69.4,0,120.6-49.8,119.2-112l-0.5-49.3c0-54.1,0.5-92.4,1-144.6
		C2314.8,219.9,2301.9,208.4,2283.7,208.4z M2200.4,376c-27.8,0-49.8-21-49.8-53.6c0-36.4,22.5-59.4,51.7-58.9
		c24.9,0,48.8,17.7,48.8,56.5C2251.1,358.3,2226.3,376,2200.4,376z"/>
	<path class="st0" d="M2589.5,277.5l0.5-37.3c0-19.6-9.1-31.1-30.6-31.1c-11.5,0-20.1,4.3-24.9,13.4c-1.9,3.8-3.3,9.5-4.3,14.8
		c-13-19.2-35-29.7-59.4-29.7c-63.2,0-112,47-112,118.3c0,60.3,41.2,107.7,105.8,107.7c28.8,0,51.3-13,64.2-34.5
		c4.8,23.4,12.4,33,28.7,33c17.7,0,33.5-5.3,33.5-27.3c-0.9-18.2-1.9-36.9-1.9-55.1L2589.5,277.5z M2473.3,377.9
		c-26.9,0-47.9-22.9-47.8-53.7c0-37.3,21-60.8,50.7-60.8c25.8,0,50.7,20.1,50.7,57C2526.9,355.9,2503,377.9,2473.3,377.9z"/>
	<path class="st0" d="M2777.8,206.6c-26.3,0-55.5,14.3-65.6,37.8l-1-12.9c-2.4-15.4-11-23.5-29.7-23.5c-24.4,0-33,12.4-33,34.9
		l1,34.5c0.5,56.5-1.4,92-1.4,127.4c0,22,14.3,27.3,33.5,27.3c14.9,0,32.1-5.7,32.1-26.3l-0.5-70.4c0-43.6,7.2-73.3,48.4-72.8
		c30.1,0.5,35.4,27.3,35.4,57.5c0,27.3-1,59.9-1,83.8c0,19.7,13.9,27.8,31.1,27.8c20.1,0,34.9-7.2,34.9-30.2v-39.3
		c0-28.2,0.5-38.7,0.5-59.8C2862.5,241.1,2831.9,206.6,2777.8,206.6z"/>
</g>
</svg>
