<?xml version="1.0" encoding="utf-8"?>
<!-- Generator: Adobe Illustrator 22.1.0, SVG Export Plug-In . SVG Version: 6.00 Build 0)  -->
<svg version="1.1" id="Layer_1" xmlns="http://www.w3.org/2000/svg" xmlns:xlink="http://www.w3.org/1999/xlink" x="0px" y="0px"
	 viewBox="0 0 604.3 234.1" enable-background="new 0 0 604.3 234.1" xml:space="preserve">
<g>
	<polygon fill="#FFFFFF" points="411.3,24.1 411.3,181.8 458.7,181.8 458.7,157.7 443,157.7 443,0.1 411.3,0.1 	"/>
	<path fill="#FFFFFF" d="M0,157.7h16.1V81.6H0V60.7L16.1,58V36.8C16.1,11.1,21.7,0,54.4,0c7.1,0,15.4,1,22.8,2.4l-4.3,25.8
		c-5-0.8-7.4-0.9-10.6-0.9c-11.5,0-14.5,1.2-14.5,12.4v18.4h23.9v23.5H47.9v76.1h15.9v24.1H0V157.7z"/>
	<path fill="#FFFFFF" d="M395.2,150.1c-4.9,1-9.3,0.9-12.4,1c-13,0.3-11.9-4-11.9-16.3V81.6h24.8V58h-24.9V0h-31.7v141.3
		c0,27.7,6.9,40.4,36.7,40.4c7.1,0,16.8-1.8,24.1-3.4L395.2,150.1z"/>
	<path fill="#FFFFFF" d="M592.2,157.8c6.7,0,12.1,5.3,12.1,12s-5.4,11.9-12.1,11.9c-6.7,0-12-5.3-12-11.9S585.5,157.8,592.2,157.8
		 M592.2,179.9c5.5,0,10-4.5,10-10.1c0-5.5-4.5-10-10-10s-10,4.4-10,10C582.2,175.3,586.7,179.9,592.2,179.9 M594.4,175.7l-2.4-3.6
		h-1.7v3.6h-2.7v-11.8h4.9c2.9,0,4.7,1.5,4.7,4.1c0,1.9-1,3.2-2.5,3.7l2.9,4L594.4,175.7L594.4,175.7z M590.3,169.8h2.1
		c1.2,0,2.1-0.5,2.1-1.8c0-1.2-0.8-1.7-2-1.7h-2.2L590.3,169.8L590.3,169.8z"/>
	<path fill="#FFFFFF" d="M299.5,81.6v-4.2c-9.6-1.8-19.1-1.8-24.3-1.8c-14.8,0-16.6,7.8-16.6,12.1c0,6,2.1,9.2,18.1,12.7
		c23.4,5.2,46.8,10.7,46.8,39.7c0,27.5-14.2,41.7-43.9,41.7c-19.9,0-39.2-4.3-54-8v-23.7h24v4.2c10.3,2,21.2,1.8,26.8,1.8
		c15.7,0,18.3-8.5,18.3-13c0-6.3-4.5-9.2-19.3-12.2c-27.8-4.8-49.9-14.2-49.9-42.5c0-26.7,17.9-37.2,47.7-37.2
		c20.2,0,35.5,3.1,50.3,6.9v23.5H299.5L299.5,81.6z"/>
	<path fill="#FFFFFF" d="M153.6,102.4l-2.4-2.4L139,110.7c-0.6-0.2-1.3-0.3-2-0.3c-3.3,0-6,2.8-6,6.1c0,3.4,2.7,6.1,6,6.1
		s6-2.8,6-6.1c0-0.6-0.1-1.3-0.3-1.8L153.6,102.4z"/>
	<path fill="#FFFFFF" d="M202.1,150.1V51.4h-31.7v9.2c-6.5-3.9-13.8-6.7-21.6-8.2h0.2V41.5h3.9v-8.1H121v8.1h3.9v10.9h0.2
		C94.8,58,71.8,84.5,71.8,116.5c0,36,29.2,65.2,65.2,65.2c12.3,0,23.8-3.4,33.6-9.3l5.7,9.3h33.5V150L202.1,150.1L202.1,150.1z
		 M138.8,150v-3.7H135v3.7c-17-1-30.6-14.7-31.5-31.7h3.8v-3.8h-3.7c1-16.9,14.6-30.5,31.5-31.5v3.7h3.8V83
		c16.7,0.9,30.1,14,31.6,30.5v1.1h-3.8v3.8h3.8v1C169,136,155.5,149.1,138.8,150z"/>
	<path fill="#FFFFFF" d="M539,58.1h65.4v23.5h-15.7l-40.1,98.7c-11.5,27.7-30.4,53.8-59.1,53.8c-7.1,0-16.5-0.8-23-2.4l2.9-28.8
		c4.2,0.8,9.7,1.3,12.5,1.3c13.3,0,28.4-8.3,33.1-22.7l-40.7-100h-15.7V57.9h65.5v23.7h-15.6l23,56.7l0,0l23-56.7h-15.6L539,58.1
		L539,58.1z"/>
</g>
</svg>
