<?xml version="1.0" encoding="utf-8"?>
<!-- Generator: Adobe Illustrator 22.1.0, SVG Export Plug-In . SVG Version: 6.00 Build 0)  -->
<svg version="1.1" id="Layer_1" xmlns="http://www.w3.org/2000/svg" xmlns:xlink="http://www.w3.org/1999/xlink" x="0px" y="0px"
	 viewBox="0 0 100.2 23.8" style="enable-background:new 0 0 100.2 23.8;" xml:space="preserve">
<style type="text/css">
	.st0{fill:#FFFFFF;}
</style>
<g>
	<g>
		<g>
			<g>
				<path class="st0" d="M24.3,1.1l-2.9,2.8c0.4,0.5,0.7,1.1,0.7,1.8V18c0,0.7-0.3,1.3-0.7,1.8l2.9,2.8c0.4-0.5,0.6-1.1,0.6-1.7V2.8
					C24.9,2.2,24.7,1.6,24.3,1.1z"/>
				<path class="st0" d="M4.1,3.4c0.5-0.3,1-0.5,1.6-0.5h13.4c0.6,0,1.2,0.2,1.6,0.5l2.9-2.8C23.1,0.2,22.5,0,21.9,0H2.7
					C2.1,0,1.5,0.2,1,0.6L4.1,3.4z"/>
				<path class="st0" d="M20.8,20.4c-0.5,0.3-1,0.5-1.6,0.5H5.8l0,0c-0.6,0-1.2-0.2-1.7-0.5l-2.9,2.8c0.4,0.4,1,0.6,1.7,0.6h19.2
					c0.6,0,1.2-0.2,1.7-0.6L20.8,20.4z"/>
				<path class="st0" d="M3.6,19.9C3.2,19.4,3,18.8,3,18.1V5.7C3,5,3.3,4.4,3.7,3.9L0.6,1.1C0.3,1.6,0,2.2,0,2.8v18.1
					c0,0.6,0.2,1.2,0.6,1.7L3.6,19.9z"/>
			</g>
			<g>
				<path class="st0" d="M15,8.7c-1,0-1.6,0.6-1.6,1.5c0,1.1,0,2.3,0,3.4c0,0.8,0.6,1.5,1.6,1.5s1.6-0.6,1.6-1.5c0-1.1,0-2.3,0-3.4
					C16.6,9.4,16,8.7,15,8.7z"/>
				<path class="st0" d="M19.2,3.6H5.8c-1.2,0-2.1,0.9-2.1,2.1V18c0,1.2,0.9,2.1,2.1,2.1h13.4c1.2,0,2.1-0.9,2.1-2.1V5.7
					C21.3,4.6,20.3,3.6,19.2,3.6z M9.8,16.4H8.3V9H6.9V7.4h2.9V16.4z M18.1,13.6c-0.1,1.6-1.3,2.9-3.1,2.9s-3.1-1.3-3.1-2.9
					c0-1.1,0-2.3,0-3.4C12,8.6,13.2,7.3,15,7.3s3,1.2,3.1,2.9C18.1,11.3,18.1,12.5,18.1,13.6z"/>
			</g>
		</g>
	</g>
</g>
<g>
	<g>
		<path class="st0" d="M32.6,18.5c-0.2,0.3-0.3,0.5-0.6,0.7c-0.2,0.1-0.5,0.2-0.8,0.2c-0.2,0-0.4,0-0.6-0.1s-0.3-0.2-0.5-0.3
			c-0.1-0.1-0.2-0.3-0.3-0.5c-0.1-0.2-0.1-0.4-0.1-0.6s0-0.4,0.1-0.6s0.2-0.4,0.3-0.5c0.1-0.1,0.3-0.2,0.5-0.3
			c0.2-0.1,0.4-0.1,0.6-0.1c0.3,0,0.5,0.1,0.7,0.2c0.2,0.1,0.4,0.3,0.5,0.5v0.1l0.5-0.4v-0.1c-0.2-0.3-0.5-0.5-0.8-0.7
			c-0.3-0.2-0.7-0.3-1-0.3s-0.6,0.1-0.8,0.2c-0.3,0.1-0.5,0.3-0.7,0.5s-0.3,0.4-0.4,0.7C29.1,17.4,29,17.7,29,18s0.1,0.6,0.2,0.9
			s0.3,0.5,0.4,0.7c0.2,0.2,0.4,0.3,0.7,0.4c0.3,0.1,0.5,0.2,0.8,0.2c0.4,0,0.8-0.1,1.1-0.3c0.3-0.2,0.6-0.5,0.8-0.8V19L32.6,18.5
			L32.6,18.5z"/>
		<path class="st0" d="M38.2,16.3c-0.2-0.2-0.4-0.3-0.7-0.5c-0.5-0.2-1.2-0.2-1.7,0c-0.3,0.1-0.5,0.3-0.7,0.5s-0.3,0.4-0.4,0.7
			c-0.1,0.3-0.2,0.6-0.2,0.9s0.1,0.6,0.2,0.9c0.1,0.3,0.3,0.5,0.4,0.7c0.2,0.2,0.4,0.3,0.7,0.4s0.5,0.2,0.8,0.2s0.6-0.1,0.8-0.2
			c0.3-0.1,0.5-0.3,0.7-0.4c0.2-0.2,0.3-0.4,0.4-0.7c0.1-0.3,0.2-0.5,0.2-0.9c0-0.3-0.1-0.6-0.2-0.9C38.6,16.7,38.4,16.5,38.2,16.3z
			 M38.2,17.9c0,0.2,0,0.4-0.1,0.6s-0.2,0.3-0.3,0.5c-0.1,0.1-0.3,0.2-0.5,0.3c-0.4,0.2-0.8,0.2-1.2,0c-0.2-0.1-0.3-0.2-0.5-0.3
			c-0.1-0.1-0.2-0.3-0.3-0.5s-0.1-0.4-0.1-0.6s0-0.4,0.1-0.6s0.2-0.4,0.3-0.5s0.3-0.2,0.5-0.3c0.2-0.1,0.4-0.1,0.6-0.1
			c0.2,0,0.4,0,0.6,0.1c0.2,0.1,0.3,0.2,0.5,0.3c0.1,0.1,0.2,0.3,0.3,0.5C38.1,17.4,38.2,17.6,38.2,17.9z"/>
		<polygon class="st0" points="43.4,18.6 41,15.8 40.9,15.8 40.6,15.8 40.6,19.9 41.2,19.9 41.2,17.1 43.7,19.9 43.7,19.9 
			44.1,19.9 44.1,15.8 43.4,15.8 		"/>
		<path class="st0" d="M48.3,17.4c-0.2,0-0.4,0-0.5,0c-0.2,0-0.3,0-0.4,0c-0.1,0-0.3,0-0.4-0.1c-0.1,0-0.2-0.1-0.3-0.1
			c-0.1-0.1-0.2-0.2-0.2-0.3c0-0.1,0.1-0.3,0.2-0.4c0.2-0.1,0.4-0.2,0.7-0.2c0.6,0,1.1,0.2,1.6,0.6l0.1,0.1l0.4-0.5h-0.1
			c-0.3-0.2-0.6-0.4-0.9-0.5c-0.3-0.1-0.7-0.2-1-0.2c-0.2,0-0.5,0-0.7,0.1c-0.2,0.1-0.4,0.1-0.5,0.2S46,16.3,46,16.5
			c-0.1,0.1-0.1,0.3-0.1,0.5c0,0.4,0.2,0.7,0.6,0.9c0.1,0.1,0.2,0.1,0.3,0.1s0.3,0,0.4,0.1c0.1,0,0.3,0,0.4,0c0.1,0,0.3,0,0.5,0
			c0.3,0,0.5,0.1,0.7,0.2c0.1,0.1,0.2,0.3,0.2,0.4s0,0.2-0.1,0.3c-0.1,0.1-0.1,0.2-0.2,0.2c-0.1,0.1-0.2,0.1-0.4,0.2
			c-0.1,0-0.3,0.1-0.5,0.1c-0.3,0-0.6-0.1-0.9-0.2c-0.3-0.1-0.6-0.3-0.9-0.5l0.1-0.1l-0.4,0.6h0.1c0.3,0.2,0.6,0.4,1,0.5
			c0.3,0.1,0.7,0.2,1.1,0.2c0.3,0,0.5,0,0.8-0.1c0.2-0.1,0.4-0.2,0.6-0.3c0.2-0.1,0.3-0.3,0.4-0.4c0.1-0.2,0.1-0.3,0.1-0.5
			c0-0.3-0.1-0.6-0.4-0.8C49.1,17.6,48.8,17.5,48.3,17.4z"/>
		<path class="st0" d="M54.2,18.4c0,0.2,0,0.4,0,0.5s-0.1,0.2-0.2,0.3c-0.1,0.1-0.2,0.1-0.3,0.1s-0.3,0-0.5,0s-0.4,0-0.5,0
			s-0.2-0.1-0.3-0.1c-0.1-0.1-0.1-0.2-0.2-0.3c0-0.1,0-0.3,0-0.5v-2.6h-0.6v2.8c0,0.5,0.1,0.9,0.4,1.1c0.3,0.2,0.7,0.3,1.3,0.3
			s1-0.1,1.3-0.3c0.3-0.2,0.4-0.6,0.4-1.1v-2.8h-0.6v2.6C54.4,18.4,54.2,18.4,54.2,18.4z"/>
		<polygon class="st0" points="57.5,15.8 56.8,15.8 56.8,19.9 60,19.9 60,19.3 57.5,19.3 		"/>
		<polygon class="st0" points="60.5,16.4 62.1,16.4 62.1,19.9 62.8,19.9 62.8,16.4 64.5,16.4 64.5,15.8 60.5,15.8 		"/>
		<rect x="65.8" y="15.8" class="st0" width="0.6" height="4.1"/>
		<polygon class="st0" points="71.3,18.6 68.9,15.8 68.9,15.8 68.5,15.8 68.5,19.9 69.1,19.9 69.1,17.1 71.6,19.9 71.6,19.9 
			72,19.9 72,15.8 71.3,15.8 		"/>
		<path class="st0" d="M76,17.6v0.6h1.1v0.5c-0.3,0.4-0.7,0.7-1.2,0.7c-0.2,0-0.4,0-0.6-0.1S75,19.1,74.8,19
			c-0.1-0.1-0.2-0.3-0.3-0.5c-0.1-0.2-0.1-0.4-0.1-0.6s0-0.4,0.1-0.6s0.2-0.4,0.3-0.5c0.1-0.1,0.3-0.2,0.5-0.3
			c0.2-0.1,0.4-0.1,0.6-0.1c0.3,0,0.5,0.1,0.7,0.2s0.4,0.3,0.5,0.5v0.1l0.5-0.4v-0.1c-0.2-0.3-0.4-0.5-0.8-0.7
			c-0.3-0.2-0.7-0.3-1-0.3s-0.6,0.1-0.8,0.2c-0.3,0.1-0.5,0.3-0.7,0.5s-0.3,0.4-0.4,0.7c-0.1,0.3-0.2,0.5-0.2,0.9
			c0,0.3,0.1,0.6,0.2,0.9s0.3,0.5,0.4,0.7c0.2,0.2,0.4,0.3,0.7,0.4c0.3,0.1,0.5,0.2,0.8,0.2c0.4,0,0.8-0.1,1.1-0.3
			c0.3-0.2,0.6-0.4,0.8-0.8l0,0v-1.3H76V17.6z"/>
	</g>
	<g>
		<path class="st0" d="M28.5,4.7h5.3v1.2h-2v6.4h-1.3V5.9h-2V4.7z"/>
		<path class="st0" d="M39.9,4.7v1.2h-3.8v1.9h3.4V9h-3.4v2.1H40v1.2h-5.1V4.7H39.9z"/>
		<path class="st0" d="M47.1,4.7v7.6h-1.4L43,7.5l-0.4-1l0.1,1v4.8h-1.3V4.7h1.4l2.7,4.8l0.4,1l-0.1-1V4.7H47.1z"/>
		<path class="st0" d="M56.2,4.7v1.2h-3.7v2h3.4v1.2h-3.4v3.2h-1.3V4.7H56.2z"/>
		<path class="st0" d="M63.1,9.8c0,1.4-1.2,2.5-2.9,2.5s-2.9-1.1-2.9-2.5c0-0.9,0-1.8,0-2.7c0-1.4,1.2-2.5,2.9-2.5s2.9,1.1,2.9,2.5
			C63.1,8,63.1,8.9,63.1,9.8z M61.9,7.1c0-0.7-0.7-1.4-1.6-1.4c-1,0-1.6,0.7-1.6,1.4c0,0.9,0,1.8,0,2.7c0,0.7,0.7,1.4,1.6,1.4
			c1,0,1.6-0.7,1.6-1.4C61.9,8.9,61.9,8,61.9,7.1z"/>
		<path class="st0" d="M67.4,9.7H66v2.6h-1.3V4.7h3.1c1.3,0,2,0.8,2,1.8c0,0.5,0,0.9,0,1.4c-0.1,1.3-1.1,1.6-1.1,1.6l1.6,2.8h-1.5
			L67.4,9.7z M68.6,6.5c0-0.3-0.2-0.6-0.7-0.6h-1.8v2.6h1.8c0.5,0,0.7-0.3,0.7-0.6C68.6,7.4,68.6,7,68.6,6.5z"/>
		<path class="st0" d="M76.4,4.7l1.4,6.1l1-6.1h1.3l-1.4,7.6h-1.6l-1.4-5.9l-1.4,5.9h-1.7l-1.5-7.6h1.3l1,6.1l1.4-6.1
			C74.8,4.7,76.4,4.7,76.4,4.7z"/>
		<path class="st0" d="M84.4,4.7l2.4,7.6h-1.3l-0.6-2h-2.5l-0.6,2h-1.3l2.4-7.6C82.9,4.7,84.4,4.7,84.4,4.7z M83.6,6.1l-0.9,3h1.8
			L83.6,6.1z"/>
		<path class="st0" d="M90.6,9.7h-1.4v2.6h-1.3V4.7H91c1.3,0,2,0.8,2,1.8c0,0.5,0,0.9,0,1.4c-0.1,1.3-1.1,1.6-1.1,1.6l1.6,2.8H92
			L90.6,9.7z M91.7,6.5c0-0.3-0.2-0.6-0.7-0.6h-1.8v2.6H91c0.5,0,0.7-0.3,0.7-0.6C91.8,7.4,91.8,7,91.7,6.5z"/>
		<path class="st0" d="M94.7,4.7h2.7c1.7,0,2.8,1,2.8,2.4c0,0.9,0,1.8,0,2.7c0,1.4-1.1,2.4-2.8,2.4h-2.7V4.7z M96,5.9v5.2h1.4
			c1,0,1.5-0.6,1.5-1.2c0-0.9,0-1.8,0-2.7c0-0.7-0.6-1.2-1.5-1.2L96,5.9L96,5.9z"/>
	</g>
</g>
</svg>
