<svg id="dca69ba9-346b-4a7b-bab9-6d3384c15b28" data-name="Layer 1" xmlns="http://www.w3.org/2000/svg" viewBox="0 0 3477.91 432"><title>devmynd</title><path d="M601,394H480.91L149.42,125.77V71.38L375.2,243.71,601,71.38Zm-451.57,0V163.75L434,394ZM36.61,394V72.47l83.29,67.4V394ZM375.2,206.57,119.9,11.71v90.18L7.1,10.61V423.48H630.51V11.71Z" fill="#fff"/><polygon points="1334.53 141.13 1445.07 141.13 1445.07 167.05 1364.23 167.05 1364.23 209.47 1440.82 209.47 1440.82 234.45 1364.23 234.45 1364.23 281.57 1449.3 281.57 1449.3 307.98 1334.53 307.98 1334.53 141.13" fill="#fff"/><polygon points="1683.76 141.13 1716.99 141.13 1762.94 269.56 1763.88 269.56 1810.31 141.13 1842.36 141.13 1775.42 307.98 1749.73 307.98 1683.76 141.13" fill="#fff"/><polygon points="2084.59 141.13 2131.02 141.13 2174.39 259.67 2175.09 259.67 2217.98 141.13 2264.64 141.13 2264.64 307.98 2235.19 307.98 2235.19 173.89 2234.73 173.89 2184.06 307.98 2163.32 307.98 2113.35 173.89 2112.88 173.89 2112.88 307.98 2084.59 307.98 2084.59 141.13" fill="#fff"/><polygon points="2567.9 235.63 2505.21 141.13 2541.52 141.13 2583.45 211.36 2625.88 141.13 2660.29 141.13 2597.59 235.63 2597.59 307.98 2567.9 307.98 2567.9 235.63" fill="#fff"/><polygon points="2900.39 141.13 2939.75 141.13 3017.29 266.03 3017.75 266.03 3017.75 141.13 3047.45 141.13 3047.45 307.98 3009.75 307.98 2930.55 179.07 2930.09 179.07 2930.09 307.98 2900.39 307.98 2900.39 141.13" fill="#fff"/><path d="M982.73,282.06c30.64,0,65-12.5,65-57.5,0-47.84-34.41-58-65-58H958V282.06ZM928.28,141.13h59.17c43.59,0,92.15,20.74,92.15,83.43C1079.6,283,1031,308,987.45,308H928.28Z" fill="#fff"/><path d="M3358.87,282.06c30.63,0,65.05-12.5,65.05-57.5,0-47.84-34.42-58-65.05-58h-24.75V282.06Zm-54.45-140.93h59.16c43.59,0,92.14,20.74,92.14,83.43,0,58.46-48.55,83.42-92.14,83.42h-59.16Z" fill="#fff"/></svg>