<svg id="61b8da2e-3975-4860-b729-4fa81a696c75" data-name="Layer 1" xmlns="http://www.w3.org/2000/svg" viewBox="0 0 1000 400"><title>g2crowd</title><path d="M230.45,114.11c4.11-4.82,6.8-9.92,6.8-15.16,0-8.92-7.36-14.59-16.43-14.59-8.36,0-15.44,5.38-16.72,14.59l-12.32-3c2.41-15,14.59-24.37,29-24.37,16.15,0,29,11,29,27.34,0,8.93-4.11,17.14-10.06,23.94-11.9,13.89-12.18,14.45-25.07,29.61H250v12.75H192.91v-5.67Z" fill="#fff"/><path d="M193,227.46l.07-46.4H293.92a127.52,127.52,0,1,1-126-107.69l0,45a82.54,82.54,0,1,0,78.16,109.12" fill="#fff"/><path d="M478,217.85c-.21,17.94-1.24,25.16-5,32.17-5.16,10.11-19,15.68-38.78,15.68-23.1,0-37.12-8.46-41.66-25-1.86-6.81-2.89-22.89-2.89-45.38,0-33.62,2.07-47.23,7.63-55.48,7-10.31,20.42-15.88,38-15.88,15.46,0,28.46,4.54,35.26,12.58,5.16,5.78,7.43,13.82,7.43,26.4v7.63H449.52c-.42-14.43-.83-16.91-2.89-20-2.27-3.51-6.6-5.57-11.76-5.57-5.57,0-10.31,2.47-12.17,6.19C419.82,157,419,167.52,419,195.36c0,22.9,1,36.3,2.89,41.87,1.65,4.75,6.39,7.43,12.58,7.43,11.14,0,14.23-5.57,15.06-26.81Z" fill="#fff"/><path d="M494.48,126.06h44.13c21.25,0,25,.83,32.39,6.81,6.6,5.36,9.9,14.44,9.9,27.64,0,11.13-2.27,19.59-6.6,25.37-3.72,5-8.25,7.22-17.95,9.28,18.36,2.27,24.75,10.93,25,34,0,3.71.41,11.34.82,20.83.42,6.6.62,7.84,2.27,13.61H554.08c-1.23-8.87-1.23-9.07-1.23-26,0-16.5-1.24-24.75-4.54-28.47-2.27-2.47-4.75-3.09-12-3.09H522.53v57.54h-28Zm39.6,59.61c12.78,0,17.53-5.36,17.53-19.8,0-7.63-2.06-13.82-5.36-16.71-2.48-2.06-4.34-2.47-11.35-2.47H522.53v39Z" fill="#fff"/><path d="M598.64,194.74c0-32,1.44-43.1,7-52.8,6.6-11.75,20.21-17.94,39.6-17.94,21.45,0,36.09,8,41.66,23.1C689.8,154.53,691,169,691,195.36c0,28.88-1.45,42.49-5.36,50.33-6.61,13-20.63,20-40.22,20s-33-6-39.81-17.95C600.08,238.26,598.64,226.92,598.64,194.74Zm46.2,49.92c8.45,0,13.61-4.13,15.26-12.17,1-5.16,1.86-23.1,1.86-42.28,0-20.63-1-32.8-3.1-37.75-1.85-4.53-7.22-7.42-14-7.42-7.84,0-13.2,3.5-14.85,9.49-1.45,5.77-2.27,20-2.27,41.87,0,18.15.62,30.11,1.65,35.88Q631.85,244.66,644.84,244.66Z" fill="#fff"/><path d="M700.31,126.06H729l9.29,50.12c3.3,18.15,4.12,34.65,5.56,66.42,5.78-42.08,7.64-53.84,10.32-66.42l10.93-50.12h32.17l10.32,50.12c4.74,22.9,5.77,38.37,7.22,66.42A638.09,638.09,0,0,1,823,176.18l8.86-50.12h25.17L829.43,263.63H798.29l-13-63.93c-2.27-11.14-4.95-37.13-5.57-51.16-4.12,30.94-4.33,35.27-7.63,51.16l-13.4,63.93H726.92Z" fill="#fff"/><path d="M869.23,126.06H907.6c22.27,0,29.08,1.24,36.09,6.19,8.66,6.39,13,17.53,14.85,39.19.62,8.45,1,19.39,1,29.08,0,24.75-1.65,36.92-5.77,45-5.78,11.55-19,18.15-36.1,18.15H869.23Zm41,115.92c9.9,0,15.26-2.27,17.32-7.43,2.06-5.36,2.68-13.4,2.68-35.89,0-24.54-.82-35.27-3.09-42.07-2.06-5.78-7.63-8.87-16.09-8.87H898.31V242Z" fill="#fff"/><rect x="338.91" y="71.99" width="9.11" height="253.77" fill="#fff"/></svg>