<svg id="5a00c68b-0c8a-45e5-ab62-610013d0eb60" data-name="Layer 1" xmlns="http://www.w3.org/2000/svg" viewBox="0 0 540 151.2"><title>heroku</title><path d="M138,75.79q0,30.64,0,61.29a13.25,13.25,0,0,1-3.9,9.44c-2.13,2.25-4.82,3.27-7.69,4a5.73,5.73,0,0,1-1.31,0q-54.56,0-109.09,0a12.65,12.65,0,0,1-8.33-3.36,14.63,14.63,0,0,1-4.51-8,7.69,7.69,0,0,1-.07-1.86V64.91q0-25.39,0-50.79A13.33,13.33,0,0,1,7,4.68a15.3,15.3,0,0,1,7.7-4A5.71,5.71,0,0,1,16,.65q54.54,0,109.09,0A12.65,12.65,0,0,1,133.42,4a14.63,14.63,0,0,1,4.51,8,8.24,8.24,0,0,1,.07,1.86Zm-7.44-.1h0q0-30.64,0-61.29A6.16,6.16,0,0,0,126,8.29a12.15,12.15,0,0,0-2.77-.19H62.48c-15.24,0-30.49,0-45.73,0a6.15,6.15,0,0,0-6.07,4.68,11.66,11.66,0,0,0-.14,2.78q0,60,0,120c0,.56,0,1.12,0,1.68a5.92,5.92,0,0,0,4.23,5.61,8.85,8.85,0,0,0,3.29.32h93.53c4.25,0,8.5-.05,12.75,0a6.12,6.12,0,0,0,6.07-4.68,10.6,10.6,0,0,0,.14-2.59Q130.57,105.77,130.56,75.69Z" fill="#fff"/><path d="M205.15,104.72V82.61a1.31,1.31,0,0,0-.19-.18.28.28,0,0,0-.16-.07H187a1.59,1.59,0,0,0-.13.13.31.31,0,0,0-.1.15,2.22,2.22,0,0,0,0,.37q0,10.77,0,21.55s-.07.09-.14.19H171.86V49.44h14.76a36,36,0,0,1,.11,5.1c0,1.68,0,3.37,0,5.06V69.93h18.34V49.48H220v55.24Z" fill="#fff"/><path d="M341.76,104.75H325.93q-5.26-9.47-10.57-19h-4.08v19c-2.52.18-4.94.06-7.35.08s-4.74,0-7.1,0c-.35-1.89-.48-42.88-.18-55.35.4,0,.82-.08,1.24-.08,7.3,0,14.61-.1,21.92,0a34.21,34.21,0,0,1,10.78,1.82,14.71,14.71,0,0,1,9.83,10.8,23.35,23.35,0,0,1,.34,8.33,14.31,14.31,0,0,1-9.4,12.69L330,83.6Zm-15.5-34.91c0-.92,0-2,0-3.17a4,4,0,0,0-1.34-3.11,6.85,6.85,0,0,0-4.3-1.83c-1.75-.09-3.5,0-5.25,0h-4.05a83.41,83.41,0,0,0,.13,12.42c2.86,0,5.73,0,8.6,0a11.32,11.32,0,0,0,2.84-.59C324.64,73,325.6,71.66,326.26,69.84Z" fill="#fff"/><path d="M356.48,77.08c.18-2.16.21-4.33.57-6.45a33.67,33.67,0,0,1,1.64-5.95,24.77,24.77,0,0,1,17.37-15.3,17.8,17.8,0,0,1,5.62-.78c2.07-.88,4.13.32,6.19,0,6.46,1.12,12.2,3.63,16.57,8.68a25.07,25.07,0,0,1,5,9.31,35.93,35.93,0,0,1,1.22,6.46,31.83,31.83,0,0,1,.28,5.16c-.27,5.22-1.23,10.29-3.87,14.9a23.9,23.9,0,0,1-9.22,9.09,33.51,33.51,0,0,1-9.79,3.31,13.57,13.57,0,0,1-1.69.06c-.6.06-1.2.18-1.8.27a3,3,0,0,1-.73,0c-3.87-.44-7.73-.76-11.41-2.3a25.5,25.5,0,0,1-9.71-7.18,24.63,24.63,0,0,1-5-10.07A37.86,37.86,0,0,1,356.48,77.08Zm30.91-15.89c-1.13-.25-1.9-.45-2.68-.57a12,12,0,0,0-3.1.31,9.41,9.41,0,0,0-6.46,3.51,15.46,15.46,0,0,0-3.49,8.88,30.8,30.8,0,0,0,.68,11.06,13.66,13.66,0,0,0,5.91,8.16,17.25,17.25,0,0,0,2.38,1c1.69,0,3.37.56,5.21.11a11.21,11.21,0,0,0,6.82-4.29c2.19-3,2.94-6.42,3.27-10a26.23,26.23,0,0,0-.68-8.81,13.25,13.25,0,0,0-5.88-8.56A14.18,14.18,0,0,0,387.39,61.19Z" fill="#fff"/><path d="M457.8,49.43h17.25L456.62,71.09a16.37,16.37,0,0,0,2.23,4.19c2,3.38,4,6.7,6.09,10,2.29,3.76,4.6,7.51,6.89,11.27,1.3,2.14,2.57,4.31,3.85,6.46l1,1.68H459.83L446.75,82.64l-4.33,4.91v17.19H427.56V49.45h14.86v20C447.83,62.66,452.69,55.92,457.8,49.43Z" fill="#fff"/><path d="M522.33,49.41h14.58V50.5c0,11.37.07,22.73,0,34.1a24.1,24.1,0,0,1-2.55,10.75,16.4,16.4,0,0,1-8.84,8.14,52,52,0,0,1-5.38,1.64,19.59,19.59,0,0,1-4.21.42,36.08,36.08,0,0,1-3.75,0,28.11,28.11,0,0,1-11.78-2.9,16.55,16.55,0,0,1-8-9.25,29.3,29.3,0,0,1-1.59-6.91,59.33,59.33,0,0,1-.26-7c0-9.37,0-18.73,0-28.1V49.45h15v1.66q0,16.3,0,32.6a15.69,15.69,0,0,0,.92,5.21,6.55,6.55,0,0,0,5,4.38,10.16,10.16,0,0,0,6.63-.53c2.3-1,3.38-3.1,3.93-5.48a26.48,26.48,0,0,0,.38-6.09q0-14.9,0-29.79Z" fill="#fff"/><path d="M280,104.79H239.38V49.57c1.71-.31,27.42-.42,39.14-.16.24,2,.06,4.06.1,6.08s0,4,0,6.11a31.94,31.94,0,0,1-4.79.12c-1.62,0-3.25,0-4.87,0H254.31v9h8.77c1.43,0,2.87,0,4.31,0a17.75,17.75,0,0,1,4.19.16,70.34,70.34,0,0,1,.15,11.38h-17.4V92.79H280Z" fill="#fff"/><path d="M36.91,23.17h14.8V65.45a4.19,4.19,0,0,0,1.34,0,53,53,0,0,1,8-2.31c2.31-.51,4.6-1.11,7-1.43,2.13-.28,4.27-.47,6.37-.79a40.69,40.69,0,0,1,7.79-.22,24.68,24.68,0,0,1,12.09,3.78,20.66,20.66,0,0,1,6.61,6.92A25.73,25.73,0,0,1,104,79.91a17.78,17.78,0,0,1,.29,3.48q0,21.36,0,42.73V128H89.38c0-.55-.06-1.14-.06-1.74q0-20.89,0-41.79a12,12,0,0,0-.31-3.3,7.17,7.17,0,0,0-5.69-5.27,23.17,23.17,0,0,0-7-.24c-2.89.29-5.78.75-8.66,1.31a108,108,0,0,0-12.8,3.48,86.46,86.46,0,0,0-9.8,4c-2.64,1.24-5.32,2.39-8.1,3.63Z" fill="#fff"/><path d="M89.35,23.2h14.89A43.09,43.09,0,0,1,93,47.41H78.07A58.45,58.45,0,0,0,89.35,23.2Z" fill="#fff"/><path d="M36.89,128.11v-30c1.85,1.67,3.61,3.31,5.42,4.9,2.78,2.45,5.6,4.85,8.37,7.32.93.82,1.74,1.77,2.72,2.79-.92,1-1.88,1.91-2.88,2.82-.54.49-1.15.92-1.7,1.41-3,2.65-6,5.29-9.06,8C38.81,126.19,37.91,127.12,36.89,128.11Z" fill="#fff"/></svg>