<svg id="485d678b-b5bf-4c19-b8a2-a66d1e57b69f" data-name="Layer 1" xmlns="http://www.w3.org/2000/svg" viewBox="0 0 213 245.5"><title>logo</title><path d="M52.63,166h9.95A9,9,0,0,1,69,168.22,6.76,6.76,0,0,1,70.87,173v.06c0,3.67-2.2,5.87-5.29,6.77l6,8.45H67l-5.49-7.79H56.55v7.79H52.63Zm9.66,11.07c2.81,0,4.6-1.47,4.6-3.73v-.07c0-2.39-1.73-3.7-4.63-3.7H56.55v7.5Z" fill="#fff"/><path d="M78.69,178.84V166h3.92v12.69c0,4.15,2.14,6.35,5.65,6.35s5.61-2.07,5.61-6.19V166H97.8v12.66c0,6.67-3.77,10-9.6,10S78.69,185.32,78.69,178.84Z" fill="#fff"/><path d="M106.54,166h10a8,8,0,0,1,5.83,2,5,5,0,0,1,1.5,3.7v.06a5.33,5.33,0,0,1-3.19,5c2.62.89,4.43,2.39,4.43,5.42v.06c0,4-3.28,6.13-8.26,6.13H106.54ZM120,172.31c0-1.76-1.41-2.84-3.93-2.84H110.4v5.93h5.36c2.52,0,4.21-1,4.21-3Zm-3.35,6.41H110.4v6.12h6.51c2.67,0,4.3-1.05,4.3-3.06v-.07C121.21,179.83,119.71,178.72,116.62,178.72Z" fill="#fff"/><path d="M138.53,179.51,129.67,166h4.65l6.22,9.85,6.32-9.85h4.49l-8.86,13.43v8.9h-4Z" fill="#fff"/><path d="M107.1,100.14a83.86,83.86,0,0,1-26-3.94L107,123l25.83-26.69A83.91,83.91,0,0,1,107.1,100.14Z" fill="#fff"/><path d="M141,84.23l6.88-33.75L113.79,40.39c3,3.38,6,7,8.77,10.84A148.23,148.23,0,0,1,141,84.23Z" fill="#fff"/><path d="M73.23,84a147.85,147.85,0,0,1,18.4-32.81c2.81-3.83,5.74-7.46,8.74-10.81l-34,10.06Z" fill="#fff"/><path d="M75.14,89.75c3.67,1.82,15,6.63,31.94,6.63h0c17.09,0,28.43-4.88,31.94-6.63-1.55-4.7-7-19.27-19.51-36.29a134.23,134.23,0,0,0-12.44-14.73A135.47,135.47,0,0,0,94.66,53.46C82.14,70.52,76.71,85,75.14,89.75Z" fill="#fff"/><path d="M70.56,89.8,63.34,54.39C48.17,79.45,41.06,99.17,38.9,105.79Z" fill="#fff"/><path d="M105.18,35.13V.06A274.59,274.59,0,0,0,79,31q-5.61,7.65-10.32,14.92Z" fill="#fff"/><path d="M143.74,89.82l31.53,15.93C173.1,99.1,166,79.47,150.93,54.53Z" fill="#fff"/><path d="M72.73,92.92,40.22,109.34c6.52,3.37,28.29,13.2,62,14.08Z" fill="#fff"/><path d="M109,35.09l36.54,10.76c-3.13-4.82-6.55-9.8-10.28-14.88A274.88,274.88,0,0,0,109,0Z" fill="#fff"/><path d="M141.41,92.86l-29.6,30.57c33.86-.86,55.7-10.75,62.19-14.11Z" fill="#fff"/><path d="M3.86,134.6h6.53l5.33,8.64,5.33-8.64h6.53v22.32H21.43V144.1l-5.71,8.74h-.13l-5.67-8.71v12.79H3.86Z" fill="#fff"/><path d="M42.61,134.44h6l9.5,22.48H51.45l-1.6-4H41.21l-1.6,4H33.14ZM48,148.09l-2.48-6.32L43,148.09Z" fill="#fff"/><path d="M63.6,134.6h8.65c7.94,0,12.56,4.59,12.56,11v.06c0,6.45-4.69,11.23-12.69,11.23H63.6Zm6.19,5.45v11.38h2.52c3.73,0,6.19-2,6.19-5.64v-.06c0-3.58-2.46-5.68-6.19-5.68Z" fill="#fff"/><path d="M91.55,134.6h6.19v22.32H91.55Z" fill="#fff"/><path d="M103.48,153.6l3.45-4.11a11.57,11.57,0,0,0,7.24,2.68c1.68,0,2.58-.58,2.58-1.53v-.07c0-.95-.74-1.43-3.8-2.17-4.75-1.08-8.42-2.42-8.42-7v-.06c0-4.15,3.29-7.15,8.65-7.15a14,14,0,0,1,9.18,3l-3.09,4.37a10.93,10.93,0,0,0-6.25-2.2c-1.5,0-2.24.6-2.24,1.43v.07c0,1,.77,1.46,3.89,2.17,5.11,1.11,8.3,2.77,8.3,6.95V150c0,4.56-3.61,7.27-9,7.27A15.63,15.63,0,0,1,103.48,153.6Z" fill="#fff"/><path d="M128.59,145.82v-.06a11.69,11.69,0,0,1,12-11.61c6.89,0,12,5.13,12,11.54v.07a11.69,11.69,0,0,1-12,11.61C133.69,157.37,128.59,152.23,128.59,145.82Zm17.7,0v-.06a5.76,5.76,0,0,0-5.71-6,5.69,5.69,0,0,0-5.68,6v.07a5.81,5.81,0,0,0,5.74,6A5.7,5.7,0,0,0,146.29,145.82Z" fill="#fff"/><path d="M159.18,134.6H165l9.19,11.8V134.6h6.12v22.32h-5.39l-9.57-12.25v12.25h-6.12Z" fill="#fff"/><rect x="186.8" y="143.94" width="9.34" height="3.65" fill="#fff"/><polygon points="196.15 134.59 196.15 147.59 199.8 143.94 199.8 134.59 196.15 134.59" fill="#fff"/><rect x="199.8" y="143.94" width="9.34" height="3.65" fill="#fff"/><polygon points="196.15 147.59 196.15 156.94 199.8 156.94 199.8 143.94 196.15 147.59" fill="#fff"/><rect x="0.5" y="210" width="212" height="35" fill="none" stroke="#fff" stroke-miterlimit="10"/><text transform="translate(14.41 233.98) rotate(-0.03)" font-size="18" fill="#fff" font-family="Metropolis-Light, Metropolis" letter-spacing="0.09em">CHIC<tspan x="47.65" y="0" letter-spacing="0.07em">A</tspan><tspan x="62.24" y="0">GO EDITION</tspan></text></svg>