<svg id="965d9985-562b-4606-a8e3-c7a21bfb2080" data-name="Layer 1" xmlns="http://www.w3.org/2000/svg" viewBox="0 0 220 253.57"><title>logo</title><path d="M55.38,170h9.95a9,9,0,0,1,6.44,2.24,6.74,6.74,0,0,1,1.85,4.81v.07c0,3.66-2.2,5.86-5.29,6.76l6,8.45H69.7l-5.49-7.78H59.3v7.78H55.38ZM65,181.09c2.81,0,4.59-1.47,4.59-3.73v-.07c0-2.39-1.72-3.69-4.62-3.69H59.3v7.49Z" fill="#fff"/><path d="M81.44,182.88V170h3.92v12.7c0,4.14,2.14,6.34,5.65,6.34s5.61-2.07,5.61-6.18V170h3.92v12.67c0,6.66-3.76,10-9.6,10S81.44,189.35,81.44,182.88Z" fill="#fff"/><path d="M109.29,170h10a8.1,8.1,0,0,1,5.84,2,5,5,0,0,1,1.5,3.7v.06a5.32,5.32,0,0,1-3.19,5c2.61.89,4.43,2.39,4.43,5.42v.07c0,4-3.29,6.12-8.26,6.12H109.29Zm13.43,6.32c0-1.76-1.41-2.84-3.93-2.84h-5.64v5.93h5.36c2.51,0,4.21-1,4.21-3Zm-3.35,6.41h-6.22v6.12h6.5c2.68,0,4.31-1.05,4.31-3.06v-.06C124,183.87,122.46,182.75,119.37,182.75Z" fill="#fff"/><path d="M141.28,183.55,132.41,170h4.66l6.22,9.86L149.6,170h4.5l-8.87,13.43v8.9h-3.95Z" fill="#fff"/><path d="M109.85,104.18a83.82,83.82,0,0,1-26-4L109.78,127l25.83-26.69A83.87,83.87,0,0,1,109.85,104.18Z" fill="#fff"/><path d="M143.78,88.27l6.89-33.76L116.54,44.42c3,3.38,6,7,8.77,10.85A147.65,147.65,0,0,1,143.78,88.27Z" fill="#fff"/><path d="M76,88.07a148.9,148.9,0,0,1,18.4-32.8c2.81-3.83,5.75-7.46,8.74-10.82l-34,10.06Z" fill="#fff"/><path d="M77.89,93.78c3.67,1.83,14.94,6.63,31.94,6.63h0c17.09,0,28.42-4.87,31.94-6.63-1.56-4.69-7-19.26-19.51-36.29a135.18,135.18,0,0,0-12.44-14.73A135.3,135.3,0,0,0,97.41,57.49C84.88,74.55,79.46,89.05,77.89,93.78Z" fill="#fff"/><path d="M73.31,93.83,66.09,58.42c-15.18,25.06-22.28,44.78-24.44,51.4Z" fill="#fff"/><path d="M107.93,39.17V4.09A275.61,275.61,0,0,0,81.72,35C78,40.1,74.56,45.09,71.41,49.93Z" fill="#fff"/><path d="M146.48,93.85,178,109.78c-2.17-6.64-9.25-26.27-24.34-51.22Z" fill="#fff"/><path d="M75.48,97,43,113.37c6.52,3.38,28.29,13.2,62,14.09Z" fill="#fff"/><path d="M111.69,39.12l36.55,10.77C145.1,45.06,141.69,40.08,138,35A274.85,274.85,0,0,0,111.69,4Z" fill="#fff"/><path d="M144.16,96.89l-29.61,30.57c33.87-.86,55.71-10.74,62.19-14.1Z" fill="#fff"/><path d="M6.6,138.63h6.54l5.33,8.64,5.32-8.64h6.54V161H24.18V148.13l-5.71,8.74h-.13l-5.68-8.7V161H6.6Z" fill="#fff"/><path d="M45.36,138.47h6L60.83,161H54.19l-1.59-4H44l-1.6,4H35.89Zm5.42,13.65-2.49-6.31-2.52,6.31Z" fill="#fff"/><path d="M66.35,138.63H75c8,0,12.57,4.59,12.57,11v.07c0,6.44-4.69,11.22-12.69,11.22H66.35Zm6.19,5.45v11.39h2.52c3.73,0,6.19-2,6.19-5.65v-.06c0-3.57-2.46-5.68-6.19-5.68Z" fill="#fff"/><path d="M94.3,138.63h6.18V161H94.3Z" fill="#fff"/><path d="M106.23,157.64l3.44-4.12a11.56,11.56,0,0,0,7.24,2.68c1.69,0,2.59-.57,2.59-1.53v-.06c0-1-.74-1.44-3.8-2.17-4.75-1.08-8.42-2.42-8.42-7v-.06c0-4.15,3.29-7.14,8.65-7.14a14.07,14.07,0,0,1,9.18,3l-3.1,4.37a11,11,0,0,0-6.25-2.2c-1.49,0-2.23.61-2.23,1.44v.06c0,1,.77,1.47,3.89,2.17,5.1,1.12,8.29,2.77,8.29,6.95v.07c0,4.56-3.6,7.27-9,7.27A15.68,15.68,0,0,1,106.23,157.64Z" fill="#fff"/><path d="M131.33,149.86v-.07a11.7,11.7,0,0,1,12.06-11.61c6.89,0,12,5.14,12,11.55v.06a11.7,11.7,0,0,1-12.06,11.61C136.43,161.4,131.33,156.27,131.33,149.86Zm17.7,0v-.07a5.76,5.76,0,0,0-5.71-6,5.7,5.7,0,0,0-5.67,6v.06a5.81,5.81,0,0,0,5.74,6A5.68,5.68,0,0,0,149,149.86Z" fill="#fff"/><path d="M161.92,138.63h5.78l9.18,11.8v-11.8H183V161h-5.39l-9.57-12.24V161h-6.13Z" fill="#fff"/><rect x="189.55" y="147.97" width="9.34" height="3.65" fill="#fff"/><polygon points="198.9 138.63 198.9 151.63 202.55 147.97 202.55 138.63 198.9 138.63" fill="#fff"/><rect x="202.55" y="147.97" width="9.34" height="3.65" fill="#fff"/><polygon points="198.9 151.63 198.9 160.97 202.55 160.97 202.55 147.97 198.9 151.63" fill="#fff"/><path d="M216,249.78H2.5v-36.5H216ZM4,248.28H214.5v-33.5H4Z" fill="#fff"/><path d="M17.31,231.78a6.51,6.51,0,0,1,6.43-6.4,6.33,6.33,0,0,1,4.55,2L27,228.55a4.49,4.49,0,0,0-3.28-1.49,4.73,4.73,0,0,0,0,9.45A4.49,4.49,0,0,0,27,235l1.28,1.22a6.41,6.41,0,0,1-4.56,1.95A6.51,6.51,0,0,1,17.31,231.78Z" fill="#fff"/><path d="M42.13,225.59V238H40.32v-5.45H33.57V238H31.75V225.6h1.81v5.22h6.75v-5.22Z" fill="#fff"/><path d="M46.47,225.59h1.82V238H46.48Z" fill="#fff"/><path d="M52.14,231.76a6.51,6.51,0,0,1,6.43-6.4,6.33,6.33,0,0,1,4.55,1.95l-1.27,1.22A4.49,4.49,0,0,0,58.57,227a4.73,4.73,0,0,0,0,9.45A4.49,4.49,0,0,0,61.85,235l1.28,1.22a6.41,6.41,0,0,1-4.56,1.95A6.51,6.51,0,0,1,52.14,231.76Z" fill="#fff"/><path d="M75.24,235.42H68.8L67.72,238h-2L71,225.57h2l5.32,12.37h-2Zm-.7-1.64L72,227.91l-2.51,5.88Z" fill="#fff"/><path d="M87.15,231.27h5.12v4.93a7.17,7.17,0,0,1-4.86,2,6.4,6.4,0,1,1,0-12.8,7.11,7.11,0,0,1,4.87,1.94L91,228.51A5.2,5.2,0,0,0,87.4,227a4.73,4.73,0,0,0,0,9.46,5.33,5.33,0,0,0,3.06-1v-2.6H87.15Z" fill="#fff"/><path d="M96,231.74a6.41,6.41,0,1,1,6.43,6.4A6.5,6.5,0,0,1,96,231.74Zm11,0a4.55,4.55,0,1,0-4.54,4.74A4.69,4.69,0,0,0,106.94,231.73Z" fill="#fff"/><path d="M121.24,227.24v3.53h6.56v1.7h-6.55v3.76h7.25v1.69h-9.09V225.55h9.09v1.69Z" fill="#fff"/><path d="M132.62,225.54h4.26c4,0,6.85,2.55,6.85,6.17s-2.84,6.19-6.84,6.2h-4.27ZM137,236.25a4.51,4.51,0,0,0,4.86-4.54c0-2.65-2-4.52-4.87-4.52h-2.55v9.06Z" fill="#fff"/><path d="M147.75,225.53h1.82V237.9h-1.82Z" fill="#fff"/><path d="M157.35,227.22h-4v-1.69h9.94v1.69h-4.07v10.67h-1.81Z" fill="#fff"/><path d="M166.94,225.52h1.82v12.37H167Z" fill="#fff"/><path d="M172.62,231.69a6.41,6.41,0,1,1,6.43,6.41A6.49,6.49,0,0,1,172.62,231.69Zm11,0a4.55,4.55,0,1,0-4.53,4.73A4.69,4.69,0,0,0,183.58,231.69Z" fill="#fff"/><path d="M189.5,225.51h1.81l7.12,9.37V225.5h1.81v12.37h-1.82l-7.11-9.38v9.38H189.5Z" fill="#fff"/></svg>