<svg id="ad224404-6e3d-417c-b28e-77cb7e6fb087" data-name="Layer 1" xmlns="http://www.w3.org/2000/svg" viewBox="0 0 213 245.5"><title>logo-color</title><rect x="0.5" y="210" width="212" height="35" fill="none" stroke="#2c0304" stroke-miterlimit="10"/><path d="M16.78,227.75a6.45,6.45,0,0,1,6.33-6.4,6.26,6.26,0,0,1,4.45,1.89l-.79.79a5.14,5.14,0,0,0-3.66-1.6,5.32,5.32,0,0,0,0,10.64,5.06,5.06,0,0,0,3.65-1.62l.79.81a6.32,6.32,0,0,1-4.44,1.89A6.47,6.47,0,0,1,16.78,227.75Z" fill="#2c0304"/><path d="M41,221.56v12.37H39.82v-5.75H32.28v5.74H31.13V221.56h1.15v5.51h7.55v-5.51Z" fill="#2c0304"/><path d="M45.43,221.55h1.15v12.37H45.44Z" fill="#2c0304"/><path d="M50.56,227.73a6.46,6.46,0,0,1,6.34-6.4,6.27,6.27,0,0,1,4.45,1.89l-.8.79a5.12,5.12,0,0,0-3.65-1.6,5.32,5.32,0,0,0,0,10.64,5.08,5.08,0,0,0,3.66-1.62l.79.81a6.34,6.34,0,0,1-4.45,1.89A6.47,6.47,0,0,1,50.56,227.73Z" fill="#2c0304"/><path d="M73.7,231H66.6l-1.27,2.92H64.07l5.44-12.37h1.26l5.47,12.37H75Zm-.51-1.12-3-6.91-3,6.92Z" fill="#2c0304"/><path d="M85.2,227.51h5v4.73a7.17,7.17,0,0,1-4.79,1.88,6.41,6.41,0,0,1,0-12.81,7.12,7.12,0,0,1,4.8,1.88l-.8.81a5.77,5.77,0,0,0-4-1.6,5.32,5.32,0,0,0,0,10.64A6,6,0,0,0,89,231.77v-3.16H85.2Z" fill="#2c0304"/><path d="M94,227.7a6.33,6.33,0,1,1,6.34,6.41A6.46,6.46,0,0,1,94,227.7Zm11.49,0a5.16,5.16,0,1,0-5.15,5.33A5.28,5.28,0,0,0,105.52,227.7Z" fill="#2c0304"/><path d="M118.67,222.61V227h6.77v1.11h-6.77v4.64h7.45v1.1h-8.62V221.51h8.62v1.1Z" fill="#2c0304"/><path d="M130.42,221.51h4.2c3.85,0,6.57,2.56,6.57,6.18s-2.71,6.19-6.56,6.19h-4.2Zm4.21,11.3a5.13,5.13,0,1,0,0-10.24h-3v10.24Z" fill="#2c0304"/><path d="M145.38,221.5h1.15v12.37h-1.15Z" fill="#2c0304"/><path d="M154.67,222.59h-4.28v-1.1h9.73v1.1h-4.29v11.27h-1.15Z" fill="#2c0304"/><path d="M164,221.49h1.15v12.37H164Z" fill="#2c0304"/><path d="M169.09,227.66a6.33,6.33,0,1,1,6.34,6.41A6.46,6.46,0,0,1,169.09,227.66Zm11.49,0a5.16,5.16,0,1,0-5.15,5.34A5.3,5.3,0,0,0,180.58,227.65Z" fill="#2c0304"/><path d="M186,221.47h1.15l7.93,10.5v-10.5h1.16v12.37h-1.15l-7.93-10.49v10.49H186Z" fill="#2c0304"/><path d="M52.53,166.28h10A9,9,0,0,1,69,168.52a6.78,6.78,0,0,1,1.85,4.82v.07c0,3.67-2.2,5.88-5.3,6.77l6,8.47H66.88l-5.5-7.8H56.46v7.8H52.53Zm9.68,11.09c2.82,0,4.61-1.47,4.61-3.74v-.06c0-2.4-1.73-3.71-4.64-3.71H56.46v7.51Z" fill="#221f1f"/><path d="M78.64,179.16V166.28h3.93V179c0,4.15,2.14,6.36,5.66,6.36s5.62-2.08,5.62-6.2V166.28h3.93V179c0,6.67-3.77,10-9.62,10S78.64,185.64,78.64,179.16Z" fill="#221f1f"/><path d="M106.54,166.28h10a8.11,8.11,0,0,1,5.85,2,5,5,0,0,1,1.5,3.71V172a5.33,5.33,0,0,1-3.2,5c2.62.89,4.45,2.39,4.45,5.43v.06c0,4-3.3,6.14-8.28,6.14H106.54ZM120,172.61c0-1.76-1.4-2.85-3.93-2.85h-5.65v6h5.36c2.53,0,4.22-1,4.22-3ZM116.64,179h-6.23v6.13h6.51c2.69,0,4.32-1,4.32-3.06V182C121.24,180.15,119.74,179,116.64,179Z" fill="#221f1f"/><path d="M138.59,179.83l-8.88-13.55h4.66l6.23,9.87,6.33-9.87h4.5l-8.88,13.45v8.92h-4Z" fill="#221f1f"/><path d="M107.1,100.32a83.7,83.7,0,0,1-26-3.95L107,123.17l25.88-26.74A83.87,83.87,0,0,1,107.1,100.32Z" fill="#a41e22"/><path d="M141.1,84.38,148,50.57,113.8,40.46c3,3.38,6,7,8.79,10.87A148.3,148.3,0,0,1,141.1,84.38Z" fill="#c12126"/><path d="M73.17,84.19A147.72,147.72,0,0,1,91.6,51.33c2.81-3.84,5.75-7.48,8.75-10.84l-34,10.08Z" fill="#c12126"/><path d="M75.09,89.91c3.67,1.82,15,6.64,32,6.64h0c17.12,0,28.48-4.89,32-6.64-1.56-4.71-7-19.3-19.55-36.36A135.65,135.65,0,0,0,107.1,38.79,135.87,135.87,0,0,0,94.64,53.55C82.09,70.64,76.66,85.16,75.09,89.91Z" fill="#ea2127"/><path d="M70.5,90,63.26,54.48C48.06,79.59,41,99.34,38.78,106Z" fill="#a41e22"/><path d="M105.18,35.2V.06A275.61,275.61,0,0,0,78.93,31c-3.75,5.11-7.18,10.11-10.33,15Z" fill="#ea2127"/><path d="M143.8,90l31.59,16c-2.17-6.66-9.27-26.33-24.38-51.32Z" fill="#a41e22"/><path d="M72.67,93.08,40.11,109.53c6.52,3.38,28.33,13.23,62.14,14.11Z" fill="#ea2127"/><path d="M109,35.15l36.61,10.78C142.42,41.1,139,36.11,135.26,31A274.85,274.85,0,0,0,109,0Z" fill="#ea2127"/><path d="M141.47,93l-29.65,30.62c33.92-.86,55.8-10.76,62.3-14.12Z" fill="#ea2127"/><path d="M3.68,134.83h6.54l5.34,8.66,5.33-8.66h6.56V157.2H21.28V144.35l-5.72,8.76h-.13l-5.68-8.72V157.2H3.68Z" fill="#221f1f"/><path d="M42.5,134.67h6L58,157.2H51.35l-1.6-4H41.09l-1.59,4H33Zm5.43,13.68L45.44,142l-2.52,6.33Z" fill="#221f1f"/><path d="M63.53,134.83h8.66c8,0,12.58,4.6,12.58,11.06V146c0,6.46-4.69,11.25-12.71,11.25H63.53Zm6.2,5.47v11.4h2.52c3.74,0,6.2-2,6.2-5.65V146c0-3.58-2.46-5.68-6.2-5.68Z" fill="#221f1f"/><path d="M91.52,134.83h6.2V157.2h-6.2Z" fill="#221f1f"/><path d="M103.48,153.87l3.45-4.12a11.55,11.55,0,0,0,7.25,2.69c1.69,0,2.59-.58,2.59-1.54v-.06c0-1-.74-1.44-3.81-2.17-4.76-1.09-8.43-2.43-8.43-7v-.06c0-4.16,3.29-7.16,8.66-7.16a14.07,14.07,0,0,1,9.2,3l-3.1,4.38a11,11,0,0,0-6.26-2.21c-1.5,0-2.24.61-2.24,1.44v.07c0,1,.77,1.47,3.9,2.17,5.11,1.12,8.31,2.78,8.31,7v.07c0,4.57-3.61,7.28-9,7.28A15.6,15.6,0,0,1,103.48,153.87Z" fill="#221f1f"/><path d="M128.62,146.08V146a11.71,11.71,0,0,1,12.08-11.63c6.9,0,12,5.14,12,11.56V146a11.71,11.71,0,0,1-12.07,11.63C133.74,157.65,128.62,152.5,128.62,146.08Zm17.74,0V146a5.77,5.77,0,0,0-5.72-6,5.71,5.71,0,0,0-5.69,6V146a5.81,5.81,0,0,0,5.75,6A5.7,5.7,0,0,0,146.36,146.08Z" fill="#221f1f"/><path d="M159.27,134.83h5.78l9.21,11.83V134.83h6.13V157.2H175l-9.58-12.27V157.2h-6.14Z" fill="#221f1f"/><rect x="186.95" y="144.19" width="9.36" height="3.66" fill="#eb5f62"/><polygon points="196.31 134.83 196.31 147.85 199.96 144.19 199.96 134.83 196.31 134.83" fill="#ea2127"/><rect x="199.96" y="144.19" width="9.36" height="3.66" fill="#a41e22"/><polygon points="196.31 147.85 196.31 157.21 199.96 157.21 199.96 144.19 196.31 147.85" fill="#c12126"/></svg>