<svg id="07e1583b-c0d0-42d8-ad5f-e6ef94066bb6" data-name="Layer 1" xmlns="http://www.w3.org/2000/svg" viewBox="0 0 244.53 306.81"><title>newberry</title><path d="M159.54,99.43a12.94,12.94,0,0,1,3.22-1c2.79,0,5.58.18,8.37.17,3.62,0,7.25-.19,10.87-.18a8.39,8.39,0,0,1,2.69.68c.83.3.85.75.06,1.21-1.58,1-3.1,2-4.74,2.84a12.52,12.52,0,0,0-6.45,7.93Q170.28,122,167.28,133c-2.34,8.47-4.59,17-6.83,25.45-1.53,5.82-3,11.66-4.42,17.5-1.08,4.36-2.07,8.73-3.09,13.1-.43,1.86-.73,3.76-1.28,5.59s-2,2-3.19.74c-1.87-2.06-3.47-4.36-5.17-6.57-2.62-3.39-5.29-6.74-7.8-10.2-1.4-1.92-2.43-4.11-3.8-6.06a51,51,0,0,0-4.31-5.31c-1.27-1.37-3-1.14-3.74.53-1.07,2.5-1.93,5.09-2.77,7.68-1.29,4-2.64,7.93-3.68,12a35.87,35.87,0,0,1-3,8,22.49,22.49,0,0,1-4.63,6.51c-2.37,2.13-4.63,4.38-6.88,6.64a4.14,4.14,0,0,0-1.11,2,1.91,1.91,0,0,0,.73,1.62,21,21,0,0,0,5.43,1.66c3.86.37,7.77.33,11.65.56,2.2.13,4.38.48,6.58.67,1,.08,2,0,3,0,2,0,3.93,0,5.9.07,1.06,0,2.13.15,3.19.23s1.89.21,2.83.22c4.48,0,9,0,13.44,0a22.64,22.64,0,0,0,11.6-3.33c2.75-1.64,3.76-4.27,3.94-7.3.13-2,.12-4,.29-6.06a1.89,1.89,0,0,1,.9-1.32c.3-.14,1,.22,1.34.54,1.43,1.29,1.75,3.09,2,4.87.55,3.35-.86,5.93-3,8.38s-3.66,5-5.67,7.37-3.91,5.48-7.14,6.74a13.11,13.11,0,0,1-4.51.65c-3.31,0-6.61-.11-9.92-.21-4.56-.15-9.15-.16-13.7-.53-3.53-.29-7.12.14-10.62-.86a15.06,15.06,0,0,0-2.86-.06c-1.68-.16-3.35-.41-5-.63-.16,0-.31-.07-.47-.08-2.89-.16-5.78-.28-8.66-.49-3.94-.28-7.87-.71-11.81-.91a17.1,17.1,0,0,0-8.27,1.5c-1.92.9-3.8,1.9-5.78,2.61a10.74,10.74,0,0,1-4,.59,1.44,1.44,0,0,1-1.28-2.38c1.12-1.91,2.38-3.75,3.68-5.55,1.55-2.13,3.09-4.31,5.41-5.69a7.67,7.67,0,0,1,2.68-1,27.3,27.3,0,0,1,6.21-.56,8.89,8.89,0,0,0,4.67-.73,8.61,8.61,0,0,0,3.79-3.94,83.65,83.65,0,0,0,7.11-15.7c2.8-8.82,5.41-17.7,8-26.58,1.12-3.81,2.09-7.68,3-11.54a8.76,8.76,0,0,0-1-6.77c-3.26-5.53-6.34-11.17-9.61-16.7a77.75,77.75,0,0,0-5.12-7.73,2.68,2.68,0,0,0-4.88.76c-.72,2.48-1.44,5-2,7.45-.85,3.41-1.63,6.84-2.37,10.27-1.8,8.33-3.54,16.67-5.33,25-.65,3-1.5,6-2.06,9a53.38,53.38,0,0,0-.78,7,13.92,13.92,0,0,0,.45,4.21,8.44,8.44,0,0,0,1.61,2.81c.87,1.13,1.9,2.13,2.93,3.26-.41,1.62-2,1.12-3,1.51a2.62,2.62,0,0,1-.84,0c-4,.08-8,.12-11.95.26-2.49.08-5,.35-7.47.44a21.39,21.39,0,0,1-3.66-.26c-.38,0-1.05-.59-1-.74.18-.58.45-1.36.92-1.58a52.38,52.38,0,0,1,5-1.94,11.86,11.86,0,0,0,5.86-4.14,46.11,46.11,0,0,0,3.88-5.59A27.72,27.72,0,0,0,78,173.79c.75-3,1.21-6.06,1.83-9.09,1-4.75,2-9.49,3-14.22,1-4.35,2.06-8.67,3-13Q87,132,88.06,126.55c.54-2.88,1.1-5.78,1.4-8.7.35-3.36,1.05-6.76,0-10.11A9.13,9.13,0,0,0,86,102.56c-3-2-6.23-3.76-9.33-5.66a11.41,11.41,0,0,1-1.57-1.39l.17-.54c1.61-.06,3.22-.15,4.82-.18.92,0,1.84,0,2.76,0,2.6,0,5.2,0,7.8,0,1.78,0,3.58.09,5.36.23a4.71,4.71,0,0,1,3.54,2.56c3.78,6.12,7.46,12.32,11.1,18.53,2.15,3.65,4.13,7.39,6.28,11,.75,1.25,1.48,2.59,3,3.22a2,2,0,0,0,2.89-1.13,39.63,39.63,0,0,0,1.52-4.78c1.67-6.22,3.41-12.43,4.93-18.69,1.16-4.78,2-9.64,3-14.47a14.92,14.92,0,0,0,0-7c-.82-3.13-2.9-5.49-6.61-5.35a1.92,1.92,0,0,1-.24,0c-.72-.15-1.7-.15-1.72-1.06,0-.45.7-1.11,1.22-1.32,1.37-.55,2.82-.89,4.22-1.34l11.61-3.74,3.67-1.18c2.27-.74,3.84.61,3.43,3-.36,2-.73,4.08-1.2,6.1-1.21,5.21-2.41,10.43-3.73,15.62-1.43,5.59-3,11.14-4.49,16.74-1.55,6-2.93,12.07-4.51,18.07-1,3.93-2.26,7.8-3.43,11.69a12.89,12.89,0,0,0,.79,9.56c2.56,5.43,6.37,10.05,9.6,15a45.28,45.28,0,0,0,3.87,5.33c1.64,1.89,3.14,2.21,4.6.83a6.61,6.61,0,0,0,1.6-2.7c2.48-7.94,5-15.86,7.27-23.86,1.93-6.92,3.62-13.91,5.17-20.93.79-3.59,1-7.32,1.53-11a13.3,13.3,0,0,0-1-8,31.58,31.58,0,0,0-2.58-3.89C160.81,101.23,160.31,100.53,159.54,99.43Z" fill="#fff"/><path d="M46.07,23.81c1.6.8,1.73,2.42,2.37,3.72,2.14,4.41,4.24,8.83,6.36,13.25.51,1.06,1,2.13,1.5,3.19s.4,3-.32,3.56a3.36,3.36,0,0,1-3.6,0c-1.51-.88-3.05-1.73-4.58-2.58a1.49,1.49,0,0,0-1.9.37A2,2,0,0,0,45.69,47c.4,1.22,1,2.37,1.5,3.56A14.31,14.31,0,0,1,48,52.7a2.2,2.2,0,0,1-3.07,2.72,35.45,35.45,0,0,1-5.51-3.07c-4.15-2.52-8.27-5.09-12.39-7.63,0,0-.09,0-.11,0-.65-.8-1.3-1.61-1.94-2.42a14.91,14.91,0,0,1,2.68-2.31c1-.55,2,.08,2.76.93a20.14,20.14,0,0,0,8.12,5.52,5.14,5.14,0,0,0,.55.2c1.52.35,2.12-.23,1.7-1.8A13.61,13.61,0,0,0,37,38.14a16,16,0,0,0-2.29-1.42,1.84,1.84,0,0,1-.42-2.86,7.25,7.25,0,0,1,2.55-1.79c1.1-.39,1.85.64,2.51,1.34a22.75,22.75,0,0,0,8.39,5.71,2.82,2.82,0,0,0,1.23,0c.8-.1,1-.47.72-1.3a53,53,0,0,0-4.81-9.76C43.52,26.05,43.81,25,46.07,23.81Z" fill="#fff"/><path d="M10.63,165.23c4.23-.64,8.47-1.25,12.69-1.92,1.27-.21,1.79,0,2.15,1.27a15.93,15.93,0,0,1,.63,3c.1,1.37-1.17,2.27-2.68,2.19a41.69,41.69,0,0,0-4.33,0,13.74,13.74,0,0,0-2.56.37c-1.89.43-2.59,1.17-2.58,3.09a25.43,25.43,0,0,0,.5,5.16c.31,1.5,2.54,2.43,4.39,2.09s3.91-.78,5.86-1.13a1.48,1.48,0,0,1,1.94,1.53c.05.74.21,1.49.22,2.23,0,1.87-1.15,2.69-3,2.48a45.21,45.21,0,0,0-4.94,0c-.8,0-1.6-.05-2.4,0-3.83.37-7.69.66-11.5,1.21-2.76.4-3.82-1.11-3.43-3.8.19-1.31.59-2.18,2-2.19.93,0,1.88.29,2.81.25a11.94,11.94,0,0,0,3-.51A2.5,2.5,0,0,0,11,178a23.78,23.78,0,0,0-.23-4.62,2.68,2.68,0,0,0-3-2.45c-1.42,0-2.85.12-4.27.23a2.31,2.31,0,0,1-2.66-1.77,5.4,5.4,0,0,1-.17-1.83c.23-1.9.57-2,2.5-2.16,2.48-.21,5-.39,7.45-.59Z" fill="#fff"/><path d="M70.3,9.94c4,.17,6.42,2.54,6.25,6.18a10.45,10.45,0,0,0-.14,1.36,3.05,3.05,0,0,0,1.48,2.24A23.8,23.8,0,0,1,82,23.17c1.5,1.77,1.27,3.16.45,5.24-1.57,3.95-5,5.56-8.59,6.9-1.83.67-3.63,1.43-5.47,2-1.33.44-1.9.08-2.39-1.09q-3.31-7.88-6.69-15.73a11.48,11.48,0,0,0-1.52-2.63c-1.35-1.67-.5-2.67.92-3.5a20.54,20.54,0,0,1,2-.93c2.2-1,4.39-2,6.63-2.91A17.22,17.22,0,0,1,70.3,9.94Zm1.52,22.53c2-.14,3.45-1.46,5-2.56a3.83,3.83,0,0,0,.75-5.22,6,6,0,0,0-8.75-.7A4.28,4.28,0,0,0,67.7,25.4c-.67,1.59-.09,3.08.66,4.47S69.88,32.62,71.82,32.47ZM72,16.38a2,2,0,0,0-1.32-2.15c-2.2-1.12-4.08-.36-6,.84-2.19,1.39-1.58,4,0,5.4a3.41,3.41,0,0,0,3.7.44C70,20.35,72.13,18.46,72,16.38Z" fill="#fff"/><path d="M236.39,86.29c.59,1.92,1.21,3.92,1.81,5.91a27.35,27.35,0,0,1,1.32,8.23,5.13,5.13,0,0,1-4.77,5.17,8,8,0,0,1-2.57-.3,3.68,3.68,0,0,0-4,1.52,7.63,7.63,0,0,1-8.49,2.87c-2.43-.87-3.61-3-4.43-5.21A33.42,33.42,0,0,1,213.09,94c-.07-2.3-.15-2.17,2.29-2.52,3.79-.55,7.6-1.12,11.32-2C229.9,88.65,233,87.41,236.39,86.29Zm-9.83,14a10.63,10.63,0,0,0-.31-2.76,4.15,4.15,0,0,0-1.72-2.34c-2.26-.92-4.46-.17-6.46,1a2.16,2.16,0,0,0-.84,1.24,7.35,7.35,0,0,0,.93,5.5c.87,1.48,3.32,2.81,4.59,2.33C225.73,104.22,226.35,103.87,226.56,100.32Zm7.11.75a4.57,4.57,0,0,0,.77-.24c1.66-.74,2.55-3.27,1.94-5.49a4,4,0,0,0-3.61-2.89c-1.41.1-3.4.84-3.69,2.64a8.14,8.14,0,0,0,.12,2.08A4.93,4.93,0,0,0,233.67,101.07Z" fill="#fff"/><path d="M62.57,294.18c1.21-2.34,2.38-4.6,3.53-6.86a14.9,14.9,0,0,0,.8-1.83,2.35,2.35,0,0,0-.92-3.18,33.32,33.32,0,0,0-4.84-2.55,2.6,2.6,0,0,0-3.16.79,15,15,0,0,0-3.25,6.18c-.5,1.88-1.13,2.28-2.9,1.66a4.81,4.81,0,0,1-1.19-.49c-2.41-1.72-2.19-2.4-.82-4.48,1.77-2.68,3.51-5.37,5.12-8.15,2.05-3.54,4-7.17,6-10.84.91.35,1.81.63,2.64,1.05,1.84.91,2.07,2.46.75,4.21-.84,1.13-1.64,2.29-2.38,3.49a2.69,2.69,0,0,0,.57,2.79,17.1,17.1,0,0,0,5.82,3.2,2.71,2.71,0,0,0,3.2-1.26c.67-1.27,1.25-2.59,1.87-3.9s1.05-2,2.78-1.17c.39.19.81.3,1.19.5,1.71.9,2.08,2.11.88,3.56-2.81,3.39-4.37,7.52-6.84,11.09a24.24,24.24,0,0,0-3,6.85c-.67,2.13-1.81,1.77-3,1.1C64.45,295.41,63.55,294.79,62.57,294.18Z" fill="#fff"/><path d="M216,261.36a14.05,14.05,0,0,1-10.92,13.73c-4.31,1.09-7.83-.23-11.11-2.92a11.42,11.42,0,0,1-4.15-6.1c-.78-3.19-1-6.51.48-9.48a22.88,22.88,0,0,1,4.12-5.14,10.63,10.63,0,0,1,6.56-3.08,9.84,9.84,0,0,1,5.45.43c2,.86,4,1.48,5.64,3A12.68,12.68,0,0,1,216,261.36Zm-15-8.84c-1.61-.32-3.07.44-4.5,1.42a8.09,8.09,0,0,0-3.08,8.93,13.1,13.1,0,0,0,5.59,6.73,8,8,0,0,0,4.82,1.58,8.49,8.49,0,0,0,5.35-2.3,7.52,7.52,0,0,0,2.61-8C210.7,256.5,206.48,252.18,201,252.52Z" fill="#fff"/><path d="M219.36,180.21a48.06,48.06,0,0,0,13.28,2.27c3,0,6.06.41,9.08.68,1.31.12,2.11,1.44,1.86,3-.47,3-.9,6-1.44,9.05-.67,3.78-2.55,5.8-6.41,6.34a5.71,5.71,0,0,1-3-.72,8.56,8.56,0,0,1-2.42-1.86c-2.42-2.55-3.19-2.46-6.87-1-1.82.71-3.6,1.52-5.39,2.31-.93.41-1.31.17-1.33-.87a4.9,4.9,0,0,1,3-4.89c2-1,4.11-1.94,6.15-2.95a7.68,7.68,0,0,0,1.66-1.09,2,2,0,0,0-.8-3.69,15.52,15.52,0,0,0-2.64-.47c-1.4-.18-2.8-.4-4.21-.44s-1.45-1.15-1.4-1.91A20.21,20.21,0,0,1,219.36,180.21Zm12,11.08c.06,3.87,2.11,5.85,5.43,5.08,2.49-.58,4.32-5.22,2.72-7.15-.84-1-5-2.25-6.16-1.67a1.22,1.22,0,0,0-.35.33A6.52,6.52,0,0,0,231.35,191.29Z" fill="#fff"/><path d="M220.57,140a3.55,3.55,0,0,1,.25-5.42c1.94-1.71,4.13-3.11,6.15-4.73a5.61,5.61,0,0,0,1.76-2.1c.68-1.72.13-2.44-2-2.62a30.93,30.93,0,0,0-6.13.41,2,2,0,0,1-2.46-1.72,3.75,3.75,0,0,0,0-.48c-.71-2,.45-3.33,2.59-3.32,3,0,6.07,0,9.11,0a32.79,32.79,0,0,0,11.25-1.68c.91-.35,1.38,0,1.53.81.37,1.88.69,3.76,1,5.66a15.78,15.78,0,0,1,.23,3.06,44.63,44.63,0,0,1-.5,5.78c-.42,2.33-4.34,4.59-6.74,4.12a9.94,9.94,0,0,1-4.89-2.38c-1.24-1.13-2.68-.85-3.93-.08-1.86,1.14-3.61,2.47-5.43,3.7C221.75,139.39,221.13,139.7,220.57,140Zm16.24-16.44-.13.29c-1.58,0-3.05.25-3.92,1.81-1.39,2.52.29,5.75,2.33,7a3.89,3.89,0,0,0,3.12,0c2-.92,2.56-2.94,2.7-5,.07-1,0-2.15-1-2.73A28.85,28.85,0,0,0,236.81,123.57Z" fill="#fff"/><path d="M142.39,26.33c-3.5.47-4.89-.35-6.4-3.63a46.34,46.34,0,0,0-3.55-6.49,2.25,2.25,0,0,0-4,.19,34.77,34.77,0,0,0-1,4.79c0,.23,0,.48,0,.72-.16.9.53,2.1-.79,2.61a4.39,4.39,0,0,1-3.87-.32c-.89-.53-.71-1.56-.56-2.39.24-1.39.68-2.73.92-4.11.29-1.74.49-3.5.7-5.25.33-2.77.65-5.55.93-8.32.09-.83,0-1.68,0-2.52s.38-1.75,1.65-1.59c3.93.51,7.94.68,11.78,1.57,3.16.73,5.61,4.39,5,7.38A8.3,8.3,0,0,1,140,13.69c-1.8,1.42-2,2.77-1,5.2.9,2.13,2,4.17,3,6.26A7.2,7.2,0,0,1,142.39,26.33ZM133,11.59l.07.19a24.43,24.43,0,0,0,2.86-.91,3.45,3.45,0,0,0,.58-5.95,9.69,9.69,0,0,0-3.14-1.47c-1.07-.24-2.38-.66-3.29.44A7,7,0,0,0,128.78,6c-.83,2.49.28,4.79,2.53,5.41A10,10,0,0,0,133,11.59Z" fill="#fff"/><path d="M175,16.06a6.15,6.15,0,0,1-3.58,5.65c-1.39.69-2.73,1.42-2.82,3.14a10.62,10.62,0,0,0,.36,3.12c.47,1.85,1.09,3.66,1.62,5.5.29,1,0,1.48-1.13,1.61a3.2,3.2,0,0,1-3.57-2.47c-.77-2.41-1.42-4.86-2.19-7.28a10.66,10.66,0,0,0-1.15-2.55c-1.1-1.68-3.42-1.11-4.34.88a39.36,39.36,0,0,0-1.46,4.54c-.18.6-.35,1.2-.58,1.77a1.11,1.11,0,0,1-.54.53c-1.17.55-3.64-.4-4-1.63a3.57,3.57,0,0,1,.39-1.71c1.48-4.57,3-9.13,4.43-13.7.64-2.05,1.15-4.13,1.7-6.2.16-.61.52-.9,1.11-.73,3.31.9,6.64,1.73,9.91,2.78a14.48,14.48,0,0,1,3.75,2.06A5,5,0,0,1,175,16.06Zm-8.34,3.36a2.85,2.85,0,0,0,3.1-1.69c.59-1.15,1.08-2.55.19-3.88a7.19,7.19,0,0,0-6.43-3.21,1.9,1.9,0,0,0-1.32.91,10.2,10.2,0,0,0-1,2.72c-.6,2.68-.14,3.88,2.25,4.65A17.36,17.36,0,0,0,166.63,19.42Z" fill="#fff"/><path d="M178.13,273.23c-1-.54-1.84-1.05-2.73-1.53-1.64-.9-3.32-.31-4.7.41a7.55,7.55,0,0,0-4.16,5.74c-.52,3.33.67,6,2.75,8.51a8.06,8.06,0,0,0,6.28,2.88c1,0,2,.2,3,.22,1.48,0,2.89-.34,3.62-1.75s-.09-2.58-.63-3.77c-.61-1.39-1.4-2.7-2-4.09a2.15,2.15,0,0,1,1.29-2.85,9.13,9.13,0,0,1,1.21-.42,1.55,1.55,0,0,1,2.06,1c1.06,2.68,2.16,5.35,3.24,8a11,11,0,0,1,1,2.53,2,2,0,0,1-.86,1.58,26.21,26.21,0,0,1-9,3.38,23.62,23.62,0,0,1-7.66-.38,8.08,8.08,0,0,1-3.68-1.76,13,13,0,0,1-5-8.05,12.74,12.74,0,0,1,1.35-8.58c2.4-4.33,6.35-7.7,12.5-6.51.5.09,1,.11,1.5.23,1.53.38,2.12,1,2.26,2.41A2.55,2.55,0,0,1,178.13,273.23Z" fill="#fff"/><path d="M7.06,85.22a24.52,24.52,0,0,0,2.82.94c2.26.47,4.53.84,6.8,1.23,2.09.35,4.17.72,6.26,1,1.83.27,3.67.44,5.51.66l2,.25c0,.67,0,1.22,0,1.78a1.82,1.82,0,0,1-2.4,1.81l-3.31-.72c-1.67-.36-2.93.65-4.17,1.42-2.65,1.66-5.19,3.49-7.76,5.28a8.24,8.24,0,0,0-1.59,1.41c-.31.38-.71,1.06-.56,1.37a2.76,2.76,0,0,0,1.42,1.5c2.33.54,4.69.89,7,1.25s4.58.69,6.87,1c1.33.15,1.55,1,1.56,2.06,0,2-.43,2.4-2.35,2-3.5-.66-7-1.46-10.47-2.06-2.71-.47-5.45-.71-8.18-1.05-.78-.1-1.57-.13-2.34-.29-1.21-.25-1.7-1.63-1.29-3,.82-2.81,2.77-4.64,5-6.31A68.76,68.76,0,0,0,13.42,92c.74-.68.58-1.32-.5-1.54a22.71,22.71,0,0,0-4.68-.89c-2.67,0-2.77-1.28-1.85-3.43A5.13,5.13,0,0,1,7.06,85.22Z" fill="#fff"/><path d="M145.06,294.55c-1.11.21-2.23.35-3.32.65-2,.55-2.67,2.2-3,4a12.14,12.14,0,0,0,0,3.13,2,2,0,0,1-2,2.28c-.2,0-.4,0-.6,0-1.95,0-2.67-.95-1.93-2.81,2.1-5.27,3.35-10.78,4.76-16.26a18.33,18.33,0,0,1,2.16-5.14c1.49-2.36,4-3,5.78,0,2.32,3.94,4.27,8.1,6.4,12.15,1.26,2.4,2.54,4.77,3.85,7.14.7,1.28.42,2.53-1,2.83a15.49,15.49,0,0,1-4,.12c-.27,0-.64-.63-.74-1-.27-1.06-.34-2.18-.63-3.22C150.05,295.62,148.63,294.75,145.06,294.55Zm-1.5-3.61c1.71-.17,2.87-1,2.06-2.76-.93-2.08-2.31-2.48-3.29-1a2.54,2.54,0,0,0-.14,2.87C142.5,290.56,143.24,290.76,143.56,290.94Z" fill="#fff"/><path d="M220.21,147.71c3.8,1.51,7.3,2.94,10.83,4.31,3.85,1.49,7.74,2.91,11.6,4.38,1.53.58,1.84,1.95,1.89,3.34a3,3,0,0,1-1.82,3.06c-3,1.3-6.06,2.52-9.09,3.79L223.26,171a9.93,9.93,0,0,1-1.4.59c-.8.19-1.56,0-1.84-.84-.48-1.52-.76-3.09.46-4.39a2.86,2.86,0,0,1,1.83-.9,8.15,8.15,0,0,0,5.2-1.88c1.44-1.14,1.6-2.85,1.61-4.5a8.54,8.54,0,0,0-.6-2.84c-.67-2-2.51-2.35-4.2-2.8-1.08-.3-2.24-.3-3.36-.52a1.76,1.76,0,0,1-1.57-2.1A28.78,28.78,0,0,1,220.21,147.71ZM234,160.77a30.44,30.44,0,0,0,2.9-.93c.62-.27.88-.84.17-1.32s-1.52-.85-2.26-1.3-1.29,0-1.66.54-.86,1.3-.69,1.72C232.68,160.05,233.49,160.38,234,160.77Z" fill="#fff"/><path d="M23.09,138.74,22,133c-.16-.78-.42-1.66.52-2.09.74-.33,2.55.08,2.71.89a22.36,22.36,0,0,1,.68,4.26c0,3.41-.24,6.82-.39,10.22,0,1-.16,2-.26,3a1,1,0,0,1-1.44,1c-4.31-1.19-8.7-.52-13-.7-1.47-.06-2.93-.21-4.4-.22-1.14,0-2.28.18-3.43.21-2.48.08-2.29,0-2.59-2.34A42.75,42.75,0,0,1,1,133.3a1.73,1.73,0,0,1,2.62-1.23,1.68,1.68,0,0,1,.54,1.44,16.87,16.87,0,0,0-.79,8,3.28,3.28,0,0,0,3.06,2.75c1.78,0,3.11-1.05,3.19-2.59s0-3.37,0-5.05.32-2,1.65-2.21a1.49,1.49,0,0,1,1.92,1.48c0,1.09-.23,2.19-.31,3.29a13.36,13.36,0,0,0-.08,3c.22,1.46,1.16,2.1,2.7,2.21,2,.15,4,.39,5.86-.64a3,3,0,0,0,1.43-2.65,15.61,15.61,0,0,0,0-2.27Z" fill="#fff"/><path d="M106.79,13.59c-2.05.21-4,.38-5.89.61s-3.07,1-3.25,3.16a8.42,8.42,0,0,0,1.2,5.44,2.1,2.1,0,0,0,2.34,1c2.2-.36,4.44-.57,6.61-1.05a8.05,8.05,0,0,0,2.66-1.38c.71-.49,1.09-.29,1.35.4a7.07,7.07,0,0,1,.48,1.67A1.3,1.3,0,0,1,111.22,25c-2.94.62-5.87,1.35-8.83,1.84-2.36.39-4.77.55-7.17.73-1.15.09-1.53-.48-1.64-1.65-.35-3.52-.68-7-1.2-10.55S91.14,8.65,90.6,5.25a1.65,1.65,0,0,1,.73-1.37,14,14,0,0,1,3.72-1.3c3.65-.54,7.33-1,11-1.32,1.45-.15,2.14.68,1.88,2.13a1.51,1.51,0,0,1-1.08.92c-1.14.12-2.33-.07-3.47.07a29.62,29.62,0,0,0-5.06.9c-1.91.58-2.45,1.77-1.85,4.06A2.89,2.89,0,0,0,100,11.13c1.8-.37,3.6-.74,5.42-1,1-.14,1.47.72,1.6,1.55A6.64,6.64,0,0,1,106.79,13.59Z" fill="#fff"/><path d="M32.64,80.68c-.95-.53-1.71-1-2.51-1.39-3.48-1.71-6.94-3.47-10.47-5.08-2.19-1-4.31-2.2-6.8-2.5-1.49-.18-1.78-1-1.38-2.49,1.31-4.87,4-9.08,6.52-13.33.2-.33,1.41-.26,2.05-.06s.8,1,.42,1.6c-.81,1.34-1.8,2.58-2.48,4a21.33,21.33,0,0,0-1.41,4.17c-.41,1.63,1.24,2.72,2.52,3.06a3.17,3.17,0,0,0,3.75-2.27,32.13,32.13,0,0,1,1.43-3.84,2.77,2.77,0,0,1,1.6-1.44c.48-.09,1.23.56,1.66,1.06s.26,1.35-.14,2.07a38.75,38.75,0,0,0-2.19,4.37A2.6,2.6,0,0,0,26.42,72c1.43.77,3,1.37,4.46,2a2.35,2.35,0,0,0,2.93-.93A15.28,15.28,0,0,0,37,65.24a3.16,3.16,0,0,1,.14-.68c.45-1.47,1-2,1.86-1.59a2.16,2.16,0,0,1,1.33,2.83c-2,4.49-4.12,9-6.25,13.43C33.78,79.77,33.17,80.15,32.64,80.68Z" fill="#fff"/><path d="M122.79,301.3a2.86,2.86,0,0,1,1,3,2.71,2.71,0,0,1-2.26,2.06,17.52,17.52,0,0,1-8.78-.24,14.56,14.56,0,0,1-7.23-4.64,11.4,11.4,0,0,1-2.54-5.6,14.77,14.77,0,0,1,.61-8.14,10.65,10.65,0,0,1,6.48-6.42c1-.36,2-.58,3-1,2-.84,3.84-.3,5.72.27a7.23,7.23,0,0,1,4.42,3.1,3.27,3.27,0,0,1-.72,4.28c-.88.61-1.91.26-2.73-.79a9.13,9.13,0,0,0-2.21-2.37,6,6,0,0,0-7.71,1.81,10.53,10.53,0,0,0-2.07,6.15,9.84,9.84,0,0,0,4.43,8.39,9.55,9.55,0,0,0,7.65,1.7A12.61,12.61,0,0,0,122.79,301.3Z" fill="#fff"/><path d="M51,260.67a10.71,10.71,0,0,1-.8,2,2.55,2.55,0,0,1-4.39-.26,1.05,1.05,0,0,1,0-.72,14.1,14.1,0,0,1,.7-2.11c.92-2-.85-4.79-2.55-5.53-3.57-1.53-6.5-.67-9.29,1.77a13.4,13.4,0,0,0-3.95,5.85,7.57,7.57,0,0,0,3.88,9.48c.31.16.72.25.92.5.37.46.95,1.1.85,1.52a2.23,2.23,0,0,1-1.5,1.74c-2.07.76-3.24-.41-4.16-1.72a22.75,22.75,0,0,1-3.6-6.26c-1.47-4.95-1.43-10.13,3.4-14.28a21.43,21.43,0,0,1,7-3.76c3.17-1.11,5.88.1,8.39,1.72C49.35,252.82,50.58,256.34,51,260.67Z" fill="#fff"/><path d="M235.44,228.09c-.86-.68-1.74-1.28-2.52-2-2.91-2.63-5.7-5.41-8.71-7.91a12.76,12.76,0,0,0-6.39-2.41c-.7-.1-1.41-.12-2.1-.28a2,2,0,0,1-1.47-2.69,3.41,3.41,0,0,1,.1-.46c1.17-2.43,1.3-2.68,4-1.66a29.33,29.33,0,0,0,6.36,1.87c1.39.19,2.9-.48,4.35-.78,2-.42,4.06-.8,6.07-1.3a24.88,24.88,0,0,0,3.53-1.2,1.11,1.11,0,0,1,1.48.5,4.11,4.11,0,0,1-.43,4.67,2.16,2.16,0,0,1-1.44.35,16.69,16.69,0,0,0-6.61,1,4.6,4.6,0,0,0-1.78,1.05,1.67,1.67,0,0,0,0,1.54c1,1.83,2.83,2.79,4.53,3.84a7.8,7.8,0,0,1,1.35.7c.46.42,1.15,1,1.1,1.49C236.64,225.63,236.76,227,235.44,228.09Z" fill="#fff"/><path d="M6.83,202.2a2.09,2.09,0,0,1,1.09,2.33,9.88,9.88,0,0,0,0,1.44c.08,2.72.88,3.31,3.34,3.29a42.16,42.16,0,0,0,6.32-.71c2.51-.4,5-.9,7.49-1.41,1.06-.23,2.09-.61,3.13-.92s1.73-.12,2,1.09a12.33,12.33,0,0,1,.28,2.57c0,.84-.19,1.53-1.33,1.69-4.46.62-8.91,1.35-13.35,2.07a35,35,0,0,0-3.67.73c-2,.51-2.72,1.73-2.24,3.88a14,14,0,0,0,.49,1.93c.35.93.33,1.59-.81,1.88a1.93,1.93,0,0,1-2.35-1,54.53,54.53,0,0,1-1.62-6.21c-.49-3-.67-6.11-1-9.16A3,3,0,0,1,6.83,202.2Z" fill="#fff"/><path d="M184.58,15a23.74,23.74,0,0,1,3.07,1.52c1.45,1,1.52,1.78,1.11,3.5a28.94,28.94,0,0,0-.81,5c-.1,1.68,1.07,3.07,2.43,2.84a7.16,7.16,0,0,0,2.92-1.42c1-.76,1.79-1.82,2.75-2.65.57-.48,1.34-1.1,2-1a2.49,2.49,0,0,1,2.27,1.74c.1.42-.39,1.18-.83,1.48-2.72,1.91-5.52,3.7-8.26,5.58-2,1.39-4.27,2.51-5.46,4.84q-1.14,2.19-2.33,4.35c-.58,1.08-1.44,1-2.4.55-1.71-.85-2.26-1.55-1.75-2.66a29,29,0,0,1,2.1-3.77,12.36,12.36,0,0,0,2.27-7.27c-.08-2.9.06-5.81.23-8.7A29.62,29.62,0,0,1,184.58,15Z" fill="#fff"/><path d="M217.9,43.48a29.91,29.91,0,0,1,2.18,2.76,1.54,1.54,0,0,1-.77,2.42c-3.26,1.63-6.57,3.17-9.76,4.92-2,1.1-4.24,1.75-6,3.34a2.64,2.64,0,0,0-.88,2.8,11.26,11.26,0,0,0,3.71,6.4c.61.57,1.52,1.12.77,2.16a2.48,2.48,0,0,1-3.23.12,11,11,0,0,1-1.79-2.33c-1.42-2.56-2.77-5.17-4.11-7.79a5.32,5.32,0,0,1-.81-2.4,2.51,2.51,0,0,1,1.29-1.67c2.2-1.11,4.55-1.91,6.71-3.09,3.91-2.14,7.72-4.45,11.57-6.7A14,14,0,0,0,217.9,43.48Z" fill="#fff"/><path d="M82.44,301.09c.26-.87.43-1.51.65-2.14,1.09-3.24,2.31-6.45,3.26-9.74s1.67-6.74,2.43-10.13a1.92,1.92,0,0,1,2.52-1.61l.33.1c3,1,3.16,1.76,1.92,4.67a62.83,62.83,0,0,0-2.18,6.9c-.9,3-1.79,6.06-2.61,9.11a27.11,27.11,0,0,0-.45,3.13,1.67,1.67,0,0,1-2.3,1.56,13.75,13.75,0,0,1-2.55-.8C83,301.94,82.74,301.41,82.44,301.09Z" fill="#fff"/><path d="M232.67,73.89a1.49,1.49,0,0,1-1.38,1.71c-5.8.92-11.06,3.52-16.55,5.37a8.29,8.29,0,0,0-2.43,1.61c-1,.83-1.8.87-2.56-.14a9.74,9.74,0,0,1-1.14-1.91,1.86,1.86,0,0,1,1.23-2.67q5.73-2,11.46-4c2-.7,4-1.32,6-2a9.46,9.46,0,0,0,1.72-1c1.39-.88,2.34-.65,3,.85A16.73,16.73,0,0,1,232.67,73.89Z" fill="#fff"/><path d="M24.56,229.48a30.06,30.06,0,0,1,3.24,1.32c1,.55,2.12,1.13,1.51,2.73-.33.85-.27,1.85-.54,2.74a2,2,0,0,1-2.36,1.6c-1.33-.14-3.75-2-3.75-3.28a11.85,11.85,0,0,1,.92-3.56A8.92,8.92,0,0,1,24.56,229.48Z" fill="#fff"/><path d="M221.75,236.78c.08,1.69-2,2.66-3.79,2.73s-2.61-1.63-2.82-3.95c-.12-1.44,2-2.91,4-3C220.32,232.57,221.75,234.86,221.75,236.78Z" fill="#fff"/></svg>