<svg id="9176d5de-a930-4275-8dc1-d8932498e2ed" data-name="Layer 1"
xmlns="http://www.w3.org/2000/svg" viewBox="0 0 92
56"><title>ondeck-logo</title>
<path
d="M63.3.51H51a1,1,0,0,0-1,1v3a1,1,0,0,0,.28.68,32.84,32.84,0,0,1,0,45.53,1,1,0,0,0-.28.68v3.12a1,1,0,0,0,1,1H64.07a27.43,27.43,0,0,0,27.34-27.1C91.63,13.07,78.64.51,63.3.51Z"
fill="#252133"/>
<path
d="M54.46,27.92A27.67,27.67,0,0,0,50,12.8,26.79,26.79,0,0,0,27.56.49a27.19,27.19,0,0,0-27,27.43c0,15.19,12.09,27.5,27,27.5A26.76,26.76,0,0,0,50,43.06,27.79,27.79,0,0,0,54.46,27.92ZM35.87,43a2.57,2.57,0,0,1-3.56-.76L25.38,31.52h0V10.08a2.58,2.58,0,0,1,5.15,0V30l6.1,9.44A2.57,2.57,0,0,1,35.87,43Z"
fill="#252133"/></svg>
