<svg id="2ebdef51-e168-4f36-a99e-1f2eb4a6acbe" data-name="Layer 1" xmlns="http://www.w3.org/2000/svg" viewBox="0 0 115.2 108"><title>peets</title><path d="M72.06,1.16c.07,0,.14.12.21.13h.79a11.27,11.27,0,0,1,3.79.8,8,8,0,0,1,3.08,2.13A10.43,10.43,0,0,1,82.5,9.35a14.24,14.24,0,0,1,.22,4.06,9.52,9.52,0,0,1-2.1,5.39,9.58,9.58,0,0,1-3.83,2.78,21.92,21.92,0,0,1-2.7.8c-.5.13-1,.08-1.55.19a14.81,14.81,0,0,1-2.33.14c0,.19,0,.37,0,.55,0,1.54,0,3.09,0,4.63,0,.92-.37,1.31-1.29,1.32H50.17c-.26,0-.53,0-.79,0a1.11,1.11,0,0,1-1.18-1.15c0-.15,0-.29,0-.44q0-12.13,0-24.27a2.83,2.83,0,0,1,.11-.92A1.68,1.68,0,0,1,49.88,1.3c.12,0,.3.07.35-.14ZM71.23,16.1c.44-.06.89-.1,1.33-.2a3.53,3.53,0,0,0,2.77-2.37,4.31,4.31,0,0,0-.21-3.32,3.18,3.18,0,0,0-1.85-1.78A6.43,6.43,0,0,0,71,8.11c-.61,0-.79.21-.79.83,0,2,0,4,0,6.05C70.16,16.15,70.18,16.07,71.23,16.1ZM58.64,12.23c-.27-.27-.49-.46-.67-.68-.64-.77-1.27-1.55-1.91-2.31S54.74,7.72,54.1,7c-.87-1-1.72-2.09-2.6-3.13a4.06,4.06,0,0,0-.63-.5c-.64.22-.74.27-.59,1.14L52.49,7c.36.41.73.82,1.09,1.24l2.22,2.61c.6.71,1.2,1.42,1.82,2.12a1.55,1.55,0,0,0,.61.48A1.24,1.24,0,0,0,59.57,13c.5-.61,1-1.2,1.53-1.8.3-.37.6-.74.87-1.13s.17-.55,0-.7a.63.63,0,0,0-.79,0,7.31,7.31,0,0,0-.52.59Zm-.07,5.95c.38.48.72.88,1,1.29.46.58.9,1.17,1.37,1.74a1,1,0,0,0,.45.32.54.54,0,0,0,.6-.29.53.53,0,0,0-.05-.6L60.6,18.83c-.35-.45-.71-.9-1.05-1.35a.89.89,0,0,0-1.48-.09c-.64.59-1.24,1.21-1.82,1.85-1,1.1-2,2.23-3,3.33-.83.92-1.7,1.82-2.55,2.73a1,1,0,0,0-.24.35,1.3,1.3,0,0,0-.13.54.5.5,0,0,0,.79.43,1.53,1.53,0,0,0,.45-.34c.29-.32.56-.65.84-1,1-1.15,1.92-2.31,2.89-3.46.43-.51.89-1,1.33-1.5Zm-8.37,2.5c.54.57.73.58,1.15.1.28-.32.56-.66.83-1l2.11-2.52c.5-.61,1-1.2,1.51-1.81a.67.67,0,0,0,0-1c-.1-.13-.24-.24-.35-.37l-.8-.91c-.55-.66-1.09-1.32-1.65-2S52,10,51.47,9.44A2.18,2.18,0,0,0,50.91,9a.52.52,0,0,0-.65.14c-.24.27-.24.49.09.88s.79.9,1.2,1.33,1,1,1.4,1.46,1,1.3,1.56,1.95c.26.31.3.33,0,.66-.77.94-1.56,1.86-2.36,2.79-.45.52-.93,1-1.38,1.55A9.77,9.77,0,0,0,50.2,20.68Zm8.54,2.79c.58.82,1.08,1.55,1.62,2.27a6,6,0,0,0,.88,1c.28.25.45.19.68,0a.48.48,0,0,0,0-.7l-2.51-3.36a.89.89,0,0,0-1-.34,2,2,0,0,0-.89.57c-.79.88-1.54,1.81-2.32,2.71a1.3,1.3,0,0,0-.39.89.52.52,0,0,0,.79.47,1.45,1.45,0,0,0,.45-.33c.43-.48.83-1,1.25-1.47S58.22,24.08,58.74,23.47Zm2.95-20A4.65,4.65,0,0,0,61.1,4c-.58.64-1.12,1.3-1.7,1.94a3.22,3.22,0,0,1-.88.79L57.05,5c-.32-.36-.64-.72-.93-1.09a.77.77,0,0,0-.91-.28L55,4.1l.94,1.09c.43.51.86,1,1.28,1.54.21.25.41.53.63.78a1.13,1.13,0,0,0,1.65-.06c.54-.58,1.06-1.17,1.58-1.77.36-.41.7-.84,1-1.28s.2-.55-.19-.8Z" fill="#fff"/><path d="M111.81,51.17a3.48,3.48,0,0,0-.73,2.23c0,.68,0,1.35,0,2a1.23,1.23,0,0,0,0,.43,2.85,2.85,0,0,1-.2,2.07,1.68,1.68,0,0,1-1.36,1,1.88,1.88,0,0,1-2.12-1.06,9.08,9.08,0,0,1-.55-1.82,5.12,5.12,0,0,0-.61-1.57,3.33,3.33,0,0,0-2.7-1.45A4.92,4.92,0,0,0,100,54.3a2.19,2.19,0,0,0-.76,1.55,5,5,0,0,0,.66,2.66,17.1,17.1,0,0,0,2.69,4.17c.84.93,1.71,1.82,2.57,2.72s1.94,1.95,2.83,3a13,13,0,0,1,2.86,5.1,8.71,8.71,0,0,1,.28,2A9.37,9.37,0,0,1,110,80a11.52,11.52,0,0,1-3.64,4.17,8.88,8.88,0,0,1-3.75,1.58,8.34,8.34,0,0,1-5-.35,8,8,0,0,1-4.82-5,6.91,6.91,0,0,1-.27-2.89,2.25,2.25,0,0,1,1.11-1.74,1.65,1.65,0,0,1,2.18.53,4.33,4.33,0,0,1,.73,1.9A7,7,0,0,0,97.65,81a4.71,4.71,0,0,0,3,2,3.84,3.84,0,0,0,3.52-1,3.79,3.79,0,0,0,1.11-2.32,7.45,7.45,0,0,0-1.23-4.8,25.33,25.33,0,0,0-3-4C100,69.68,99,68.51,98,67.29a20.72,20.72,0,0,1-2.69-4.1,9.3,9.3,0,0,1-.92-5.25,9.19,9.19,0,0,1,2.09-4.81,10.06,10.06,0,0,1,3.42-2.63,8,8,0,0,1,3.35-.8,9.68,9.68,0,0,1,5.31,1.55.84.84,0,0,0,.19.09l.51.29c.23-.31.44-.62.67-.91a1.33,1.33,0,0,1,.76-.5c.41-.1.78-.12,1,.38,0,.06.09.09.14.14Z" fill="#fff"/><path d="M11.54,85.66c0-.47.09-.92.09-1.37q0-13.87,0-27.74c-.26-3.77-.08-7.54-.12-11.32s0-7.51,0-11.27V33.4h-.6c-1.1,0-2.21,0-3.32,0a14.84,14.84,0,0,1-2.21-.16,2.45,2.45,0,0,1-1.92-1.61,1.83,1.83,0,0,1,.7-1.89,1.41,1.41,0,0,1,1.09-.19,1.3,1.3,0,0,0,.34.08c.83.06,1.67.06,2.5.18a33.07,33.07,0,0,0,5.17.11c.88,0,1.76-.09,2.64-.17a10.87,10.87,0,0,0,1.63-.13c.85-.2,1.72,0,2.55-.25h.07c1.7,0,3.4-.27,5.1-.14a19.17,19.17,0,0,1,4.93.86,12.86,12.86,0,0,1,4,2.15,13.18,13.18,0,0,1,3.67,5.18A18.76,18.76,0,0,1,38.62,40c.08.32.13.65.18,1A17.51,17.51,0,0,1,38.93,45a19.08,19.08,0,0,1-1.3,5.47,22.66,22.66,0,0,1-1.45,2.92,19.61,19.61,0,0,1-2.29,3.09,22,22,0,0,1-4.89,4,21.7,21.7,0,0,1-4.46,2.12,16.42,16.42,0,0,1-2.4.57c-.55.09-1.09.09-1.64.13s-.94.08-1.41.13a.57.57,0,0,0-.5.52c0,.09,0,.19,0,.28,0,2.31-.12,4.61-.14,6.91s-.06,4.58,0,6.86c.07,1.85.09,3.69.14,5.54A11.88,11.88,0,0,0,18.85,85c0,.31.22.36.48.42a11,11,0,0,0,2.36.13c.39,0,.81.36.75.71s-.18,1-.68,1.17a1.31,1.31,0,0,1-.54.14,3.43,3.43,0,0,1-1.35-.11,1,1,0,0,0-.43,0c-1.63,0-3.26-.17-4.88-.12s-3.17.07-4.74.15c-.5,0-1,.11-1.49.1a2.57,2.57,0,0,1-.55-.12c-.47-.16-.62-.36-.62-.81s.16-.62.62-.82a2.43,2.43,0,0,1,1.48-.08A5.08,5.08,0,0,0,11.54,85.66Zm7.59-24.53a4.89,4.89,0,0,0,2.13-.33,14.59,14.59,0,0,0,6.06-3.57c.37-.35.67-.76,1-1.12a13.13,13.13,0,0,0,1.92-2.82A18.38,18.38,0,0,0,32,48.82a14.74,14.74,0,0,0,.49-3.36V43.94a10.55,10.55,0,0,0-.59-3.56,9.17,9.17,0,0,0-1.73-3.15,10.56,10.56,0,0,0-3.86-2.88A11.9,11.9,0,0,0,22,33.23c-.12,0-.23,0-.35,0a3.62,3.62,0,0,0-.92-.06,8.79,8.79,0,0,1-1.35.12,1.08,1.08,0,0,0-1.08,1.09c0,.49,0,1,0,1.45s-.05,1,0,1.46c.08,1.41,0,2.82.13,4.24.16,2.25,0,4.5.14,6.76.12,2.86,0,5.73,0,8.6a1.43,1.43,0,0,1,0,.36,10.07,10.07,0,0,0-.1,2.57A1.36,1.36,0,0,0,19.13,61.13Z" fill="#fff"/><path d="M90,83.55h.57a.84.84,0,0,1,.76.72,2.13,2.13,0,0,1-.35,1.49,11,11,0,0,1-3.06,3.16A6.42,6.42,0,0,1,84,90a4.7,4.7,0,0,1-3-1.25A7.76,7.76,0,0,1,78.86,85a21.27,21.27,0,0,1-.61-3.26c-.13-1.06-.25-2.12-.28-3.19a6,6,0,0,0-.09-1.64c-.08-.25.08-.55.09-.83,0-.82,0-1.64,0-2.46,0-1,.05-2.06.17-3.07a17.08,17.08,0,0,1,.15-1.78,20.21,20.21,0,0,1,.24-2.33s0-.05,0-.07c.06-.93.07-1.86.18-2.79s0-1.82.16-2.71.06-1.72.12-2.57c0-.62.11-1.23.17-1.88a1.87,1.87,0,0,0-.75,0,9.51,9.51,0,0,1-3.05.22,1.32,1.32,0,0,1-1.3-1.34,1.12,1.12,0,0,1,1.06-1.11c.66-.1,1.32-.11,2-.25a18.18,18.18,0,0,1,2-.19,10.62,10.62,0,0,0,.11-1.85A20.9,20.9,0,0,0,79,49.29,11.68,11.68,0,0,1,78.86,48a16.2,16.2,0,0,0-.72-3.3,3,3,0,0,0-1.36-1.74A3.1,3.1,0,0,1,76,42.3c-.41-.48-.43-.64,0-1.18a1.81,1.81,0,0,1,1.53-.62,10.44,10.44,0,0,1,5.18,1.25,3.42,3.42,0,0,1,1.25,1.42,8.69,8.69,0,0,1,1.15,3.54c.1.94.27,1.86.4,2.8a3.09,3.09,0,0,1,0,.43v3.22a2.29,2.29,0,0,0,.44,0,8.13,8.13,0,0,0,.84-.13c.72-.14,1.47-.07,2.18-.27h.14L92,52.61a5.36,5.36,0,0,0,.7-.1,2.24,2.24,0,0,1,1.37.26c.4.19.43.6.42,1a2.78,2.78,0,0,1-.19.74,1.73,1.73,0,0,1-1.55,1.16,14.36,14.36,0,0,1-2.93.14c-.81,0-1.62-.11-2.43-.12-.59,0-1.18.08-1.78.13-.27,0-.34.2-.34.45a16.81,16.81,0,0,1,0,1.88c-.11,1,0,2-.16,3.07-.06.57-.07,1.14-.12,1.71s-.09.89-.13,1.34a3.62,3.62,0,0,1-.13,1.27s0,.1,0,.15c0,1.07,0,2.15-.18,3.22s0,2.06-.15,3.07a33.75,33.75,0,0,0-.07,4.82,20.56,20.56,0,0,0,.13,2.35,29.09,29.09,0,0,0,.54,3.71,3.71,3.71,0,0,0,1.2,2,2,2,0,0,0,2.78-.1C89.27,84.31,89.63,83.89,90,83.55Z" fill="#fff"/><path d="M31.44,69.66c-.37-.24-.73-.52-1.12-.73a1.64,1.64,0,0,1-.7-.86.42.42,0,0,1,.11-.52,1,1,0,0,1,.76-.32h.94a.58.58,0,0,0,.59-.51c.1-.6.22-1.21.28-1.81a11.93,11.93,0,0,1,.92-3.54,16.17,16.17,0,0,1,1.84-3.52A14.07,14.07,0,0,1,41,53a7.45,7.45,0,0,1,3.39-.63,5.73,5.73,0,0,1,3.66,1.53,7.16,7.16,0,0,1,1.41,2,17,17,0,0,1,.93,2.44A17.6,17.6,0,0,1,51,61a23.7,23.7,0,0,1,.1,3.95,6.87,6.87,0,0,1-.43,2.28,2.06,2.06,0,0,1-2,1.46c-1,.09-2,.06-2.93.18s-1.73,0-2.57.15-1.73,0-2.58.14-1.48,0-2.21.14-1,.19-1,1.06a18.74,18.74,0,0,0,.4,3.81,24.74,24.74,0,0,0,1.06,3.72,7.85,7.85,0,0,0,2,3.12,4.45,4.45,0,0,0,5,.9A6.78,6.78,0,0,0,48,80.43a18.73,18.73,0,0,0,2.46-2.88,2.52,2.52,0,0,1,.5-.53c.15-.11.3-.28.56-.15s.48.26.48.55a2.62,2.62,0,0,1-.1.84,12.2,12.2,0,0,1-2.26,4A11.81,11.81,0,0,1,47,84.68a10.75,10.75,0,0,1-4,1.79,8.74,8.74,0,0,1-2.79.08A8.13,8.13,0,0,1,36.46,85a11.34,11.34,0,0,1-3.28-3.74,16.59,16.59,0,0,1-1.42-4c-.12-.46-.1-.95-.18-1.41a17.85,17.85,0,0,1-.14-3Zm13.73-7.08c0-.65,0-1.3,0-1.94a18.13,18.13,0,0,0-.28-2,8.68,8.68,0,0,0-.46-1.77,1.59,1.59,0,0,0-2.5-.82,4.17,4.17,0,0,0-1.28,1.23A12.14,12.14,0,0,0,39.32,60,22.12,22.12,0,0,0,38,65.86a2.18,2.18,0,0,0,0,.57.34.34,0,0,0,.37.36h.5c.84,0,1.67,0,2.5-.12s1.76,0,2.64-.17c.44-.08.83-.22.93-.73a13.39,13.39,0,0,0,.26-1.38C45.21,63.79,45.17,63.18,45.17,62.58Z" fill="#fff"/><path d="M53.71,70.66a8.6,8.6,0,0,1,0-1.59,16.48,16.48,0,0,0,.13-2.21,1.22,1.22,0,0,0-.7-1.29,2.77,2.77,0,0,1-.52-.38c-.44-.38-.34-.8.19-1a2.22,2.22,0,0,1,.76-.14c.66,0,.87-.24,1-.87A31.49,31.49,0,0,1,56,57.65a15.69,15.69,0,0,1,2.61-4.54,10,10,0,0,1,5.67-3.46,6.71,6.71,0,0,1,2.61-.11,9.72,9.72,0,0,1,2.56.77A6.14,6.14,0,0,1,72.18,53a11.76,11.76,0,0,1,1.2,3.75,15.32,15.32,0,0,1,.28,2.61c0,.18.13.37.11.55a14.56,14.56,0,0,1-.5,3.93,2.9,2.9,0,0,1-2,1.8,6.73,6.73,0,0,1-1.34.17c-1.39.14-2.78,0-4.16.16-.74.06-1.48,0-2.21.13a22.16,22.16,0,0,1-2.29.14,4.08,4.08,0,0,0-1,.15.9.9,0,0,0-.46.4,1.44,1.44,0,0,0-.15.68,12.44,12.44,0,0,0,.1,2.36c.1.48.08,1,.16,1.49A13.59,13.59,0,0,0,62,76.89a5,5,0,0,0,3,2.21,2.91,2.91,0,0,0,1.93.13,6.13,6.13,0,0,0,4.35-2.68c.52-.65,1-1.33,1.51-2a1.59,1.59,0,0,1,.29-.29.8.8,0,0,1,1.35.55A1.69,1.69,0,0,1,74.18,76c-.48.73-.93,1.49-1.46,2.18a18.38,18.38,0,0,1-1.79,2,14,14,0,0,1-3.39,2.47,9.16,9.16,0,0,1-5.31,1,8,8,0,0,1-3.82-1.58,10.24,10.24,0,0,1-3.1-3.6,13,13,0,0,1-1.2-3.38A17.84,17.84,0,0,1,53.71,70.66Zm10-6.77h0c.86,0,1.73,0,2.59,0a3.18,3.18,0,0,0,.76-.13.62.62,0,0,0,.48-.63c0-.72.12-1.43.12-2.14a22,22,0,0,0-.08-2.43c-.09-.89-.16-1.79-.33-2.67a6,6,0,0,0-.71-2.06,2,2,0,0,0-1.14-1,2.13,2.13,0,0,0-2.22.67,7.43,7.43,0,0,0-1.27,2,28.25,28.25,0,0,0-1.52,4.75A13.3,13.3,0,0,0,60.05,63c0,.66.1.79.74.9a3.09,3.09,0,0,0,.43,0Z" fill="#fff"/><path d="M39.82,101.79a5,5,0,0,1,5-5,5,5,0,0,1,4.92,5,5,5,0,1,1-10-.09Zm5,2.86a2.84,2.84,0,0,0,2.78-2.79,2.73,2.73,0,0,0-2.73-2.81c-1.76,0-2.63,1.18-2.85,2.75A2.92,2.92,0,0,0,44.8,104.65Z" fill="#fff"/><path d="M75.4,99c0,.5,0,.91,0,1.32s.09.41.43.42c.79,0,1.59,0,2.38,0h.64c0,.59,0,1.13,0,1.68,0,.26-.12.34-.44.34-.74,0-1.49,0-2.24,0H75.4c0,.52,0,1,0,1.46s.09.42.43.42h2.89c.85,0,.87,0,.85.89,0,.26,0,.53,0,.79a.33.33,0,0,1-.37.35H73.71l-.34,0a3.93,3.93,0,0,1-.13-.75q0-4.08,0-8.16a4.21,4.21,0,0,1,.14-.76h5.69c.43,0,.49.07.5.51s0,.72,0,1.08-.1.43-.43.43H75.4Z" fill="#fff"/><path d="M89.66,106.68H84.05c-.52,0-.57-.05-.57-.58V97.22a.89.89,0,0,1,0-.14A51.68,51.68,0,0,1,89.65,97,15.48,15.48,0,0,1,89.71,99a13.83,13.83,0,0,1-2,.05h-2a12.46,12.46,0,0,0,0,1.74h2.93c.47,0,.52.07.53.54s0,.68,0,1-.09.46-.46.46c-.85,0-1.69,0-2.53,0h-.44v1.88h4Z" fill="#fff"/><path d="M36.91,98.39l-1.35,1.34c-.18-.12-.34-.25-.53-.36a2.73,2.73,0,0,0-4.2,1.83,2.82,2.82,0,0,0,.53,2.32,2.7,2.7,0,0,0,1.5,1,2.62,2.62,0,0,0,2.21-.39c.51-.3.52-.32.91.09a3.71,3.71,0,0,1,.92,1.09,4.71,4.71,0,0,1-5.71,1,4.8,4.8,0,0,1-2.76-5,4.93,4.93,0,0,1,4.14-4.44,4.66,4.66,0,0,1,3.06.42A2.73,2.73,0,0,1,36.91,98.39Z" fill="#fff"/><path d="M65.55,103.06c0,1.06,0,2,0,3,0,.45-.12.63-.56.6s-.77,0-1.16,0-.42-.1-.45-.41V97.75a3.23,3.23,0,0,1,0-.44.32.32,0,0,1,.32-.32h5.34c.65,0,.68,0,.66.7,0,.44.14.92-.23,1.33h-3.9v2h1.48c.5,0,1,0,1.52,0,.34,0,.41.09.42.43a11,11,0,0,1,0,1.15c0,.34-.09.43-.42.44h-3Z" fill="#fff"/><path d="M55.72,103.06v3c0,.56,0,.59-.62.6H53.66c-.15-.58-.2-6.53-.09-9.58a46,46,0,0,1,6.17,0v2h-4v2H59a2.39,2.39,0,0,1,0,2Z" fill="#fff"/><path d="M93.74,47.93v-.87a2.62,2.62,0,0,1,1.66-2.5,4.1,4.1,0,0,1,1.77-.41,1.68,1.68,0,0,1,1.56.68,1.93,1.93,0,0,1,.16,1.52,6.61,6.61,0,0,1-1.76,3.25c-.31.33-.64.63-.95.95a3.12,3.12,0,0,1-1.18.78c-.39.16-.65.1-.8-.27A4.44,4.44,0,0,1,93.9,50c-.1-.68-.15-1.36-.22-2Z" fill="#fff"/><path d="M94.74,98.91c0-.27.11-.54.05-.8a1.15,1.15,0,0,0-1.41-.94,1.18,1.18,0,0,0-.74,1.54c0,.11.06.23.1.34-.52-.31-.33-.83-.26-1.23a1,1,0,0,1,.88-.82A1.38,1.38,0,0,1,95,98.09.77.77,0,0,1,94.74,98.91Z" fill="#fff"/><path d="M93.17,97.58h.38c.66,0,.76.19.47.87l.29.4c-.11,0-.2,0-.24,0s-.31-.28-.52-.47l-.2.53c-.09,0-.16-.07-.16-.09,0-.22,0-.43,0-.65Z" fill="#fff"/></svg>