<svg id="cab43e3d-8785-4c88-aea7-cea0dd320e55" data-name="Layer 1" xmlns="http://www.w3.org/2000/svg" viewBox="0 0 1044.1 205.1"><title>were-back</title><path d="M57.7,123.1a7.49,7.49,0,0,0,1.92-2.19c1.37-3.29,3.29-6.31,4.66-9.32C68.11,103.91,72,96.51,75,88.83c2.74-6.3,5.76-12.61,7.13-19.19A29.16,29.16,0,0,1,87,60c.82-1.37,3.29-2.19,5.21-2.74,3.57-1.09,6,.28,9.05.55,2.47.27,4.66,1.37,6.85,1.92,2.47.55,4.94,1.1,4.94,4.11-.28,1.92.55,3,1.64,4.39.83.82.28,2.74,0,3.84,0,1.37-.82,2.46.28,3,.55.28.27,1.1,0,1.65-1.37,3.84-1.92,8.22-4.39,12.06a26.05,26.05,0,0,0-3.29,7.68c-1.64,6.58-4.39,13.71-6.85,20.29C97.72,125,95.26,133,94.16,140.65c-13.16,55.93,18.37,3.29,28.24-19.74l4.94-11c2.46-6.3,5.2-12.88,7.12-18.92,2.75-8.77,5.76-17.27,6.86-25.77a193.3,193.3,0,0,0,2.74-30.16l-.55-14a12.78,12.78,0,0,0-.82-4.66,3.71,3.71,0,0,0-4.11-1.64c-3,.54-3.84-1.1-4.39-2.75A44.69,44.69,0,0,1,132,6.58a4,4,0,0,1,.27-2.47l1.37-2.74L137.21,0c3.56,1.37,7.12,2.19,10.69,3.56a13.42,13.42,0,0,1,6.85,3.29l1.92.83c1.37.55,1.92,1.64,2.19,3.29s1.65,3.29,2.47,4.66a12,12,0,0,0,4.11,4.11c.83.27.83,1.37,1.1,2.19.55,1.92.82,3.57,2.74,4.66,1.65.83,2.2,3,1.37,5.49a2.91,2.91,0,0,0,.83,3,7,7,0,0,1,1.64,4.66c-.27,1.92,1.37,3.29.82,5.49-.54,1.09-.27,2.19-.82,3.29-.27,1.09-.55,1.92,0,2.74a1.82,1.82,0,0,1,.28,1.65c-1.38,1.91-.28,2.74-.28,4.11.55,1.64.28,3.56.28,5.48a24.53,24.53,0,0,1-.28,4.66,28.9,28.9,0,0,1-.55,6.86c-.82,3-2.19,6-2.74,9L169,85c-2.19,3.57-2.47,7.13-4.11,11.52l-1.37-5.21c-.55.82-1.38,1.37-1.38,1.92-.54,6-3.56,12.06-5.75,18.09a3.12,3.12,0,0,1-.83,1.65c-3.29,1.64-3.29,4.38-3.83,6.58a9.06,9.06,0,0,1-3.29,5.48c-1.65,1.65-3.57,3.84-4.12,6.31a25.14,25.14,0,0,1-1.64,4.11l-5.21,8.77c-3.56,5.76-6.85,11.52-11,17.28-4.66,6.58-10.14,13.43-15.62,20-3.29,4.39-8,7.13-13.17,6.58a7.4,7.4,0,0,0-2.46.28,15,15,0,0,1-7.13-.83c-4.11-1.92-8.77-3.84-11.52-7.4a12.66,12.66,0,0,1-2.74-4.93c-1.09-25.5,1.1-31.81-20.56-4.94-1.92,1.37-3.29,3-4.94,4.11-6,4.94-12.61,7.41-19.74,9.6H26.44L13,184.52c-3.84.27-6.86-.28-9.33-2.2a6.2,6.2,0,0,1-2.74-4.11,57.86,57.86,0,0,1,.83-24.67C4,145.31,6.7,137.36,8.62,129.68c4.11-14.25,7.68-28.51,12.61-42.77,2.47-7.4,3.29-15.08,4.94-22.48,1.37-6.31,2.46-12.34,2.19-18.1A3,3,0,0,1,28.63,45a43.12,43.12,0,0,1,8.23-1.09c2.47-.28,3.84.82,4.11,3a5.6,5.6,0,0,0,.82,3c1.65,4.11,1.1,8.5.28,13.43-1.65,7.41-3,14.81-4.39,22.21-1.37,6.31-2.19,12.89-3.29,19.47-.55,3.29-.55,6.85-.82,10.42A56,56,0,0,1,33.3,122c-6,39.48,5.2,35.91,20.83,4.93C55.23,125.3,56.05,123.92,57.7,123.1ZM141.87,74c-1.37,3.29-2.2,7.12-3.29,10.69s-1.65,6.85-2.75,10.42h1.1c4.39-10.7,6.31-21.11,7.95-31.81C143,66.9,143,70.46,141.87,74ZM146.8,48.8a1.68,1.68,0,0,1,1.1-.27c1.37-1.65.82-2.74.82-4.39,0-1.37.27-3,.27-4.39s-.27-2.74-.27-4.11h-.27Zm20.84,35.64c0-1.37.27-3.29.27-4.93-1.37,1.1-1.37,1.1-.82,4.93Z" fill="#fff"/><path d="M192.31,120.91a1.8,1.8,0,0,1-1.09,1.37,1.7,1.7,0,0,0-.83,1.37c-.27,1.1-.54,1.37-1.37,1.65-.54.27-.54.54-.82,2.19.55,0,.82,0,1.1.27V128h-1.92a7,7,0,0,0,.27-2.2h-.55l-.82,5.76c.55.28.82.55,1.1.55a37.26,37.26,0,0,1,.27,5.48,13.08,13.08,0,0,0,1.1,4.94c.82,1.1,3,7.13,3.84,8.22,3.84,3.84,8.5,8.78,12.88,9.05,1.38.28,9.33-1.1,10.7-1.37a58,58,0,0,0,18.92-10.14c4.66-3.57,9-7.68,13.7-11.52l.83-.82,4.93-5.49a68.78,68.78,0,0,0,8.23-9.59c.82-1.37,1.64-2.74,3.29-3.29a28.43,28.43,0,0,1-2.2,6.85,5.87,5.87,0,0,1-1.37,2.2,28,28,0,0,0-4.11,5.75l-2.74,3.29-1.1,1.65,2.19-.82c-.27,1.64-1.64,1.92-1.91,3.29.27.27.27.55.82.82a16.14,16.14,0,0,1-2.74,3.29,37.3,37.3,0,0,0-4.66,4.66,63.92,63.92,0,0,1-8,7.13,35.94,35.94,0,0,1-3.83,3l-3.29,2.2a43.47,43.47,0,0,0-4.94,2.74,26.85,26.85,0,0,1-8.77,3.56l-2.47.83a42.53,42.53,0,0,1-9.87,1.92c-3.84.54-20-2.47-23.58-3.84-9.6-3.84-11.51-8.5-15.9-12.34a14.09,14.09,0,0,1-3.84-5.76c-1.37-3.56-1.64-7.4-1.92-11.51a57.85,57.85,0,0,1,5.76-24.4c.82-1.65.82-1.65.55-4.12-1.37.83-2.2,1.37-2.74,3a42,42,0,0,1-3.29,7.13c0-2.47,1.09-4.12,1.91-6a87.28,87.28,0,0,1,7.68-14A76,76,0,0,1,181.9,85.54a62.22,62.22,0,0,1,12.33-10.42L197,73.75c1.38-.55,2.75-.82,3.57.55.82.82,1.92.55,2.47,1.1.82.55,1.09,1.64,1.64,2.19,2.74,1.37,13.16,4.11,15.63,5.76a7,7,0,0,1,1.92,2.74c1.37,2.47,2.47,5.21,4.39,6.85a6.88,6.88,0,0,1,1.09,2.47,23.78,23.78,0,0,1,0,9.87A29.9,29.9,0,0,1,223.57,116a38.74,38.74,0,0,0-3,5.76,24.83,24.83,0,0,1-2.74,5.48,8,8,0,0,1-4.93,4.12,8.82,8.82,0,0,1-5.21.82c-.82-.27-1.65,0-2.2-1.1a.26.26,0,0,0-.27-.27c-2.19.27-3.56-2.19-5.21-3a2.9,2.9,0,0,1-.55-1.37c.55-1.09,0-1.64-.27-2.47-1.1-2.19-2.2-4.66-3.57-6.85-.27-.82-1.09-1.1-1.92-.27C193.41,118.17,192.31,119.26,192.31,120.91Zm-26,24.67.82,2.2c0,.82.82,1.37.27,2.47-.27-.28-.54-.28-.54-.55-1.37-2.74-1.92-6.31-2.47-9.87-.28-.28,0-.55,0-.83,0-4.11,0-7.95,1.1-12.06a8.06,8.06,0,0,0,.54-2.47v-1.92a20,20,0,0,0-1.64,3.84l-.82,3.84c-1.1,7.13-.83,13.71,2.19,19.47a21.17,21.17,0,0,0,2.19,3,4.39,4.39,0,0,0,1.92,1.1c0,.27.28,0,.82,0a27.8,27.8,0,0,1-2.19-3.84c-.82-1.64-.82-3.29-1.64-4.66A1,1,0,0,0,166.27,145.58Zm0-17.54c-1.37,4.38-1.1,8.5-.55,12.61,0,.27.27.27.55.55l.82-8.5c.27-1.92.55-3.84-.27-5.49C166.54,127.49,166.27,127.76,166.27,128Zm34.54-21.94-1.92,3c-1.09,1.92-.82,3.29.55,4.11a8.68,8.68,0,0,1,2.47,1.92c1.64,1.92,3.84,1.65,6,1.37,1.92-.55,3.29-2.47,4.39-4.38,1.92-4.67,3-5.49,4.66-10.15,4.39-10.42-4.39-7.95-8.5-4.66C205.47,99.52,203.28,103.09,200.81,106.1Z" fill="#fff"/><path d="M295.68,36.46a3.66,3.66,0,0,1,4.11-1.09,36.83,36.83,0,0,1,5.76,2.74,22.22,22.22,0,0,1,3.84,2.47c3.83,2.46,4.66,8.77,2.74,14a42.14,42.14,0,0,0-2.47,4.94c-.55.82-1.37,1.64-1.37,2.19a37.15,37.15,0,0,1-4.39,8,23.69,23.69,0,0,1-7.67,7.13,16.75,16.75,0,0,1-6,2.47h-.54c-1.1.27-2.75.54-3.57-.83-.27-1.09,1.1-2.46,1.92-3.56l6.58-10.42A4.43,4.43,0,0,0,296,62a5.24,5.24,0,0,0,.28-1.92c-.28-.82-1.37-.27-1.92,0a1,1,0,0,1-.83.28l-3.29-3.57c-.27-.82-1.09-1.09-1.64-1.64-2.74-3-3.56-6-.55-10.15l3-3.56a3,3,0,0,0,1.37-3.56C294,38.11,294.86,37.84,295.68,36.46Z" fill="#fff"/><path d="M361.2,129.68c1.1-4.11,10.7-23.58,12.62-26.87a71.44,71.44,0,0,0,4.66-7.67,47.69,47.69,0,0,0,4.38-6.86A6.41,6.41,0,0,1,387.25,85c1.92,0,3.56-.27,5.21-.27,3.29,0,5.21,2.47,6.85,6v1.1l1.92,11.24c.55,3.56.28,7.4.28,11a67.84,67.84,0,0,1,0,7.41c1.37.82,1.09,1.92,1.37,1.64.55-.55,2.47.28,3-.27l1.1-1.37a16.72,16.72,0,0,0,3.29-3c.82-1.37,1.65-1.37,2.74,0a2.48,2.48,0,0,1-1.09,2.19L411.1,122a2.87,2.87,0,0,1-1.64,1.91l-.82.83c-.28.27-.83.55-.83.82l-.82.55a3.84,3.84,0,0,1-3,1.37,5.29,5.29,0,0,0-2.46,1.1,1.69,1.69,0,0,1-2.2,0c-1.92-1.1-3.83-1.38-5.75-2.2-3.29-.82-5.76-3.84-7.13-7.67a33.25,33.25,0,0,1-.82-15.63c.54-2.47.54-4.66.82-6.86l.82-4.93a3.86,3.86,0,0,0,.27-3c-.27,0-.82-.27-.82.28l-1.09,1.37-3.84,6.85a13.09,13.09,0,0,0-1.65,4.94c.28,1.09-.55,1.92-.82,2.74A83.53,83.53,0,0,0,373,118.72c-1.37,3.83-3.29,7.12-4.93,11-2.47,5.76-5.48,11-7.4,17-.55,1.92-1.65,4.11-2.47,6.31-.55,1.64-7.4,14.8-9.05,16.17,0,.55-.82.83-1.37,1.37-3.29,4.67-7.13,4.39-11.51,3.29-.55.55-1.1,0-1.65-.54-4.39-1.1-6.58-5.21-7.68-10.7a83.11,83.11,0,0,1-.82-14.25c.28-7.13.55-14.26,1.1-21.39,1.37-8,.27-7.4,2.47-14.8,1.91-10.7.82-9,4.66-19.74.27-1.92,1.37-3.29,1.92-5.21,1.91-4.94,3.56-9.33,5.75-13.71,1.1-3.57,2.2-4.11,4.94-3.57A35.12,35.12,0,0,1,353.8,71a10.21,10.21,0,0,1,5.49,2.74c1.91,3.57,4.66,6,7.4,9.32,2.47,4.39,3,7.68,1.37,12.89-1.37,5.48-1.92,1.37-3.29,7.13-3.57,11.51-10.15,20.56-13.16,31C347.5,147.23,360.11,134.34,361.2,129.68Z" fill="#fff"/><path d="M447,120.91a1.81,1.81,0,0,1-1.1,1.37,1.71,1.71,0,0,0-.82,1.37c-.27,1.1-.55,1.37-1.37,1.65-.55.27-.55.54-.82,2.19.55,0,.82,0,1.09.27V128h-1.91a7,7,0,0,0,.27-2.2h-.55L441,131.6c.55.28.82.55,1.1.55a37.26,37.26,0,0,1,.27,5.48,13.08,13.08,0,0,0,1.1,4.94c.82,1.1,3,7.13,3.83,8.22,3.84,3.84,8.5,8.78,12.89,9.05,1.37.28,9.32-1.1,10.69-1.37a57.88,57.88,0,0,0,18.92-10.14c4.66-3.57,9-7.68,13.71-11.52l.82-.82,4.94-5.49a69.39,69.39,0,0,0,8.22-9.59c.82-1.37,1.65-2.74,3.29-3.29a28.41,28.41,0,0,1-2.19,6.85,6,6,0,0,1-1.37,2.2,27.29,27.29,0,0,0-4.11,5.75l-2.75,3.29-1.09,1.65,2.19-.82c-.27,1.64-1.65,1.92-1.92,3.29.27.27.27.55.82.82a15.82,15.82,0,0,1-2.74,3.29A38,38,0,0,0,503,148.6a64.56,64.56,0,0,1-7.95,7.13,36,36,0,0,1-3.84,3l-3.29,2.2a43.36,43.36,0,0,0-4.93,2.74,26.9,26.9,0,0,1-8.78,3.56l-2.46.83a42.53,42.53,0,0,1-9.87,1.92c-3.84.54-20-2.47-23.58-3.84-9.6-3.84-11.52-8.5-15.9-12.34a14.09,14.09,0,0,1-3.84-5.76c-1.37-3.56-1.65-7.4-1.92-11.51a57.85,57.85,0,0,1,5.76-24.4c.82-1.65.82-1.65.54-4.12a5,5,0,0,0-2.74,3,41.23,41.23,0,0,1-3.29,7.13c0-2.47,1.1-4.12,1.92-6a85.75,85.75,0,0,1,7.68-14A75.41,75.41,0,0,1,436.6,85.54a62.27,62.27,0,0,1,12.34-10.42l2.74-1.37c1.37-.55,2.74-.82,3.57.55.82.82,1.91.55,2.46,1.1.83.55,1.1,1.64,1.65,2.19C462.1,79,472.52,81.7,475,83.35a6.91,6.91,0,0,1,1.91,2.74c1.38,2.47,2.47,5.21,4.39,6.85a6.89,6.89,0,0,1,1.1,2.47,24,24,0,0,1,0,9.87A30.08,30.08,0,0,1,478.28,116a37.83,37.83,0,0,0-3,5.76,25.74,25.74,0,0,1-2.74,5.48,8,8,0,0,1-4.94,4.12,8.8,8.8,0,0,1-5.21.82c-.82-.27-1.64,0-2.19-1.1a.26.26,0,0,0-.27-.27c-2.2.27-3.57-2.19-5.21-3a2.8,2.8,0,0,1-.55-1.37c.55-1.09,0-1.64-.28-2.47-1.09-2.19-2.19-4.66-3.56-6.85-.27-.82-1.1-1.1-1.92-.27C448.12,118.17,447,119.26,447,120.91Zm-26,24.67.83,2.2c0,.82.82,1.37.27,2.47-.27-.28-.55-.28-.55-.55-1.37-2.74-1.92-6.31-2.47-9.87-.27-.28,0-.55,0-.83,0-4.11,0-7.95,1.1-12.06a7.8,7.8,0,0,0,.55-2.47v-1.92a20.86,20.86,0,0,0-1.65,3.84l-.82,3.84c-1.09,7.13-.82,13.71,2.2,19.47a20.42,20.42,0,0,0,2.19,3,4.39,4.39,0,0,0,1.92,1.1c0,.27.27,0,.82,0a27.8,27.8,0,0,1-2.19-3.84c-.82-1.64-.82-3.29-1.65-4.66A1,1,0,0,0,421,145.58ZM421,128c-1.37,4.38-1.09,8.5-.54,12.61,0,.27.27.27.54.55l.83-8.5c.27-1.92.55-3.84-.28-5.49C421.25,127.49,421,127.76,421,128Zm34.55-21.94-1.92,3c-1.1,1.92-.82,3.29.55,4.11a8.68,8.68,0,0,1,2.47,1.92c1.64,1.92,3.83,1.65,6,1.37,1.92-.55,3.29-2.47,4.38-4.38,1.92-4.67,3-5.49,4.67-10.15,4.38-10.42-4.39-7.95-8.5-4.66C460.18,99.52,458,103.09,455.52,106.1Z" fill="#fff"/><path d="M633.46,190.55c-.82-1.65-3-1.65-5.76-.82-3,1.37-5.76,1.09-8.5,1.37-4.11.54-7.4-.28-11.79,1.64-2.74,1.37-5.21,1.65-7.67,2.47-3,.82-3,.82-4.12,3.56.28.55,0,1.1,0,1.65-1.37,2.47-4.66,4.93-6.85,4.66-1.1,0-2.74-.55-4.39-.28-1.64-.27-2.47-1.09-2.47-3,.28-1.37-1.09-2.19-2.74-1.92-2.19-.27-4.11-1.1-6.3-1.1-3.84.28-7.41,1.1-11.52,1.65a32.34,32.34,0,0,1-8.5,1.37c-1.37,0-3,.55-4.66.55-3,.82-4.66-.28-3.84-3.29.83-2.47,1.92-4.66,2.75-7.41a83.21,83.21,0,0,0,4.11-10.41,25.79,25.79,0,0,1,4.11-9,16.9,16.9,0,0,0,4.11-6,9.23,9.23,0,0,1,5.49-4.39,9.5,9.5,0,0,1,6-.82,70,70,0,0,0,10.69.82c15.9,2.74,16.72-13.16,20.84-20A90.45,90.45,0,0,0,606,131.6c.82-1.37.55-1.92-.27-1.92l-1.92-1.37c-3.29-1.37-4.39-4.11-3.57-8a16.18,16.18,0,0,1,.55-7.13,11.46,11.46,0,0,1,3.29-8c3.57-.27,6.58,0,9.87-.27,2.74,0,3-.28,4.66-3.29,3.84-9,9.05-17.82,11.52-26.87,2.19-6.86.82-9-8.78-9.6-2.46.55-4.93,0-6.85-.27-1.1,0-1.64-1.1-1.92-2.19-1.1-6.86-1.37-14.81,3.57-23.86.82-1.64,2.74-3.56,3.83-5.21a10.12,10.12,0,0,1,4.12-2.19c14.8-.55,29.88-3.84,44.69-5.76,8.77-.82,17-.55,25.77-.55a78.82,78.82,0,0,1,16.45,1.37c13.71,3.84,18.09,13.71,15.35,29.62-.55,3.83-2.74,7.95-5.76,11.78l-3,4.94a26,26,0,0,1-8.23,8.22l-3.56,2.2a63.52,63.52,0,0,1-6.31,3.84l-13.16,6.58a15.29,15.29,0,0,0-3.29,1.09l-4.38,1.65a1,1,0,0,1-.28.82c1.37.27,2.47,0,3.57.27-1.1,0-2.75.83-3.84.83l-.28.27,1.37.82a5.39,5.39,0,0,1-2.19,1.1c.28.55.28.55.28.82,1.91.55,3.56.55,5.21,1.37,4.38,1.37,8.77,2.2,12.88,3.57.82.27,1.37,1.09,2.19,1.37,1.65.55,3.29.27,4.39.82.82.55,1.1,2.19,1.65,3.29,2.19,3.84,5.21,7.13,7.12,11.24,1.92,4.66,3.57,9.87,1.37,16.45a43,43,0,0,1-2.46,5.21c-1.1,1.92-2.47,3.57-3.29,6-2.2,2.47-3.84,4.94-4.39,7.68a10.36,10.36,0,0,1-1.64,1.92c-2.75,3.84-6.86,6.31-10.7,9.32h-1.09a28.17,28.17,0,0,1-5.49,2.19c.83.55,1.1.83.83,1.38l-.28.27-1.92,1.1c-2.47,2.74-5.48,3.83-8.77,4.66-4.94,1.92-10.42,2.74-15.63,5.21-2.47.82-4.93.82-7.67,1.37a13.56,13.56,0,0,0-3.3.55,58.78,58.78,0,0,1-7.4,1.92,13.5,13.5,0,0,1-3,1.09l-.55.55a2.07,2.07,0,0,1,1.09.27C635.1,191.37,634,191.1,633.46,190.55Zm2.19-30.16L650.18,159c5.49-.28,10.7-1.65,16.73-3.56l24.67-6.58c3.57-1.38,4.94-3,4.39-5.76-.27-3.29,0-7.13-2.74-9.33,0-.27-.28-.54-.28-.82-.27-4.11-3.29-6-6-8.22-.27-.55-1.92,0-3.29-.28-.55,0-1.37.28-1.92,0a50.08,50.08,0,0,1-11.24-.27,47.33,47.33,0,0,0-8.77-.82c-3.57.54-7.13.54-11,1.09a42.45,42.45,0,0,0-8,1.1c-2.74.55-5.76,1.1-8.77,1.92-17.28,1.64-14.53,12.06-20.57,23.58-5.48,14.53,1.92,11.24,12.89,10.14C629.35,160.94,632.36,160.94,635.65,160.39ZM686.37,82.8c8.23-3.56,16.45-7.4,24.4-12.89,4.39-2.74,5.76-7.12,2.75-8.77-.55-.55-.55-1.1-1.1-1.37-1.92-1.1-3.84-2.74-6.58-3-3.84-1.37-8.5-1.09-14,0-.83,0-1.37.28-1.92.28-1.92-1.37-4.94-1.37-8.78.27a.67.67,0,0,1-1.09.28c-.83-.55-2.47.82-3-.55-.27-.28-2.47.55-3.56,1.09-1.1,0-1.92-.54-2.74-.27-4.94,1.1-9.6,1.65-14,2.47-10.42,1.92-34.27,49.9-14,37.56C657.31,93.49,671.84,88.28,686.37,82.8ZM642.23,184.52c2.2.54,3.57.54,5.49-1.65C645.52,182.87,644.43,183.42,642.23,184.52Zm18.1-2.74a42.68,42.68,0,0,1-4.39,1.37C658.13,183.69,658.13,183.69,660.33,181.78Zm-.28-1.38a14,14,0,0,0,3.29-.82,1,1,0,0,0,.28-.82,14.28,14.28,0,0,1-3.29.82A1,1,0,0,0,660.05,180.4Zm50.72-150a3.14,3.14,0,0,0-3-1.64c-8.5-1.1-17.27-.82-25.77-.82a9.47,9.47,0,0,1-3.84.54v.28ZM698.71,140.1c.27.55,1.1.82,1.92,1.65,1.37-3.57,0-9.05-1.92-11C697.34,132.7,697.89,136.81,698.71,140.1Z" fill="#fff"/><path d="M830.31,119a8.19,8.19,0,0,1,4.67,2.74c-.28,1.92-3,8.5-4.39,9.6-.82.27-1.1,1.09-1.65,1.37l-3,3.56a5.68,5.68,0,0,0-1.65,1.92,7.57,7.57,0,0,1-3.29,3.29,2.83,2.83,0,0,0-1.37,1.1c-1.64,1.92-3.84,3.56-5.48,5.21a13.72,13.72,0,0,1-5.21,2.74c-2.47.55-4.66.55-6.85,1.37-1.92.82-4.12.82-6.31,1.37H793.3c-3.29-1.1-6.58-1.64-9.32-3.84l-1.37-.82a16.08,16.08,0,0,1-6.58-4.66,29.82,29.82,0,0,0-5.76,3.56l-3,1.92a.94.94,0,0,0-.55.28c-1.65,2.19-3.84,2.46-6,3.29-3.84,1.09-7.68,1.09-11.25-.83a27,27,0,0,0-4.11-1.91c-8-3.29-12.34-9.33-13.16-17.83a21.16,21.16,0,0,1,2.2-12.33,48.77,48.77,0,0,1,6.58-10.15c0-.27.27-.55.54-.82a170,170,0,0,1,12.07-15.63A45.32,45.32,0,0,1,764,85a6.56,6.56,0,0,1,2.46-.55,30.87,30.87,0,0,1,5.21-.54h.83c1.64.82,3.83.82,5.75,1.37a4,4,0,0,0,1.65.55c1.37.27,2.47.27,3,1.37a.87.87,0,0,0,.55.27c1.37,0,2.47,1.37,3.84,1.37a2.1,2.1,0,0,1,1.37.55c1.65,1.64,3.57,3,4.66,4.93l.83,2.2c.54,2.47,0,4.11-2.47,5.48a36.43,36.43,0,0,0-6.86,4.39v.27c-3,3-6.58,5.76-9,9.32l-3.29,3.57a103.88,103.88,0,0,0-6.58,8.77l-2.75,3.84a5.91,5.91,0,0,0-1.09,1.64,29.89,29.89,0,0,0-3.29,9.05c-.28.28,0,.55,0,1.1l1.09-.82a85.43,85.43,0,0,1,9-8A16.75,16.75,0,0,0,773,130.5l2.2-2.46a51.18,51.18,0,0,0,4.66-6l5.76-9.33c2.46-.27,4.38,0,6,1.92l1.64,1.65c1.92,2.47,2.2,5.21,2.47,8,0,.55-.27.82-.55,1.37l-3.84,7.68a10.62,10.62,0,0,0-.82,5.75,34.11,34.11,0,0,0,2.47,6.86,2.89,2.89,0,0,0,2.47,1.37,22,22,0,0,0,5.75-1.37,47.45,47.45,0,0,0,5.21-2.74l6-3.57,4.39-3.84c3.57-3.56,9-12.61,12.61-16.17Z" fill="#fff"/><path d="M918.05,128.59l-4.94,6.85a52.34,52.34,0,0,0-4.93,8.5c0,.27,0,.82-.28.82a92.82,92.82,0,0,1-5.48,7.68l-8.77,9.32a54.61,54.61,0,0,1-9.33,6.86c-1.91,1.09-11.78,6.3-14,6.3-2.47.28-11.51-.82-14,0-3.84.82-12.06-2.74-15.63-4.11a51.64,51.64,0,0,1-10.69-6c-5.21-4.12-7.95-9.87-8.77-17.82a59.52,59.52,0,0,1,0-14,43.52,43.52,0,0,1,1.64-8.22L825.1,119c1.92-6,5.21-11,7.95-16.18l2.2-3.29a36.74,36.74,0,0,1,7.13-8.5c3.29-2.74,6.3-5.75,9.87-8.22A9.67,9.67,0,0,1,858,80.88a7.8,7.8,0,0,0,2.47-.55A11.14,11.14,0,0,1,866.78,79c.27.28.27.28.27,0a13.64,13.64,0,0,1,9.05,2.74c.27,0,.55.28.82.28a1,1,0,0,0,.82-.28c.83-.55,1.38-.82,2.2-.27a3,3,0,0,1,1.09,3,4.06,4.06,0,0,0,.28,3.57c.27.27,0,.82.27,1.1l-1.64,2.46A32.4,32.4,0,0,0,881,96.51a36.45,36.45,0,0,1,.83,7.67,20.35,20.35,0,0,1-.28,4.12,75.71,75.71,0,0,1-4.66,14c-.82,1.92-1.92,3-3.56,3.29-.55,0-1.1.27-1.65.27a2.32,2.32,0,0,1-1.64-.54,18,18,0,0,0-4.94-3l-.82-.55a2.44,2.44,0,0,1-1.1-2.74l.83-3.84a151.55,151.55,0,0,1,5.21-15.9,5,5,0,0,1,.27-1.65l-1.1.83c-1.64,3.56-4.38,6.3-6.58,9.32a57.58,57.58,0,0,0-5.75,9.87l-6.58,13.71c-2.2,4.11-3.57,8.77-4.94,13.43a20.39,20.39,0,0,0-.82,4.39,10.56,10.56,0,0,0,.82,5.76l2.47,5.48a23.19,23.19,0,0,0,2.19,3.29c1.37,1.64,8.23-1.1,10.15-1.37,6-.82,18.91-6.31,24.12-11,4.11-3.56,11.79-9.05,15.36-13.16l4.11-4.93c2.47-3.29,10.14-8.78,12.61-12.34,1.37-1.92,5.76-4.39,7.13-6.31.82-1.09,0,3.84,1.37,3C923.53,120.09,919.69,126.67,918.05,128.59Z" fill="#fff"/><path d="M971.23,167.52a52.7,52.7,0,0,0,4.66,7.68c1.1,2.19,2.75,3.28,4.67,3.28a13.47,13.47,0,0,0,8.77-.82c2.74-.82,12.61-8.77,15.63-10.14,1.09-.55,12.34-12.61,13.71-13.44,4.38-4.66,7.67-10.41,11.24-16.17,2.74-4.39,4.93-9.32,7.67-13.71l1.65-3.57.82-3.29c1.37,3.84,4.94.83,3.84,3.57a10.67,10.67,0,0,0-.82,3.56c-.28,2.74-4.39,8.23-5.21,10.15-1.37,3.84-2.47,7.4-4.66,11v.55c-1.65,3.29-4.12,6.86-5.76,10.42-1.92,2.19-14.81,16.45-17,18.37a14.38,14.38,0,0,1-4.66,2.74c-4.11,2.2-14.81,11-18.92,12.07-2.74.54-5.76,1.37-8.5,1.37a15.5,15.5,0,0,1-11.79-4.39l-4.38-5.48c-3-5.21-6.86-11-9.6-17-2.47-3-3.29-5.49-5.76-1.92-.55.82-.55,2.47-1.09,3.29a45.08,45.08,0,0,0-2.75,4.93,22.71,22.71,0,0,1-2.46,5.21c-1.1,1.1-1.92,1.65-3.29,1.37a5.34,5.34,0,0,0-4.12,1.37c-5.75,2.47-8,2.47-12.06-1.09-5.21-3.29-7.13-9-8.22-15.08a2.92,2.92,0,0,1-.28-1.65c.82-4.11,0-8.5-.27-12.88-.55-5.49,0-11,.27-16.45a61.78,61.78,0,0,0,.82-7.13c.28-7.68,2.47-15.08,4.39-22.48,1.37-4.39,2.74-9,4.39-13.16,2.47-7.68,5.76-15.36,9.05-23,1.91-3.29,3-6.86,4.93-9.87,4.66-10.15,10.69-20,16.18-29.07,4.11-5.75,7.95-11.24,12.61-15.62,1.92-1.65,3.84-3.57,6-5.21,1.92-1.65,4.39-1.65,6.85-1.92.28,0,.83.82,1.37,1.1,1.38,3,4.67,4.93,7.41,7.12a52.54,52.54,0,0,1,12.61,14,16.07,16.07,0,0,1,2.74,9v2.47A3.5,3.5,0,0,1,999.2,40a7,7,0,0,0-1.92-1.1c-.55-.82-1.64-1.37-2.19-2.19-2.74-2.19-4.94-1.92-8,1.1-2.47,2.19-4.94,5.2-7.68,7.67a9.14,9.14,0,0,1-1.65,2.74c-2.74,4.39-5.75,8.23-8.5,12.07a5.68,5.68,0,0,1-.82,1.92,47.52,47.52,0,0,1-4.11,8.5c-1.92,3.83-4.11,7.67-6,12.06l-3,5.76c-2.19,5.21-4.93,10.69-7.13,16.17A140.86,140.86,0,0,0,940.53,125c-.28,1.65-.83,2.74-1.1,4.11-.82,3.57-1.37,7.41-2.47,10.42-1.09,8.78,1.37,8.5,3.29,5.49,4.12-6.31,7.13-13.71,11.79-20a127.57,127.57,0,0,1,15.63-18.64c6-4.66,11.51-6.31,17.82-5.21,1.37,0,2.47.82,3.29,2.47a6.89,6.89,0,0,0,1.1,1.92,16.4,16.4,0,0,1,3,10.14,64.58,64.58,0,0,1-3,20l-.55,2.75a38,38,0,0,1-5.21,9.87c-1.65,1.37-2.74,3-4.11,4.11a14.77,14.77,0,0,1-6.31,4.93,19.74,19.74,0,0,0-3.56,1.37c-.83,0-.83,1.1-1.65,1.38A16.89,16.89,0,0,0,971.23,167.52Zm-57.85-19.74c.55-3.29.55-3.57,0-5.76ZM963.28,125c-1.09,2.74-1.92,5.21-3.29,7.13-1.09,2.74-2.74,4.66-3.56,7.13-3,4.39,5.48,1.64,7.13,0,6.58-4.94,11.24-12.61,14.8-21.11,4.39-14.26-.82-12.89-7.67-4.12A40.74,40.74,0,0,0,963.28,125Z" fill="#fff"/></svg>